<?xml version="1.0" standalone="no"?>
<!DOCTYPE svg PUBLIC "-//W3C//DTD SVG 1.1//EN" "http://www.w3.org/Graphics/SVG/1.1/DTD/svg11.dtd" >
<svg>
<metadata>
Created by FontForge 20120731 at Mon Apr 16 09:02:54 2018
 By www-data
Copyright (c) 2018 by Octotype. All rights reserved.
</metadata>
<defs>
<font id="Savour&Pinacolada" horiz-adv-x="159" >
  <font-face 
    font-family="Savour&Pinacolada"
    font-weight="400"
    font-stretch="normal"
    units-per-em="550"
    panose-1="0 0 0 0 0 0 0 0 0 0"
    ascent="440"
    descent="-110"
    x-height="321"
    cap-height="410"
    bbox="-7.8 -106 407.667 487"
    underline-thickness="50"
    underline-position="-50"
    unicode-range="U+0020-2019"
  />
    <missing-glyph />
    <glyph glyph-name="space" unicode=" " horiz-adv-x="119" 
 />
    <glyph glyph-name="four" unicode="4" horiz-adv-x="199" 
d="M167 465q10 -5 21 -11t12 -14l-8 -45q-2 -11 -3.5 -22t-3.5 -23q-3 -12 -5.5 -25t-4.5 -26q-2 -6 -3 -12.5t-2 -12.5l-13 -70l-8 -44h6q3 -1 4 -4t3 -4t2 -8q0 -2 -3 -3t-5 -1h-10q-3 -17 -5.5 -34.5t-6.5 -34.5l-11 -63q-2 -7 -3.5 -13t-3.5 -12l-6 -25
q-2 -11 -3.5 -15.5t-3.5 -12.5q-1 -1 -4 -5t-11 -2q-4 1 -11.5 1.5t-12.5 2.5q-2 1 -5.5 3t-3.5 6q1 9 -0.5 18t0.5 18q1 10 1 19.5t2 18.5q1 5 1.5 10t0.5 10q0 1 2 5q0 2 0.5 4.5t0.5 4.5q-2 6 2 10l2 8q1 6 1.5 12.5t2.5 13.5q2 8 2.5 16.5t1.5 16.5l3 18h-42
q-2 0 -4 0.5t-4 0.5h-6h-5.5t-8.5 1h-1q-2 0 -2.5 0.5t-2.5 0.5q-2 1 0 8.5t3 9.5l4 9l14 34l12 27l5 12q2 6 5 12l6 12l11 27l8 19q4 6 7 16q3 5 5.5 10.5t4.5 10.5l11 25l10 21q2 4 4.5 8t4.5 8l5 10q2 3 4.5 8.5t6.5 11.5q1 7 6 15l3 8q2 2 7 5t18 -4zM83 170q0 2 0.5 5
t3.5 5l2 6l4 26t4 27q2 5 0 11q-2 -3 -2 -6.5t-2 -7.5q0 9 3 15v2q3 1 3.5 3.5t1.5 5.5q2 9 1 13q0 5 1 7q3 8 4 15.5t2 15.5l12 64l-5 -12q0 -4 -1 -7q-1 1 -1 3l-4 -10q-3 -7 -6.5 -13.5t-5.5 -13.5l-6 -14t-7 -14q-4 -8 -7.5 -16.5t-6.5 -16.5l-12 -28l-8 -19l-10 -24
l-15 -33v-1q7 0 14.5 0.5t14.5 0.5h26z" />
    <glyph glyph-name="five" unicode="5" horiz-adv-x="325" 
d="M323 204q0 -4 -1 -14.5t-1 -22.5v-22.5t1 -14.5l-2 -18t-3 -17q-5 -18 -12 -36q-3 -9 -7 -17.5t-9 -17.5l-13 -23l-14 -22q-5 -5 -9 -10.5t-9 -10.5t-10 -9.5t-10 -9.5l-14 -10t-15 -9t-16.5 -6.5t-17.5 -4.5q-2 -1 -7 -1t-8 1q-5 0 -7 -1q-5 0 -8 -1h-6q-2 0 -3 -0.5
t-3 -0.5h-5q-3 -3 -5 -3l-3 -2h-15q-2 0 -3 1q-5 0 -8 1q-3 0 -7 2q-7 2 -13.5 4.5t-12.5 5.5q-14 7 -19 12l-2 2q-2 2 -2 3q-2 2 -4 6q-5 6 -6 12q-5 9 -6 18q0 10 -2 14q-3 8 -1 17l5 22l6 21q3 12 7 19q0 2 2 5q1 3 7 11l3 4l7 11l10 14q1 2 2 3.5t2 3.5l10 13l12 14
q2 2 4 4.5t4 4.5l8 8l11 10l14 10l7 4q1 0 1.5 0.5t1.5 0.5l4 2q2 0 6 2q2 0 3 0.5t3 0.5q1 1 3 1q1 1 4 1q2 1 8 2t12 0h1q2 0 1 -5q0 -9 -3 -10q-1 0 -1.5 -0.5t-2.5 -0.5l-15 -4q-4 -2 -7.5 -3.5t-7.5 -3.5l-14 -9q-4 -2 -7 -5t-7 -6l-12 -12l-14 -16l-10 -14l-7 -10
l-6 -10q-2 -2 -2 -3l-3 -3q-16 -51 -9.5 -79t20.5 -42q16 -16 42 -19q21 -1 40 9.5t37 28t33.5 41t29.5 47.5q32 57 58 131l-1 1v14q-2 6 -2 10q-3 11 -8 19q-3 5 -6 9t-7 7q-7 7 -16 13q-5 4 -11 7l-12 6l-20 7l-15 4l-18 4l-15 3l-2 -2q-1 0 -6 0.5t-17 5.5q-10 5 -21 10
t-12 8q2 7 3 13.5t4 13.5q4 10 5 15l3 8l4 10l4 10l4 16l8 24l7 18q2 4 5 6.5t5 6.5q1 4 2.5 4.5t3.5 2.5q0 4 13 -1l7 -3q2 1 4 1h54q2 0 4 0.5t4 -0.5h34q2 0 3.5 -0.5t3.5 -0.5h4q2 0 5 -0.5t7 -0.5q1 -1 1 -5q0 -9 -2 -10q-1 0 -1.5 -0.5t-1.5 -0.5q-3 -1 -11 -1
q-5 0 -11 -0.5t-12 -0.5h-58v-4q-1 -3 -0.5 -6t-0.5 -6q-1 -2 -1 -6q0 -1 -0.5 -1t-0.5 -1q-1 0 -1 -2q3 -3 -1 -3q-1 -1 -1 -2l-3 -8l-2 -10l-3 -9q0 -2 -0.5 -3t-0.5 -3v-1.5t-3 -0.5q-1 0 -1 -1q-2 -10 -4 -16q-1 -1 0 -4q2 1 1.5 2t1.5 1q0 -3 -1 -4q-4 0 -4 -2
q-1 -2 -1 -4v-3q-2 -2 -4 -9l-6 -19v-4h1q0 3 2 5q1 -2 -1 -4v-1l8 -2q9 -1 22 -5l10 -3q11 -3 20 -7q5 -2 10.5 -4.5t10.5 -5.5q4 -2 7 -4t7 -5q3 -2 5.5 -4.5t5.5 -4.5q6 -5 13 -15t11 -20q2 -3 2 -5t1 -4l2 -10v-12v0z" />
    <glyph glyph-name="six" unicode="6" horiz-adv-x="248" 
d="M260 389q0 -1 -2 -5l-1 -24l-1 -1q0 -1 -1 -1h-3q-9 0 -10 3q-1 1 -1 3q-1 4 -1 13q1 7 0.5 14t-1.5 14v6.5t-1 6.5l-4 12q-1 3 -2.5 6t-3.5 5q-3 4 -8 6q-2 0 -3 0.5t-3 0.5l-4 -3l-13 -11q-2 -3 -5.5 -6t-5.5 -7q-6 -7 -10.5 -14t-9.5 -15q-4 -8 -7.5 -15.5t-7.5 -15.5
l-7 -16l-7 -15l-6 -13l-3 -6l-3 -6l-5 -13l-6 -12l-5 -13q-4 -7 -5 -13l-5 -13q-1 -3 -2 -6.5t-3 -6.5q-1 -5 -2.5 -10.5t-3.5 -10.5l4 4q1 1 2 2.5t3 2.5q4 4 6 5l3.5 3.5l3.5 3.5l10 6l5 3h2q1 1 3 1l8 2q1 1 5 1q1 0 3.5 0.5t4.5 -0.5v1q4 0 12.5 -1.5t18 -6.5t19 -14
t14.5 -24v-1l1 -3q1 -2 0.5 -3t0.5 -2q2 -8 1 -12q2 -17 1 -32.5t-3 -31.5q-2 -10 -2 -15l-1 -3l-1 -4l-1 -8l-7 -29q-3 -9 -5.5 -18t-6.5 -18l-7 -18q-2 -5 -4.5 -9t-5.5 -9q-2 -5 -5 -8.5t-6 -7.5q-3 -5 -3 -7l-12 -15l-5 -4q-2 -2 -2.5 -3t-2.5 -2l-5 -3l-4 -4
q-2 -3 -5.5 -4.5t-6.5 -3.5q-5 -2 -10.5 -3t-10.5 -2q-11 -2 -20 0q-9 3 -18 7q-6 0 -10 1q-10 2 -15 8q-9 7 -13 16q-3 5 -5.5 10t-4.5 10q-4 10 -5.5 19t-3.5 14t-3.5 14.5t-3.5 21.5q-1 12 -0.5 25t1.5 24l4 61q0 9 1 13q0 2 1 4.5t1 5.5q2 6 2 9l4 9q0 3 1 5.5t2 4.5
l4 13l2 6q0 2 1 3.5t2 3.5q2 4 4 10l3 5q0 4 1 6q1 3 1.5 6.5t2.5 6.5q2 5 6 13q11 17 20 35t19 35l3 5l3 4l5 9l6 9l6 9l5 8l7 8l6 11q1 1 1 2t1 3q2 4 2 5q3 4 5 4q3 1 7 5l3 3q1 0 3 2l5 5q1 1 2 1.5t2 2.5l4 3l6 4q0 1 0.5 1t0.5 1q1 0 1 0.5t1 0.5l3 4l3 3t4 3
q2 2 4 3.5t5 2.5q2 2 5 2h2q7 4 14 5q10 1 17 0q2 0 8 -2q4 -1 7.5 -3.5t6.5 -4.5l3 -3l2 -4q1 -2 2 -3.5t2 -3.5l4 -9q0 -2 0.5 -2.5t0.5 -2.5v-4l3 -12q-1 -2 -0.5 -3t0.5 -3q1 -3 1 -7t-0.5 -6t0.5 -5zM83 168l-8 -11v-1l-4 -18l-2 -4v-4q0 -2 -0.5 -4.5t-0.5 -4.5
q-2 -8 -3 -17l-2 -18q-2 -11 -2.5 -21.5t-1.5 -21.5l-1 -41q1 -5 0.5 -9t-0.5 -8q0 -2 0.5 -2.5t-0.5 -2.5q1 -9 2 -18.5t3 -16.5q1 0 2 -1q2 -2 4 -2q1 -1 5 -1q2 0 3 0.5t3 0.5q4 1 7 4l5 3q6 2 12 7q5 4 9.5 9t8.5 11t7.5 12t7.5 13q5 8 8.5 17t8.5 17l5 7h1q0 4 1 7.5
t2 6.5q2 8 3 15t3 14l1 14l1 1l1 11l1 3l1 7q1 2 1 6q0 2 0.5 3.5t0.5 3.5l2 18q0 1 0.5 1.5t0.5 1.5v4q0 2 -1 3l1 4l-2 4q0 3 -1 4l1 5q-1 1 -1 4q0 2 -0.5 3t-0.5 3v2l-1 3v1q-1 1 -1 2l-1 2l-2 5q-3 5 -7 9t-8 6l-8 4q-1 0 -1 1q-1 0 -1.5 -0.5t-2.5 -0.5l-8 -3l-10 -6
l-7 -6l-9 -8l-8 -9l-7 -9q-1 -1 -5 -7z" />
    <glyph glyph-name="seven" unicode="7" horiz-adv-x="293" 
d="M277 452q7 -6 12 -12.5t3 -12.5q-11 -22 -20 -44t-20 -45q-7 -12 -13 -25l-12 -26l-12 -25l-33 -68q-6 -14 -12 -27t-13 -27l-36 -78l-31 -62q-6 -13 -13.5 -23.5t-14.5 -24.5q-5 -11 -8 -15t-8 -12q-1 -1 -4.5 -4t-11.5 1q-3 2 -10.5 5t-11.5 6l-4.5 4.5t-1.5 7.5
q4 9 5.5 18.5t6.5 18.5q4 10 6.5 19t7.5 19l9 19q0 2 1 3t1 2q3 4 4 9q2 7 5 10q2 2 4 7l12 26l15 33q3 8 6.5 15.5t7.5 15.5l7 17q1 2 2 5t5 4q2 0 4 6q5 14 11 26.5t12 26.5q3 4 4 11q-3 -3 -4 -6.5t-4 -6.5q1 5 2.5 8l3.5 7q1 0 1 1q4 0 5 3t3 6q4 8 5 12q2 7 3 8
q5 7 8 14.5t7 15.5l31 66q3 6 3 12l-9 -19q1 5 5 13q5 9 9 17.5t8 17.5q4 6 7 12t7 11h-4q-4 0 -7 0.5t-7 0.5t-7 -0.5t-7 0.5h-17q-3 0 -6.5 -0.5t-7.5 -0.5h-21q-5 0 -8.5 -0.5t-8.5 -0.5h-1q-4 1 -5 4t-3 4q-3 1 -3 8q0 2 3.5 3t4.5 1h5q5 0 8.5 0.5t8.5 0.5h20
q3 0 6 0.5t6 -0.5q5 1 14 1q2 -1 4.5 -0.5t4.5 0.5h8q4 -1 11 -1h13q4 0 5.5 -0.5t5.5 -1.5q2 2 7.5 3t15.5 -8q1 0 3 -2q1 0 3 -2q1 -1 2 -1.5t2 -2.5v-1v0z" />
    <glyph glyph-name="eight" unicode="8" horiz-adv-x="306" 
d="M301 207q5 -34 -5 -78l-5 -19l-3 -15q-5 -18 -12 -36l-16 -35l-13 -23q-3 -5 -6.5 -11t-8.5 -11q-4 -5 -8 -10.5t-9 -10.5t-10 -9.5t-10 -9.5l-14 -10t-15 -9t-16.5 -6.5t-17.5 -4.5h-3q-1 -1 -3 -1q0 -1 -2 -1q-1 -1 -4 -1q-5 -2 -10.5 -2h-12.5q-2 0 -10 2q-2 -2 -4 1
l-12 3l-22 14l-9 10l-4 5l-4 5q-2 2 -4 6l-9 18q-2 6 -3.5 12t-3.5 11q-3 12 -4 24.5t-1 24.5t1 24t3 24q6 30 15 56q7 22 18 45l4 7q1 2 1.5 3.5t2.5 3.5l4 8q1 2 2 3.5t2 3.5q11 18 25 33q11 11 23 20l11 7q0 1 -1 1q-15 9 -23 24q-5 8 -6 16q-2 4 -2 8v2l-1 2v3
q-2 18 1 31q2 9 4 18.5t6 17.5l3 7q2 2 2 4l1 2l1 1l1 2l1 1q2 2 2 3l5 7l14 16l9 9l11 7q7 6 17 9q9 5 19 6h7q2 0 11.5 0.5t21.5 -2t24.5 -10t19.5 -23.5q2 -3 2.5 -6.5t1.5 -6.5q2 -9 2.5 -17.5t-0.5 -16.5v-4q-1 -1 -1 -3t-0.5 -4t-0.5 -4t-0.5 -3.5t-0.5 -3.5l-2 -7
q-3 -13 -8 -29q-6 -14 -15 -28q-2 -3 -4 -5.5t-4 -5.5q9 -4 19 -10.5t19 -17t16 -25.5t10 -36zM259 169q2 15 1.5 31t-6 30t-17 25t-31.5 16q-3 -2 -9 -4q-5 -2 -10.5 -3t-11.5 -1t-11.5 1t-11.5 3q-1 0 -1.5 0.5t-1.5 0.5h-3l-7 -3q-2 0 -6 -2l-3 -2l-3 -2l-6 -3l-2 -2
l-3 -2q-10 -9 -19 -19q-3 -1 -4 -4l-3 -4l-3 -4l-3 -4q-4 -5 -6.5 -9t-5.5 -9l-5 -9l-4 -9l-4 -9q-2 -2 -2 -4l-4 -10l-2 -4q-1 -2 -1.5 -5t-2.5 -5q-8 -22 -12 -43q-2 -7 -3 -14t-3 -15q-1 -6 -1.5 -12.5t-0.5 -13.5v-17t1 -17q1 -5 2 -10.5t3 -10.5q1 -5 5 -12t10.5 -13.5
t16.5 -10.5t25 -2q3 0 4 1q3 0 5 1h3q0 1 2 1q1 0 2 1q1 0 1.5 0.5t1.5 0.5q2 0 4 2q3 1 6 4l5 5l4 3l5 3l17 15q8 6 13 15q2 2 2 4q2 2 2 4q2 2 2 3t1 3l13 14l4 6l9 9q2 4 2 5q1 6 8 13q8 8 13.5 17t10.5 19q2 5 5 10.5t5 10.5q1 3 2.5 5.5t2.5 5.5q1 6 0 13q0 2 2 3
q3 2 4 3.5t2 3.5q2 3 3.5 6t2.5 6zM108 321q2 -5 5 -9.5t7 -8.5l7 -6l7 -5q1 0 3 -2q2 0 4 -2h3q1 0 1.5 0.5t1.5 0.5h6q1 0 2 -1h8q1 0 1 -0.5t1 -0.5h1q2 0 4 1q1 0 1.5 0.5t1.5 0.5q1 1 2 1q1 1 2 1l2 2l2 1q3 3 5.5 6.5t4.5 5.5l10 9l8 11q4 5 6.5 11t4.5 11l4 19
q4 13 5 23l1 4q0 2 1 4v3q0 3 1 4q0 3 0.5 6t-0.5 5l-4 13q-4 10 -11 15q-7 6 -19 9l-9 2h-1q-3 0 -4 -1q-14 -1 -28 -12l-10 -8l-9 -9l-8 -9l-4 -6l-2 -3l-1 -1l-1 -2l-1 -1v-1q-1 0 -1 -2q-2 -2 -2 -3q-4 -8 -5 -12l-1 -3q-1 -1 -1 -3l-1 -3v-2l-1 -2q0 -2 -1 -4v-4l-1 -2
v-10l-1 -4v-4q0 -1 0.5 -2t0.5 -2v-10z" />
    <glyph glyph-name="nine" unicode="9" horiz-adv-x="248" 
d="M244 229q-2 -10 -4 -19t-4 -19l-3 -13q0 -2 -2 -6q0 -3 -2 -7q-2 -5 -3.5 -10t-2.5 -11q0 -7 -3 -13q0 -3 -2 -7l-3 -6q-8 -17 -16 -35t-17 -35l-4 -9l-5 -9l-3 -4l-2 -5q-4 -4 -5 -8q-2 -5 -5.5 -8.5t-5.5 -8.5l-3 -5q0 -3 -2 -5q-3 -5 -4 -11q-1 -3 -4 -4
q-2 -1 -3.5 -2t-3.5 -2l-6 -6q-3 -5 -8 -8l-4 -4l-5 -4q-3 -3 -5.5 -6.5t-6.5 -6.5q-3 -3 -9 -6q-1 0 -1 -0.5t-1 -0.5h-5q-4 -2 -7.5 -3t-8.5 -2q-9 -2 -17 1q-3 0 -7 2l-8 4l-6 5l-10 14l-4 9l-2 5q0 3 -1 4l-3 12q0 2 -0.5 3t-0.5 3t-0.5 3.5t-0.5 3.5q-1 4 -0.5 6
t-0.5 5q0 3 1 5v4q0 4 -1 6q0 3 1 6v9q0 1 5 1q8 0 10 -2q0 -1 0.5 -1.5t0.5 -1.5l2 -14q0 -15 3 -28q0 -6 3 -12q2 -8 4 -13l3 -6l4 -6l8 -6q2 0 3.5 -0.5t3.5 -0.5h1l3 2q8 6 12 10l5 6l5 7q5 7 9 14t8 15q6 13 13 31l3 8l2 3l1 4l3 8l3 8q10 23 18 50q2 4 4 12q2 6 2 7
l2 6l2 7l2 6l3 13l5 21l-4 -5l-5 -6l-6 -4l-7 -6q-3 -3 -9 -7q-1 0 -1.5 -0.5t-1.5 -0.5l-2 -1q-1 0 -1.5 -0.5t-2.5 -0.5l-9 -2q-3 0 -5 -1q-4 0 -8 1v-1q-4 1 -13 3t-19.5 8t-20.5 16.5t-16 27.5q0 2 -0.5 3t-0.5 3l-2 6v4q-1 1 -1 4l-1 4v4l-1 8v4l-1 4v16q0 10 1 15v8
l1 8l1 7q0 2 0.5 4t0.5 4q1 8 2 14.5t3 14.5q2 9 4 18.5t4 18.5l6 18q2 5 4 9t4 9q2 4 4.5 8t5.5 8q1 1 1 2q1 1 1 3q1 1 1 3q2 4 5 7t6 7l9 9l5 3q1 1 2 1.5t2 2.5q2 3 5.5 4.5t6.5 3.5q5 2 10.5 2.5t10.5 1.5h10t10 -2q10 -3 16 -8q7 0 10 -1q10 -2 16 -8q4 -2 7 -6t7 -9
q7 -10 11 -20q5 -10 8 -18.5t5 -13.5l5 -14l5 -22q2 -12 3 -24.5t1 -23.5t0.5 -21.5t0.5 -20.5v-32zM163 215l6 11l1 1v1l2 18l1 5v3q0 6 1 9q1 9 1 18v17q1 22 0 43q0 9 -0.5 18t-1.5 17q-1 9 -2.5 29t-7.5 33l-5 4q-3 2 -12 0l-7 -3l-5 -3q-5 -2 -11 -6q-5 -3 -8 -8
q-2 -2 -4 -5l-4 -6l-6 -12q-4 -5 -7 -13l-14 -33l-5 -7v-1l-3 -14l-3 -30v-12q0 -7 -1 -10v-6l-1 -7q0 -3 -0.5 -6.5t-0.5 -6.5v-29q0 -2 1 -3q2 -6 2 -9q1 -1 1 -4v-2q1 -1 1 -2q1 -10 8 -22q6 -9 17 -15q2 -2 8 -4v-1q2 0 4 1q3 0 8 3l8 4q6 4 8 7l3.5 3.5l3.5 3.5l9 9
l6 9q2 4 4 6z" />
    <glyph glyph-name="A" unicode="A" horiz-adv-x="291" 
d="M294 202q-2 -11 -3.5 -23t-3.5 -23q-3 -17 -5.5 -33.5t-5.5 -33.5l-10 -54q-2 -11 -5.5 -21t-5.5 -21q-2 -10 -3.5 -14t-3.5 -10q0 -1 -3 -4t-11 -2q-2 1 -9.5 1.5t-11.5 2.5l-5 2.5t-4 5.5q1 8 -0.5 15t-0.5 15q1 5 1 9v8q0 2 0.5 4t0.5 4q0 5 1 8q0 5 0.5 8.5t0.5 8.5
q0 1 0.5 2t0.5 2q1 2 1 7q0 7 2 9l2 6l3 23q2 8 2.5 14.5t1.5 13.5q1 8 2 14t2 14q2 8 2 14q0 2 0.5 4t3.5 4q1 1 1 2t1 3l2 21h-59q-10 -19 -19 -38l-15 -30l-7 -14l-7 -13l-17 -37l-19 -43q-3 -5 -5 -9l-4 -8l-8 -17l-14 -29l-5 -9l-4 -9l-21 -48l-2 -2q-3 -3 -5 -1
t-4.5 4t-0.5 7q1 2 2 5l2 6l19 47l22 49l11 24l11 24l23 47l11 23l11 23l12 24t12 23h-42q-6 -1 -12.5 -1h-12.5h-3q-5 1 -7 4t-4 4q-4 1 -4 7q-1 2 4.5 3t7.5 1h7q7 0 13.5 0.5t12.5 0.5h50v3l6 11l12 23l17 32l11 20l5 9l5 10l16 27l8 13l7 14q2 2 4 6q5 7 8.5 9.5
t6.5 4.5v1l2 1q5 2 12 -2q3 -2 10 -5.5t14 -7.5t12.5 -9t5.5 -10q0 -3 -0.5 -5.5t-1.5 -6.5q-2 -9 -3 -18.5t-3 -19.5q-2 -11 -4 -21.5t-4 -21.5q-2 -6 -3 -11.5t-2 -10.5q-1 -10 -3 -19t-4 -19q5 0 7 -1q5 0 10.5 -2t4.5 -4q0 -1 -1 -1h-3q-2 0 -3.5 -1t-3.5 -2l-4 -3
q-1 0 -3 -0.5t-4 -0.5h-3q0 -2 -0.5 -3.5t-0.5 -2.5zM259 353q1 4 0 9q-1 -4 -1.5 -8t-2.5 -9q0 6 2 12v3l-23 -41q-3 -5 -6 -10.5t-6 -10.5l-6 -12l-6 -10l-10 -19q-5 -8 -8 -15.5t-8 -14.5h53q0 2 0.5 2.5t0.5 2.5q1 4 0 10q-2 -3 -2 -6t-2 -6q0 5 2 13q0 1 1 1q4 1 4 8
q1 3 1.5 5.5t0.5 5.5v6q5 10 5 26l6 29l2 14t3 15z" />
    <glyph glyph-name="B" unicode="B" horiz-adv-x="348" 
d="M216 -43q-8 -2 -16 -3.5t-16 -2.5h-17q-11 0 -15 1l-15 3q-8 2 -13 2h-12q-5 0 -7 5h-2q-1 1 -3 2.5t-4 3.5q-5 1 -8 1.5t-6 1.5l-6 3l-6 3l-9 4q-6 3 -11.5 8.5l-10.5 10.5q-2 5 -5 8t-5 8l-6 15q-5 8 -5 17v26q0 3 0.5 6t0.5 6l3 12q0 7 1.5 12.5t3.5 10.5l1 1l2 6
q2 7 6 12q2 4 4.5 7t4.5 5q5 5 8 4q2 -2 2 -7t-1 -10q-3 -12 -7 -19v-21l2 -16q2 -8 2 -14q1 -6 2 -12.5t3 -12.5l5 -9q0 -2 2 -4l1 -1q0 -1 0.5 -1.5t0.5 -1.5l14 -13q8 -5 17.5 -10t19.5 -7l4 -2h17q6 1 11 1.5t7 2.5q3 0 7 2q2 0 3 0.5t3 0.5l6 2l24 5q4 2 5 2q4 2 6 2
l4 3l5 2l3 2q2 0 4 2l2 2l1 1q1 0 1 1q5 2 9 3.5t7 3.5t5.5 3.5t5.5 3.5q2 0 4 2l4 3l2 3q1 0 1 1l1 2l2 2l4 2q9 6 13 13q4 4 6.5 7.5t4.5 7.5q2 6 5 10.5t5 9.5v3q0 1 1 1q2 4 2 6q2 7 -1 12q0 2 2 3q3 2 3.5 4t1.5 4l2 5q-1 1 -1 2q0 3 -0.5 6.5t-0.5 7.5q-2 4 -3 7.5
t-3 6.5q-4 8 -7 11l-10 11q-3 3 -7 5l-8 4l-15 5l-10 3l-13 2q-3 0 -5 0.5t-4 0.5q-5 -1 -9.5 -2t-9.5 -2q-8 -2 -16.5 -2h-17.5q-2 -10 -4 -15l-6 -22q-1 -3 -1.5 -7t-2.5 -7l-4 -13l-5 -17l-5 -20q-2 -5 -3 -8.5t-3 -8.5q-1 -3 -3.5 -6t-3.5 -7l-1 -7q-1 -2 -2 -5l-2 -6
l-5 -13q-4 -7 -7 -12t-5 -5q-4 -1 -7 -10t-8 -6q-6 2 -6.5 6.5t1.5 15.5l3 22q1 5 2 11.5t3 14.5q2 5 3 11t3 12q2 5 3.5 11t3.5 11t3 11t3 11q2 6 3 11.5t3 10.5q2 7 4 13.5t4 12.5q1 5 2 8.5t2 7.5q-2 2 -5 2l-5 3q-1 0 -2 1v1q0 1 -3 3q-2 2 -4 2l-3 3h-2q0 1 -0.5 1
t-0.5 1q-1 0 -3 2q-1 0 -1 2v1q2 4 8 0q6 0 9 -1h1q1 0 1 -0.5t1 -0.5q2 0 2.5 -0.5t2.5 -0.5t4 -0.5t4 -0.5l1 -1q-1 0 -1 1t0.5 2t0.5 2l7 19l7 27l7 21l8 24l5 18q2 4 2 8q3 3 4 3q1 1 2 1t2 1h2q5 0 9 2q1 0 1 -2q0 -3 4 -2q3 0 3 -5q1 -5 0 -8t-3 -8v-1q0 -5 -1.5 -9
t-2.5 -8v-4v-5q5 20 6.5 23t1.5 2v-5q0 -1 -0.5 -1.5t-0.5 -2.5v-2q2 0 2 -1t-1 -1l-2 -8h1h1q-1 -1 -1 -6l-4 -10l-3 -10l-5 -16l-7 -26l-3 -10l7 3l4 2l4 2q1 0 1.5 0.5t2.5 0.5q1 0 2 0.5t2 0.5l4 1q1 0 2 0.5t2 0.5l15 5q7 2 12.5 5.5t10.5 6.5l5 4l4 3q1 0 1 1h1
q1 0 1 1l3 3q5 4 9.5 7t8.5 8l3 3l2 3l5 6q2 3 3.5 5.5t3.5 5.5v2q1 0 1 2t2 4v3q1 1 1 2q1 1 1 2q6 10 6 22v11t-2 10l-1 1l-1 1l-1 2l-1 1v2l-2 2l-1 2l-2 2q-1 1 -5 3l-1 2h-1q-1 0 -1 1q-1 0 -1 0.5t-1 0.5q-4 4 -13 6l-10 5q-3 0 -5 -1h-7t-10 -1q-8 0 -17 -1.5
t-17 -3.5l-2 -1h-2l-4 -2l-2 -1l-5 -2q-1 0 -5 -2l-3 -2q-1 -1 -2 -1l-2 -1q-1 0 -2 -0.5t-2 -0.5l-4 -3l-3 -2l-1 -2l-4 -2l-5 -3l-2 -3q-1 -1 -2 -1t-2 -2l-4 -5h-1l-7 -9l-5 -6l-2 -2l-2 -4l-10 -17l-1 -1q-2 -4 -5 -4q-2 -1 -3 -1t-2 -1t-7 -1q-2 0 -2 6q2 4 2 5l14 25
l1 2l1 1l3 4l5 7l3 3l3 3l2 2q1 2 2 2t2 1l1 2q1 0 1 0.5t1 0.5q0 2 3 4l4 2l3 3l4 3l2 1l1 1l6 4q1 1 2 1t1.5 0.5t1.5 0.5l10 6l3 1l4 1l4 2l3 1l5 1l1 1l2 1h5q1 0 1 0.5t1 0.5h2l7 2q5 0 7 1h28q5 0 9 -1h8q4 -1 8 -1.5t8 -2.5q1 0 1 -0.5t1 -0.5h1h2q1 0 1 -0.5t1 -0.5
l3 -2q1 0 2 -1q0 -1 2 -1q1 0 1.5 -0.5t1.5 -0.5q1 -1 2 -1q0 -1 1 -1q0 -1 0.5 -1t0.5 -1q2 0 2 -1q9 -3 15 -13q5 -4 7.5 -9.5t4.5 -10.5l3 -12v-17l-1 -4l-1 -3v-2l-1 -6l-2 -4l-1 -5q-2 -4 -2 -5l-2 -5q-6 -14 -15.5 -26.5t-21.5 -23.5q-6 -5 -12 -9t-13 -8l-3 -2l-4 -2
l-6 -3l-2 -1l6 -2l15 -5q5 -2 8.5 -4.5t7.5 -4.5q2 -2 4.5 -3.5t4.5 -3.5l4 -4l4 -4t4 -5l4 -6q3 -4 5 -11v-1h1v-1q2 -4 7.5 -19t6.5 -37.5t-6.5 -50t-30.5 -56.5q-9 -9 -19 -17t-21 -14l-25 -12l-8 -2l-2 -1l-4 -1q-4 -2 -6 -2z" />
    <glyph glyph-name="C" unicode="C" horiz-adv-x="332" 
d="M350 378q0 -1 -0.5 -1.5t-0.5 -1.5t-2 -7q0 -3 -1 -5l-1 -1q0 -1 -1 -2l-3 -5l-1 -2q-2 -2 -2 -4q-1 0 -1 -1q-1 0 -1 -1l-2 -2l-4 -3l-1 -1l-2 -2l-4 -3l-1 1q-1 0 -3 2q-6 4 -6 6v2q2 4 4 6l7 8l3 5q0 2 1 3q0 2 1 3q1 2 1 4v6v2v1v5q0 2 -2 4v1l-1 1h-1q0 1 -1 1l-1 1
q-2 2 -4 2q-2 2 -5 2q0 1 -1 1l-15 -7q-12 -4 -24 -8.5t-19 -8.5q-8 -4 -15 -10q-2 -1 -2.5 -2t-2.5 -3q-1 0 -1.5 -0.5t-1.5 -0.5l-1 -1q-1 -1 -1 -2l-6 -4l-3 -3q-2 0 -2 -2l-12 -12l-5 -7q-2 0 -2 -2l-3 -4q-6 -5 -12 -12t-11 -13q-20 -21 -39 -50l-6 -9l-7 -10
q-2 -5 -4.5 -10t-5.5 -10q-11 -22 -18 -43q-2 -5 -3.5 -10.5t-3.5 -10.5l-5 -21q-3 -23 -3 -44q0 -13 1.5 -25t6.5 -24q5 -11 11 -21.5t15 -18.5q7 -8 14 -12q5 -3 10 -5.5t10 -3.5l1 -1q1 0 2 -1q3 0 4 -1q2 0 4 -1q3 -1 6.5 -2t4.5 -3q0 -2 2 -2q2 -2 4 -2q3 0 4 -1
q1 0 1.5 0.5t2.5 0.5q13 2 22 6q5 2 8.5 3t8.5 3q2 1 3.5 1.5t3.5 2.5l3 2l4 2q4 4 6 5q2 0 2 1l4 4l4 3l3 4l8 8l3 4l4 4q0 1 2 3l2 3l2 2q0 1 0.5 1.5t0.5 1.5l5 7l3 8l3 5q0 2 3 7l6 9q0 1 0.5 1t0.5 2l1 3l3 8l3 9l1 1h1h3q9 -2 9 -5q2 -2 0 -5v-2q-1 -1 -1 -3v-2
l-3 -10l-2 -4l-2 -4q0 -2 -0.5 -2.5t-0.5 -2.5l-2 -4l-3 -5v-1l-1 -1q0 -2 -1 -3l-2 -4q0 -1 -0.5 -1t-0.5 -1q-1 -1 -1 -2l-7 -8l-2 -4t-3 -4l-5 -7q-4 -6 -7 -9l-4 -4l-5 -4l-4 -4l-5 -4l-4 -4l-4 -2l-8 -6l-4 -2q-2 -2 -3 -2l-3 -1q-2 -2 -3 -2q-5 -2 -9 -3.5t-9 -3.5
q-13 -4 -25 -5q-2 0 -2.5 -0.5t-1.5 -0.5q-2 0 -2.5 0.5t-1.5 0.5h-16l-19 3l-18 4q-8 3 -13.5 6.5t-9.5 5.5l-8 4q-2 2 -4 2t-4 1l-18 11q-5 3 -9 6t-8 7q-9 7 -12 15q-2 2 -2 4q-2 2 -2 4l-2 4q-2 2 -2 4l-6 17q-5 20 -5 34q-2 14 -1.5 28t2.5 28q2 12 3.5 23t3.5 18
q2 6 4.5 12t4.5 13l10 22q5 8 9 16t9 16l5 6q1 2 2 3l3 3t4 6q2 1 2 2.5t1 3.5l5 9q3 5 5 6l6 9l7 6q10 10 19 19.5t19 17.5q11 9 21 17t23 16q1 1 2 1.5t3 2.5l6 4l11 6l6 4l6 2q3 2 6 3.5l7 3.5q0 1 1 1l2 1l10 3q13 6 33 9q9 3 19 3q5 1 15.5 0.5t18.5 -4.5q2 -1 3 -2
t3 -2q2 0 2 -2l2 -2l2 -2q0 -2 1 -3v-1l3 -9q0 -2 0.5 -4t0.5 -4v-6z" />
    <glyph glyph-name="D" unicode="D" horiz-adv-x="407" 
d="M345 18q-2 -2 -3 -3.5t-3 -3.5q-3 -6 -9 -10.5t-11 -9.5q-4 -3 -7.5 -6.5t-8.5 -5.5l-8 -3q-2 -1 -3 -2l-3 -3t-4 -3l-4 -3q-3 -2 -5 -3t-5 -2l-27 -6q-7 -2 -14 -3l-14 -2l-27 -2q-2 0 -4 0.5t-4 0.5t-3.5 0.5t-3.5 -0.5h-7q-1 -1 -4 -1q-1 0 -2 -1h-2q-2 -2 -4 1l-3 3
l-2 -1h-7q-18 0 -33 3q-8 2 -15 4l-14 4l-6 3l-6 3l-8 4q-12 9 -21 21q-7 6 -11 17q-1 7 -5 14q-5 12 -5 19q-1 5 -1 8v7v5.5t1 7.5q0 4 0.5 7t0.5 6l2 13l6 23v2l2 6q2 2 3 6t3 6q2 5 5 8t5 6q3 5 6 4q4 -2 4 -7t-2 -12l-6 -20q-2 -5 0 -21v-8.5t1 -8.5q0 -3 0.5 -7t1.5 -9
q2 -14 6 -27l3 -8l3 -5l2 -2q0 -1 0.5 -1.5t0.5 -1.5q2 -3 5 -6.5t8 -6.5q5 -5 11 -8t13 -6h1q2 0 3 -0.5t3 -0.5l2 -1h2q2 0 4 -0.5t4 -0.5t2.5 -0.5t2.5 -0.5h15q48 -3 83.5 13.5t61.5 41.5t42.5 54t25.5 51q3 8 5.5 18t4.5 19q4 16 5 28.5t2 16.5v13q-1 3 -1 8l-1 13
q-1 7 -2.5 11.5t-2.5 9.5l-5 26l-1 4v2l-1 2v4q0 2 -0.5 2.5t-0.5 1.5q-2 9 -6 13l-4 8l-4 8q-3 6 -6 11t-8 10l-9 8q-6 6 -9 8q-6 4 -12 6.5t-12 4.5l-2 1q-1 0 -5 2q-3 2 -7 3t-8 3q-2 0 -2.5 0.5t-1.5 0.5q-2 0 -4.5 -0.5t-6.5 -0.5q-16 0 -35 -7q-1 0 -2 -1l-5 -1
q-1 0 -2 -1l-2 -1l-4 -2q-1 0 -2 -0.5t-2 -0.5l-3 -2q-1 -1 -2 -1l-1 -1q-1 0 -5 -2l-4 -3l-2 -2l-2 -2l-5 -2l-3 -4l-3 -2l-3 -3l-3 -3l-2 -2l-1 -2l-7 -9q-1 -2 -2 -2.5t-2 -2.5q0 -1 -2 -3l-2 -4q-6 -9 -10 -17v-3q-2 -1 -3 -2t-3 -1l-4 -2q-2 -3 -9 -1q-1 0 -1 5
q0 2 0.5 4t0.5 3l4 5q2 5 5 10.5t6 10.5l1 1l2 2l2 3l5 9l3 2l3 3l2 3l3 3l2 2q1 0 1 1l3 4l3 3l4 3l5 2l2 2l1 1l5 3q2 2 3 2l2 2l11 5l2 2l4 1l4 1l3 1l4 2q1 0 1.5 0.5t1.5 0.5l2 1h3q1 0 1 0.5t1 0.5h3l7 2q4 0 7 1h18q2 1 8 1q7 0 15 -2l13 -3q4 -1 11.5 -2.5
t18.5 -4.5l10 -4t10 -6q10 -5 19 -13q14 -16 24 -35q8 -15 12.5 -30t7.5 -30q2 -15 3.5 -30t1.5 -29q1 -9 0.5 -17.5t-1.5 -18.5l-2 -17q-1 -2 -1 -5q0 -7 -2 -21.5t-7 -33.5t-14 -40.5t-22 -43.5l-7 -12q-3 -2 -3 -5zM108 15q-7 2 -7 7l1 8q2 7 4 15l4 16l21 68q2 8 3.5 16
t4.5 16l9 34l10 40q3 8 5.5 16t4.5 16q2 6 3 11.5t2 11.5l8 28l11 40v1q0 1 0.5 1.5t0.5 1.5q2 8 5.5 10t5.5 5q3 4 9 4q1 -1 0.5 -9.5t-1.5 -10.5q-2 -6 -4 -10l-11 -41q-2 -9 -4 -17l-4 -16l-4 -13l-8 -28q-2 -9 -4 -17t-4 -17l-6 -21l-5 -19l-4 -12t-3 -13l-9 -29l-7 -26
q-2 -4 -3.5 -9.5t-3.5 -10.5l-4 -12l-11 -33q0 -1 -1 -1q0 -3 -4 -1z" />
    <glyph glyph-name="E" unicode="E" horiz-adv-x="297" 
d="M356 408v-1v-2q-1 0 -1 -0.5t-1 -0.5q-2 0 -3 1l-4 3q-1 0 -1 -1l-1 -1l-1 -1h-10q-3 -1 -10 -1q-11 -1 -22 -1.5t-21 -2.5l-21 -2l-21 -3l-25 -4q-1 -1 -4 -1q0 -1 0.5 -1.5t0.5 -1.5q-5 -15 -7.5 -29t-7.5 -28h6q2 0 4 1t4 1h8q7 0 10 1h12q4 1 5.5 0.5t4.5 -0.5
q2 0 4.5 -0.5t4.5 -0.5h5h6t9 -1l8 -3q4 -2 4 -3t2 -3l5 -2l1 -1q1 0 2 -1q1 0 1 -1h1q0 -1 1 -1v-2q1 0 1 -1v-2l-1 -1l-2 -2h-4l-2 2l-1 1l-2 -3v-1v-2h-1h-4q-3 0 -5.5 -1t-5.5 -3q-4 -1 -7 -1.5t-8 -0.5q-6 -1 -13 -2t-13 -1q-4 0 -7 -0.5t-6 -0.5q-4 0 -6.5 -0.5
t-6.5 -0.5q-5 0 -8.5 -0.5t-7.5 -1.5h-4.5t-5.5 -1q-2 -5 -3 -11.5t-3 -12.5l-7 -21q-3 -15 -8 -29.5t-8 -28.5l-13 -46l-18 -66l-17 -52q-4 -11 -9 -21t-8 -21l-3 -7l16 2l20 2q3 0 6 0.5t7 1.5q2 0 5 0.5t6 0.5q10 2 15 2l18 2q10 0 15 1q3 0 6.5 -0.5t6.5 0.5q5 0 7 1h21
q2 -1 4.5 -1t6.5 -1q2 0 2 -2l2 -1v-1h1v-2q2 -2 0 -2q0 -2 -1 -2h-1v2l-1 1q0 1 -1 1h-2q-2 0 -6 -2q-2 -2 -4 -2t-6 -1l-18 -3l-41 -4l-38 -4l-24 -3l-19 -3l-12 -3q-2 0 -5.5 -1t-8.5 1h-5q-6 -2 -11.5 -2.5t-11.5 -1.5h-2q-5 -1 -7 1.5t-4 2.5q-5 0 -5 7q-1 2 3.5 3
t6.5 1l6 1h1v2q2 8 2.5 15.5t2.5 15.5t3 15.5t3 15.5q2 5 3 8.5t2 7.5q0 2 2 4q2 6 2 7q-2 5 2 10q2 2 2 5q2 6 3.5 11.5t3.5 10.5l7 28l7 27q2 3 2.5 6.5t1.5 6.5t1.5 5.5t3.5 3.5q2 0 2 4q2 12 5 23l6 22q1 3 1 9q-2 -2 -2 -5t-2 -6q0 4 1 7l2 6v1q3 0 3.5 3t1.5 5
q3 4 3 11q0 3 1 5q5 13 8 27q0 1 1 2h-3q-4 -1 -11 -1h-4l-2 1l-3 4v1q-1 4 -4 8v1q4 2 2 5q-2 1 1 4q3 2 9 2h1q3 2 10 2q0 1 0.5 0.5t1.5 1.5q0 1 2 1q-11 -2 -13.5 -1.5t-1.5 1.5q2 1 3 1h3v1q-1 2 2 2h1q1 0 1 0.5t1 0.5h1l-1 1q3 0 4 1h7q1 0 1.5 0.5t1.5 0.5l5 15
q1 4 1 10l-6 -16q0 2 1 5.5t2 5.5l8 30l3 5h-8q-1 0 -1.5 -0.5t-1.5 -0.5q-6 0 -8 2t-4 3q-2 0 -3.5 2t-1.5 4q-1 2 4 3.5t7 1.5l7 2l18 2l3 5l3 7q1 1 6 3t16 -4l11 -5q4 2 8 2.5t9 1.5l20 2l14 3h12l17 3l19 3h16h14h18h7q1 -1 2 -1t3 -1l2 -2l1 -1l1 -1h1q0 -1 0.5 -1
t0.5 -1v-3v0z" />
    <glyph glyph-name="F" unicode="F" horiz-adv-x="243" 
d="M247 288v-2h-1v-1q0 -1 -2 -1q-1 0 -3 1l-3 3h-1v-1q-1 0 -1 -1v-1h-13l-30 -2l-14 -2q-8 -2 -15 -2q-2 0 -3 -0.5t-3 -0.5l-3 -15l-6 -27l-7 -26l-1.5 -7.5l-1.5 -7.5q-1 -2 -1.5 -4.5t-3.5 -2.5q-2 -2 -2 -5q-2 -11 -5 -22t-5 -22q-2 -5 -1 -10q2 3 2 6t1 5
q0 -8 -1 -12q-1 0 -1 -1q-3 -1 -4 -3l-2 -4q-1 -5 -1 -11q0 -2 -2 -6q-6 -11 -7 -26l-16 -54q-2 -7 0 -10l4 15q0 -3 -2 -11l-4 -14l-6 -14q-2 -9 -5.5 -15.5t-7.5 -14.5q-4 -4 -5 -7q-1 -1 -5 -2.5t-15 4.5q-8 5 -17.5 11t-8.5 12l5 19q1 5 2 9t3 9q2 10 4 19t6 19
q1 5 2.5 9.5l3.5 10.5q2 5 3 10.5t3 10.5l6 21l7 29q2 7 4.5 14t4.5 15l12 44q4 14 7 27t7 27q-2 0 -3 -0.5t-3 -0.5h-2q-4 0 -5.5 2.5t-3.5 3.5q-3 0 -3 6q-1 2 2.5 3t5.5 1l4 1q8 2 13 2l13 45q2 8 5 14t5 14l-10 -2q-3 0 -4 -1q-3 0 -3 2q-2 3 -3 3l-1 1q0 2 -4 8v2
q3 1 1 4q0 2 2 4q2 3 9 3q1 0 2 1q4 2 9 2q2 0 2 1q0 -1 3 2q-12 -2 -14.5 -2t-0.5 1q1 1 2 1q1 -2 3 0l1 1q-2 2 0 2h1h2l1 1v1q2 2 4 2l7 1h6h1q2 0 5 0.5t5 0.5l2 1h1l13 3q5 1 8 1.5t7 0.5l5 1q8 2 12 2l15 3q2 0 4 0.5t5 0.5q5 0 8 1l11 1q8 2 13 2q3 1 5 0.5t6 0.5
q2 0 5 -1t5 -1q1 1 4 1h7t10 -1q3 0 9 -2q1 0 1.5 -0.5t1.5 -0.5l1 -1q0 -3 2 -4q2 0 6 -2q1 0 3 -3v-1h1v-1l1 -2v-1l-2 -2v-1h-1q-1 0 -1 0.5t-1 0.5l-3 2q0 -1 -1 -1v-1q-1 -1 -1 -2h-1v-2h-1q-1 0 -1.5 -0.5t-1.5 -0.5q-6 0 -13 -3q-3 -1 -6.5 -2t-8.5 -2l-29 -3l-12 -3
q-10 -2 -14 -2q-5 -1 -8.5 -1t-8.5 -1q-4 -1 -7 -1t-8 -2q-3 0 -9 -2l-5 -1l-2 -10q-2 -8 -3 -16t-3 -16l-4 -16q0 -1 -2 -3v-7q0 -2 -1 -4h1q3 1 9 1l11 2l14 1h11h9h6h8q3 0 5 -1h1q1 0 1 -1h2v-1h1v-1l1 -1q1 0 1 -1l1 -1v-1v-4z" />
    <glyph glyph-name="G" unicode="G" horiz-adv-x="308" 
d="M324 377q0 -2 0.5 -3.5t1.5 -3.5q0 -2 0.5 -4.5t0.5 -4.5q1 -2 0.5 -4t-0.5 -5q-3 -3 -4 -6l-1 -3l-2 -3q-5 -11 -12 -20.5t-15 -17.5l-5 -6l-4 -3l-4 -3q0 -2 -7 0q-3 2 -6 4.5t-8 5.5q-9 9 -11.5 14.5t-0.5 7.5l2 3l1 1l1 1l2 4l2 2l1 3l2 4v1q0 1 0.5 1t0.5 1v4l3 3h2
l2 2q0 4 4 5q3 1 3 4q0 1 1 2t2 3l5 3l2 2l2 1l2 3l3 4l3 4l4 3q1 0 1 1l1 2l3 3l-2 1l-2 2q-4 2 -7 2l-1 1l-12 -6q-5 -2 -10.5 -4.5t-10.5 -4.5q-2 0 -4 -2q-2 -1 -5 -1l-7 -4q-6 -2 -15 -9.5t-19 -17.5q-3 -3 -4 -5q-1 -1 -1 -2l-4 -4l-9 -11l-21 -24q-9 -11 -17.5 -22
t-16.5 -23l-3 -5l-2 -4l-2 -5l-3 -5l-5 -10l-1 -1l-1 -2l-3 -6q-6 -10 -10 -19.5t-7 -20.5l-8 -20l-6 -20q-2 -9 -3.5 -19.5t-2.5 -20.5q-2 -6 -2 -12.5v-11.5q0 -14 3 -23l3 -11l2 -10q1 -2 2.5 -4t3.5 -5q4 -6 5 -7l6 -7l1 -1h1l4 -3l9 -6l1 -1h1l3 -1h2h3h1l2 -1h2
q1 0 2.5 -0.5t2.5 -0.5l7 -3q2 0 2 -2q2 0 2 -2l1 -1q1 0 1.5 -0.5t1.5 -0.5q2 -1 6 -1q1 -1 4 -1l2 5l4 19q1 3 2 7l2 8l1 9q0 5 4 6l2 2q2 7 3.5 14t3.5 15q0 1 0.5 2.5t-1.5 3.5q-1 -2 -1 -4t-3 -3q0 2 1 4t1 4l1 1q4 0 4 4q2 4 2 7v4q2 4 3 7.5t1 8.5l9 35q0 5 -1 6
l-2 -10q-1 2 -0.5 4t0.5 4l6 19q2 5 3.5 9t5.5 8v1l-10 -2l-13 -1q-4 -1 -10 -1q-2 0 -4.5 0.5t-4.5 -0.5l-6 -1h-13q-2 0 -2 4q-2 8 0 8l3 2l13 3l14 2t15 1l13 1l13 2q5 0 9 0.5t9 0.5l13 1q6 0 9 1h12q5 1 8.5 1h8.5h2q2 -1 5 -4l3 -3q1 -1 1 -4l-2 -4q-1 0 -1 -1l-1 -1
h-3h-4h-17q-8 0 -12 -1h-6q-4 -1 -12 -1q-2 0 -3.5 -0.5t-3.5 -0.5q1 0 1.5 -0.5t2.5 -0.5q9 -4 19 -8t12 -9q-4 -12 -5.5 -24t-4.5 -25q-3 -7 -4.5 -13.5t-3.5 -13.5q-1 -3 -2 -7t-2 -6l-11 -38l-7 -29q-3 -11 -5.5 -21.5t-6.5 -20.5l-4 -17l-3 -8l-3 -9q-2 -7 -6.5 -12.5
t-6.5 -13.5l-2 -4l-3 -4l-4 -5q0 -1 -3 -2.5t-11 1.5q-3 1 -9.5 3t-10.5 5q-2 1 -5.5 2.5t-3.5 3.5q2 3 1.5 5.5t-0.5 4.5v5q0 3 1 5q2 8 2 9q1 2 1 6l1 4q2 8 2 10q0 1 0.5 1.5t0.5 1.5q0 2 0.5 2.5t0.5 2.5v2q-3 -1 -7 -1h-8q-5 1 -8.5 1t-8.5 2q-10 0 -17 3l-14 6l-5 3
l-3 2l-14 9l-18 11l-14 14q-6 7 -11 16l-3 16q-1 5 -2 9t-1 9q-3 15 0 31q1 14 2 27t3 24q3 11 4.5 20.5t3.5 16.5q2 5 4 10.5t4 10.5l12 21l8 15l2 6q4 6 5 9l8 10q6 8 6 12l5 7l3 4l1 2v2l5 6q4 2 6 7l9 9l18 17q2 1 5 4l4 3q8 8 17.5 15.5t20.5 14.5q10 8 20.5 13.5
t21.5 11.5h1q0 1 2 2h4l6 3l13.5 4.5t15.5 3.5l13 2h-1q7 1 13 1q5 0 11.5 -1t11.5 -3q4 -2 7 -5q2 0 2 -2l2 -2l1 -2q3 -1 4 -3t3 -5q0 -1 -0.5 -1.5t-0.5 -1.5v-2q-2 -4 -2 -5v-4v0z" />
    <glyph glyph-name="H" unicode="H" horiz-adv-x="254" 
d="M241 404q10 -5 19.5 -9.5t10.5 -10.5q-2 -9 -3 -18t-3 -18q-2 -8 -3 -17t-3 -18l-7 -40l-4 -20q-2 -9 -3.5 -17.5t-3.5 -17.5q4 0 7 -1q4 0 9 -1.5t4 -3.5q0 -1 -1 -1q-1 -1 -3 -1t-3 -1t-3 -2l-3 -2q-2 0 -3.5 -0.5t-3.5 -0.5h-3q0 -2 -0.5 -3t-0.5 -3
q-2 -11 -3.5 -21.5t-3.5 -20.5q-2 -16 -4.5 -31.5t-5.5 -31.5l-9 -49q-2 -11 -5 -19.5t-5 -19.5q-2 -9 -3 -12.5t-3 -9.5q-1 -1 -3.5 -4t-9.5 -1q-3 1 -10 1t-10 2l-5 2.5t-4 4.5q1 8 0 14.5t0 14.5v15q1 3 1 7q0 5 1 8q2 10 2 15q0 1 0.5 2t0.5 2q1 2 1 7v4t1 4l2 6l3 21
l4 26l3 25q2 8 2 13q0 6 4 8q0 2 1 4l3 20h-63q-5 0 -8.5 -0.5t-8.5 -0.5l-7 -34q-2 -10 -3.5 -19t-2.5 -19q-2 -6 -2.5 -12t-2.5 -13l-5 -21l-6 -30v-1h-1l-7 -23l-2 -15q-2 -5 -4.5 -16t-5.5 -22v-1q-1 -1 -2.5 -2t-6.5 1q-5 1 -9.5 3t-5.5 6t0 10q1 8 2 17t3 20l1 9v-1.5
t0 -1t2 9.5l8 38q0 8 3 19l3 19q3 11 5 22.5t4 22.5q2 9 3 17.5t3 16.5q-5 -1 -10.5 -1h-10.5h-2q-5 1 -7 3.5t-4 3.5t-2.5 3t-0.5 4t4.5 3t6.5 1h6h24l1 14q2 4 2.5 8t1.5 9l2 15q3 12 5 23t4 23q0 3 1 4q0 3 2 5q0 2 1 3q4 4 5 4q7 3 8 6q5 7 15 5q4 0 4 -10t-1 -14
q0 -3 -0.5 -5.5t-0.5 -6.5q-3 -11 -5 -23.5t-4 -23.5l-2 -10l-1 -8l-3 -18h10q5 1 10 1h10h49q0 2 0.5 3t0.5 2q1 4 0 9q-1 -2 -1 -5t-2 -5q0 5 2 11v1q4 2 4 8q2 6 2 10v5q2 6 3 12.5t2 11.5l5 27q1 7 2 13t2 14q1 4 0 9q-1 -5 -1 -8.5t-2 -7.5q0 5 2 11l5 27q2 8 4.5 14.5
t5.5 14.5l3 6q1 1 5.5 3t14.5 -3z" />
    <glyph glyph-name="I" unicode="I" 
d="M212 395q-2 -1 -5 -1h-17q4 -4 4 -6l-7 -37q-2 -9 -3 -18t-3 -19q-6 -19 -9 -40l-5 -22l-11 -56l-9 -44l-12 -64l-10 -50q-2 -5 -3 -10t-3 -10l-6 -20v-3h24h9q2 0 5 -4t2 -12q-3 -15 -11 -15q-4 0 -7 -1h-7q-4 0 -6.5 -0.5t-6.5 -0.5q-6 -2 -9 -2q-8 0 -12 1q-6 0 -8 1
q-5 2 -7 1q-3 -1 -9 1q-6 1 -11.5 1.5t-11.5 2.5q-4 0 -12 2q-1 0 -3 1q-3 0 -7 2q-11 2 -11 9q1 6 8 6h12q2 -1 11 3t17 4h2q0 5 -0.5 7.5t0.5 7.5q1 8 1 15t2 15q1 5 1.5 8.5t0.5 8.5v1l1 2q0 2 0.5 3.5t0.5 2.5q-2 7 2 9l2 6q1 5 1.5 10.5t1.5 11.5l5 27q1 7 2 13t2 13
q0 6 2 12q0 7 4 8q1 1 1 2.5t1 2.5q1 11 3 22t4 21q1 5 0 9q-2 -2 -2 -5t-2 -6q0 7 3 13q2 1 2.5 3.5t1.5 4.5q1 3 1.5 5.5t0.5 5.5q-3 5 0 5q3 7 4 13t2 13l11 54q1 4 0 9q-3 -8 -3 -15q-1 2 -0.5 5t0.5 5l8 28q1 6 3 12t4 11q-2 -1 -6 -1h-23q-2 1 -3 3t-3 3t-2 3v4
t2.5 2.5t3.5 0.5h17q4 1 11 1h14q3 1 9 0h43q2 -2 7 -2h9q1 -1 6 -1q2 -1 5 -1.5t3 -3.5q0 -1 -1 -1h-3q-1 -1 -2.5 -3t-6.5 -3h-4z" />
    <glyph glyph-name="J" unicode="J" horiz-adv-x="237" 
d="M285 404q2 -1 5 -2t2 -3l-2 -1t-3.5 -3.5t-5.5 -3.5h-5q-2 -1 -6 -1h-12l1 -2q-2 -14 -3.5 -27.5t-4.5 -27.5q-4 -16 -5 -30l-3 -15q-1 -11 -3.5 -21.5t-4.5 -21.5q-1 -8 -1.5 -16t-2.5 -17q-2 -6 -2.5 -12t-1.5 -11l-1 -13l-3 -11l-6 -38q-2 -8 -5 -15t-4 -15
q-2 -7 -3 -9.5l-3 -7.5q0 -1 -1 -2q-2 -2 -4 -2q0 -1 -2 -9t-6.5 -19.5t-11 -26t-15.5 -27.5q-12 -19 -28 -32.5t-36 -18.5v-1q-5 -2 -10.5 -2h-11.5l-10 2l-5 2q-2 1 -4 1q-1 1 -4 1l-4 3l-2 3l-9 9q-2 4 -4 6.5t-4 6.5l-4 6v3l-2 3q0 2 -1 4l-1 2l-1 4q0 2 -0.5 2t-0.5 1
l-1 3q0 1 -0.5 1.5t-0.5 1.5v7q-3 12 -3 25q-1 17 0 32q0 6 0.5 13t1.5 13q1 5 1 8.5v8.5l5 22q2 7 3 14.5t3 14.5v3q3 6 6 7.5t5 3.5q2 5 8 3q1 0 1 -6q0 -2 -0.5 -4.5t-0.5 -3.5q-2 -6 -2 -9q-2 -7 -3 -14.5t-3 -15.5q-2 -5 -2.5 -11t-1.5 -11l-2 -11l-1 -22
q0 -6 -0.5 -12t-0.5 -12q0 -4 0.5 -8t0.5 -8l1 -13q1 -5 1.5 -10t2.5 -9t3 -8t3 -8q1 -5 6 -9q4 -5 8.5 -6.5t9.5 -2.5t10 0q17 0 31.5 20t24.5 44t16 45t7 25q0 1 0.5 1t0.5 1v5q1 6 0.5 12t0.5 11t1 12v1l1 2t1 5q-2 3 0 7l2 4l2 16l2 11l1 9l2 20q0 2 0.5 4.5t0.5 4.5
q0 5 3 7q2 0 2 3q1 8 1.5 16t2.5 16q0 6 -1 7q-2 -2 -1 -4t-1 -5q0 7 1 10v1q4 1 4 5q2 6 1 8v6q2 4 2.5 8t1.5 9q2 11 3.5 21t3.5 20q0 4 -1 7l-2 -12q-1 4 1 8l4 22q1 2 1.5 5t2.5 6q-2 -1 -5 -1h-23q-3 1 -3.5 3.5t-2.5 3.5t-2 6q0 2 2.5 3t3.5 1h17q4 1 10 1h14q3 1 9 0
h42q4 -2 6 -2h9q3 -1 7 -1z" />
    <glyph glyph-name="K" unicode="K" horiz-adv-x="205" 
d="M323 406q-9 -12 -17.5 -24.5t-19.5 -25.5l-10 -14t-11 -14q-2 -4 -4.5 -7t-4.5 -8q-8 -9 -15.5 -18.5t-13.5 -18.5l-22 -31q-4 -5 -7.5 -10.5t-8.5 -10.5l-7 -12q-2 -3 -4 -5.5t-4 -5.5l-26 -34q-5 -8 -11 -13.5t-11 -13.5l-7 -8q5 -8 9.5 -17t7.5 -17l9 -18l10 -19
l10 -22l9 -18l7 -13l7 -16l11 -21q1 -1 1 -3q2 -5 0 -7.5t-2 -5.5q0 -2 -6 -6q-2 -1 -5 3t-3 6l-3 6l-11 23l-9 18q-2 2 -2 4t-1 4l-9 16l-9 18l-6 12l-5 10q-3 7 -7 15l-8 17q-2 2 -2 3t-1 3q-3 -8 -3 -16q-2 -10 -4 -18.5t-4 -17.5q-2 -10 -3.5 -15.5t-3.5 -14.5
q-2 -5 -4.5 -12t-3.5 -12l-3 -15q-1 -5 -3.5 -16.5t-6.5 -23.5l-1 -1q0 -4 -9 -1q-6 2 -11 3.5t-6 6.5q-1 2 -1 10l7 38q4 19 7.5 40.5t8.5 40.5l9 39q2 12 4 20l3 20q3 12 5.5 23.5t4.5 23.5q2 11 4 20.5t4 19.5l5 28l3 17l3 16l10 47q0 4 1 5q0 4 2 4q0 2 2 4q4 4 6 4
q2 2 4 3.5t4 3.5q2 4 7 4.5t10 -0.5q4 0 4 -10t-1 -14l-2 -13l-9 -49l-2 -10l-2 -9q-1 -5 -1.5 -9.5t-2.5 -9.5l-3 -17l-3 -14q5 5 7 9l7 9l11 18l7 10q2 4 5 4q1 0 4 3l20 30q2 2 4 7q-2 -2 -3.5 -4t-3.5 -3q4 6 6 8q0 1 1 1q2 0 6 4q2 3 4 7q0 3 2 5q8 7 14 17l28 37l3 7
l-9 -11q1 2 2.5 3.5t2.5 3.5l15 19q5 5 9 9.5t9 9.5l5 3q1 1 5.5 1.5t11.5 -7.5q5 -6 10.5 -12.5t3.5 -11.5z" />
    <glyph glyph-name="L" unicode="L" horiz-adv-x="164" 
d="M300 -35q7 -4 5 -9q-1 -5 -7 -8l-3 -2l-2 -1q-2 0 -4 -0.5t-4 -0.5q-8 0 -15.5 -0.5t-15.5 -0.5q-14 0 -26.5 -1t-20.5 -2q-6 -1 -12.5 -1h-12.5h-17q-8 2 -14 0h-19q-12 2 -24.5 2h-24.5q-7 0 -13 0.5t-12 -0.5l-23 2q-8 0 -15 1.5t-6 3.5q0 2 5 3.5t11.5 2t13 0.5h10.5
l10 2q1 8 0 16t0 16q2 8 1.5 16.5t1.5 17.5q2 10 2 17q0 2 1 4q0 2 0.5 4t0.5 4q-2 5 2 9l2 6l3 24l5 29q1 7 1.5 14t2.5 13q1 5 1.5 8t0.5 7q0 7 3 9q2 2 2 6q2 11 3.5 22.5t3.5 23.5q2 6 1 10q-2 -3 -2 -6t-2 -6l2 13v1q5 2 5 9q2 6 2 11v6q2 7 3 13.5t3 14.5q2 14 5 28.5
t6 29.5q0 7 -1 10l-2 -17q-1 4 1 12l6 30q2 9 4.5 16.5t5.5 15.5l4 7q2 2 6 4t15 -3q9 -5 19 -10t11 -12q-2 -10 -3.5 -20t-3.5 -20t-3.5 -19.5t-3.5 -19.5q-2 -11 -4 -23t-5 -23l-3 -22q-4 -15 -7 -30t-6 -31l-8 -47q-2 -17 -5 -35t-6 -35l-11 -55l-2 -10q-1 -4 -2 -6.5
t-2 -5.5l-5 -21l-3 -14q3 0 4 1h17t17 1l102 3h39q3 0 11 -2z" />
    <glyph glyph-name="M" unicode="M" horiz-adv-x="279" 
d="M310 402q4 -4 4 -6q1 -4 -2 -13v-2v-8t-1 -8l-6 -34q-1 -5 -1.5 -9t-0.5 -9q-1 -1 -1 -2t-1 -2q0 -2 -0.5 -4t-0.5 -4q0 -5 -2 -9t-2 -7q-2 -6 -2 -12.5t-2 -11.5q-2 -8 -3 -15.5t-2 -14.5l-5 -29l-3 -15q0 -7 -2 -9q0 -1 -0.5 -2.5t-0.5 -3.5l-8 -49q-1 -3 -1 -9
q1 3 1 6t1 7l-2 -15v-1q-3 -2 -3 -9q-2 -8 -2 -11q0 -2 -0.5 -3.5t-0.5 -3.5q-2 -7 -2.5 -13.5t-2.5 -14.5l-11 -61q-1 -4 -1 -10q1 4 1.5 8.5t2.5 8.5q0 -4 -2 -12l-6 -32q-2 -8 -4 -16.5t-4 -16.5q-2 -6 -2 -8q-1 -2 -4 -5t-8 2q-4 4 -9 8t-4 11q3 21 6 41.5t7 41.5l8 47
l5 23l12 64q2 12 4 24.5t4 24.5q0 5 2 15q0 -1 -0.5 -1.5t-0.5 -1.5q-3 -8 -6.5 -16t-5.5 -16l-11 -26l-6 -18l-10 -23q-6 -13 -13 -31l-10 -25l-14 -29q-3 -11 -9 -21l-3 -9q-1 -3 -4 -4q-1 -1 -3 -1h2q-1 -1 -2.5 -4t-8.5 -3q-3 0 -10 -0.5t-11 0.5q-2 1 -5.5 2t-4.5 3
q-1 8 -3 14t-3 14t-2.5 14.5t-2.5 14.5v8t-1 7v5v6q-2 5 0 9v5q0 5 -0.5 10.5t-0.5 10.5q0 7 -0.5 13t-1.5 13q-1 6 -1.5 12t-0.5 13l-2 12q0 2 -0.5 4.5t2.5 4.5q1 0 1 5q-3 13 -3 28l-1 -1l-7 -43q-2 -8 -2.5 -15t-2.5 -15q-2 -7 -3 -13t-2 -13q-2 -8 -3 -16.5t-3 -17.5
l-7 -40l-7 -33l-7 -27l-3 -17q-2 -6 -4.5 -18.5t-5.5 -26.5v-3q-2 -2 -9 -1q-6 2 -10.5 4t-5.5 7q-1 3 -1 11l6 43q5 22 8 46t8 45l8 44l8 45l9 53l9 45l4 30l7 39l6 29l-1 14q0 14 3 29q0 3 2 7q0 1 4 4.5t17 0.5h3q5 2 10 0q2 0 2 -3q7 -2 12 -3.5t7 -5.5q1 -18 2.5 -35
t2.5 -36q0 -10 1 -19.5t1 -20.5q1 -5 1 -10v-10q2 -14 1.5 -27.5t0.5 -27.5l3 -43l4 -62v-12l2 4l12 32l11 25q2 3 2.5 6t1.5 5l9 23l11 26q2 5 3 9t3 9l7 15l9 20l9 24l8 19q2 4 5 8t4 7l4 10q1 3 4 9.5t6.5 13.5t7 13.5t6.5 9.5q2 2 3 2q2 0 4.5 3.5t4.5 7.5t4.5 6t5.5 1z
M270 130q0 3 2 11q-1 -1 -1 -3v-1q0 -5 -1 -7zM249 8q0 1 0.5 2.5t0.5 3.5q0 -5 -1 -6zM290 306l3 6zM275 266l2 7zM150 66l-3 -8zM152 52q0 -1 -0.5 -1.5t-0.5 -1.5q0 1 0.5 1.5t0.5 1.5zM143 30l3 5zM311 374q0 2 1 3q-1 -1 -1 -3z" />
    <glyph glyph-name="N" unicode="N" horiz-adv-x="236" 
d="M267 404q7 -4 7 -9q0 -2 -0.5 -4.5t-0.5 -5.5q-1 -4 -1.5 -8t-1.5 -9t-1.5 -10.5t-2.5 -10.5l-8 -42l-7 -40q-2 -11 -3.5 -20.5t-3.5 -19.5l-8 -40l-8 -49q-2 -10 -3.5 -20.5t-3.5 -20.5l-5 -28q-2 -8 -3.5 -17t-3.5 -17q-1 -11 -3 -21t-4 -21v-16q0 -3 -3 -6
q-2 -2 -5 -2q-6 -3 -14 -3h-3q-2 -1 -6 -1q-2 0 -5.5 0.5t-5.5 3.5q-2 8 -5 14t-4 14q-2 4 -2.5 7.5t-2.5 7.5t-2 8q0 2 -0.5 3.5t-0.5 3.5q-1 4 -1.5 8t-2.5 8v4q0 5 -2 7q0 2 -0.5 4.5t0.5 4.5v6q-2 6 -3 11.5t-2 10.5q-1 7 -2 13.5t-2 12.5q-2 7 -3 13t-2 13l-2 13
q-2 7 0 9q1 1 0.5 2.5t-0.5 3.5q-2 11 -4 21.5t-4 21.5q0 5 -2 8q-1 -2 0.5 -5t-0.5 -6q-2 8 -2 12v1q2 2 2 4v5q-1 2 -1 5t-2 5q-1 2 -1 6q0 3 -0.5 6.5t-0.5 6.5q-1 -3 -1 -8q0 -2 0.5 -5.5t0.5 -6.5q-1 2 -1 5.5v5.5q-1 -1 -1 -2q-2 -11 -3.5 -20t-3.5 -19l-8 -43
q-2 -8 -2.5 -15t-2.5 -14t-2.5 -13t-1.5 -13q-2 -8 -3.5 -16.5t-3.5 -17.5q-2 -10 -3.5 -20t-3.5 -20l-7 -33l-7 -26l-2 -17q-2 -6 -4.5 -18.5t-5.5 -26.5v-2q-2 -2 -9 -1q-6 2 -10.5 4t-5.5 7q-1 2 -1 10l6 43q4 21 7.5 45t7.5 45l8 44l8 44l10 53l8 44q1 8 2 15t2 15l8 38
l8 47v23q0 2 0.5 3.5t0.5 3.5q1 1 4.5 5t16.5 2h3q5 2 10 0l2 -2q7 -1 12.5 -3t6.5 -6q2 -8 3.5 -17.5t3.5 -18.5q1 -9 2.5 -18t2.5 -19l6 -42l3 -21q2 -14 3.5 -28.5t4.5 -28.5q1 -5 1.5 -11t1.5 -12q1 -5 1.5 -10.5t2.5 -10.5q2 -17 5 -32.5t5 -32.5l5 -34l4 22l3 17
q2 8 3 17.5t3 17.5q2 11 3.5 20.5t3.5 19.5l5 26l2 12l2 12l6 31l7 36q1 10 2.5 15.5t3.5 15.5q1 5 2.5 11.5t2.5 12.5l3 16q2 2 2 7l2 9l3 12l3 12l1 2q0 3 4 2z" />
    <glyph glyph-name="O" unicode="O" horiz-adv-x="289" 
d="M297 294v-12.5t1 -11.5q0 -6 -0.5 -12.5t-0.5 -11.5q-1 -14 -2 -26.5t-3 -25.5q-2 -9 -3 -17.5t-3 -17.5q-2 -8 -4 -15t-4 -15q-2 -10 -5 -20t-7 -19l-9 -23q-5 -12 -10 -23q-2 -6 -4.5 -9.5t-4.5 -8.5l-11 -17l-12 -14l-12 -13q-3 -4 -7.5 -7t-9.5 -7l-4 -2l-3 -2
q-1 0 -1.5 -0.5t-1.5 -0.5t-1 -0.5t-2 -0.5l-2 -1l-2 -1h-3l-5 -2q-10 -2 -17 -2h-16q-3 0 -4 1h-4l-4 2q-1 0 -2 0.5t-2 0.5t-2 0.5t-2 0.5q-1 1 -3 1l-2 1q-5 2 -9.5 5t-9.5 6q-4 3 -7.5 6t-6.5 6l-11 11q-2 2 -4.5 5t-5.5 7l-5 7.5t-5 9.5q-3 5 -5.5 11t-4.5 11t-3 11
t-2 11l-7 38l-3 16q0 5 -1 8v6l2 18l1 2v1l1 6l1 7q0 5 1 8q0 1 0.5 2t0.5 3q1 3 1.5 6.5t2.5 5.5q1 5 2.5 9.5t2.5 10.5q0 6 3 12l1 6l3 5q9 17 16.5 32.5t18.5 31.5q5 8 10 15.5t10 14.5q1 3 4 4l2 4q1 1 2 1.5t2 1.5l2 2q0 1 0.5 1t0.5 1l6 8q4 6 6 10q2 2 4 3
q5 0 7.5 2.5l5.5 5.5q3 0 5 2l5 3l9 6l4 2l3 2l3 3l4 3q1 0 1 1l3 1q4 0 5 1q2 0 3 0.5t3 0.5l5 -2q1 0 1.5 0.5t1.5 0.5q7 2 8 3q5 1 10 1.5t10 -0.5q7 0 10 -1q3 0 9 -2l10 -3l4 -2l4 -3q5 -3 8 -6l7 -7q7 -7 10 -15q2 -3 3.5 -6t2.5 -6t2 -6.5t2 -6.5q5 -13 5 -25z
M279 239q2 26 0 51l-1 5v4v9l-3 18l-5 20l-5 9q-1 3 -2 5.5t-2 4.5q-2 3 -5 5.5t-5 5.5l-5 4l-3 2q-2 2 -3 2q-14 6 -27 6h-7q-2 -2 -3.5 -2.5t-3.5 -1.5q-3 -1 -6 -3.5t-7 -4.5l-3 -1l-3 -3l-4 -3l-1 -1l-1 -1q-13 -11 -22 -23l-4 -6l-4 -6q-1 -2 -1.5 -3.5t-2.5 -3.5
l-2 -3l-2 -4q-4 -6 -7 -12t-7 -13l-6 -10l-2 -6t-2 -5l-6 -11v-1l-1 -1l-1 -3l-2 -6l-4 -11l-2 -5q0 -4 -2 -6l-2 -6l-2 -6l-2 -11q-4 -15 -5.5 -31t-3.5 -32v-8l-1 -1v-6v-7.5t1 -8.5q0 -7 1 -14.5t2 -14.5q1 -5 1.5 -10.5t2.5 -10.5q1 -6 4 -21t9 -30.5t15.5 -28
t24.5 -14.5h5h1q1 0 3 1q7 0 13 3l12 4v1q2 0 2 2q1 0 2 1l1 1l3 1l5 5q9 7 19 18q4 5 7.5 10.5t7.5 12.5q7 11 12.5 23.5t10.5 24.5q5 11 8.5 23.5t7.5 24.5q4 14 7 26t5 25q3 16 5 31t3 32z" />
    <glyph glyph-name="P" unicode="P" horiz-adv-x="243" 
d="M276 348q0 -9 -1 -21.5t-4 -27t-8.5 -29t-14.5 -27.5q-5 -7 -10.5 -13.5t-12.5 -12.5q-12 -12 -27 -20.5t-30 -15.5q-10 -4 -16.5 -7t-17.5 -5q-9 -1 -18.5 -1.5t-19.5 -0.5v-1l-1 -2l-7 -43l-6 -32l-6 -32l-11 -50l-6 -19q-1 -3 -2 -5t-2 -5t-1.5 -5t-1.5 -5
q-2 -9 -4 -12.5t-3 -9.5q-1 -2 -4 -4t-10 0q-6 1 -13 7q-3 2 -6 3.5t-2 5.5q1 7 0.5 14t0.5 14q1 4 1 8v7q1 4 1 8t2 7l2 16v4q2 4 2 7v4t2 4q1 2 1 3t1 3q1 5 1.5 10t2.5 10q1 7 1.5 13.5t2.5 13.5t2.5 13t2.5 13l2 12q-2 7 2 8q1 0 3 5q1 6 1 7v1.5v1.5t1 6q1 2 0.5 4.5
t-0.5 4.5q-2 -2 -2 -5t-2 -6l2 13q1 0 1 1q1 0 1 1q-1 1 -4 2.5t-6 3.5q-5 2 -7.5 5t-0.5 5h9l13 -4v4q0 4 1 6q2 6 2.5 12.5t1.5 12.5t3.5 17t5 22.5t4.5 22t3 17.5q0 6 -1 10l-2 -16q-1 3 -0.5 6t0.5 5l5 28q3 7 5 13.5t6 14.5l3 6l6 3t16 -4q8 -5 15 -10.5t8 -12.5
q-2 -9 -4 -22t-4.5 -27t-4.5 -27t-4 -22l-7 -40l-5 -21q10 5 19 8l17 5l17 6q8 2 11.5 6t8.5 8t9 8t8 6l9 9l9 9q10 10 17 25t10.5 29.5t4.5 27t0 17.5q1 2 1 7v2l-2 1v5l-1 2v2l-1 4l-2 1v1v1q0 1 -1 2.5t-2 3.5q0 1 -1 2q-1 0 -1 1l-1 2l-5 4l-3 2q0 1 -0.5 1t-0.5 1l-2 1
l-1 1q-1 1 -5 3q-13 8 -30 9.5t-35 -2.5l-20 -7q-11 -3 -20 -9q-5 -2 -9 -5t-9 -6l-10 -8l-10 -8q-4 -4 -7.5 -8t-7.5 -8l-8 -12l-11 -15q-3 -5 -6.5 -11t-5.5 -12q-1 0 -1 -0.5t-1 -0.5q-2 -4 -6 -6l-4 -2q-3 -2 -8 0q-3 0 -1 6l2 8l3 6l14 25l13 18l6 8l13 15l18 14
q3 2 6 5t6 5q4 1 6 3t6 4l17 8q4 2 9 3.5t10 3.5t9 2t9 1q1 1 3 1h4q5 0 8 1h4q1 1 5 1h3q3 0 4 -1h12q5 -1 9.5 -2t8.5 -2l15 -7l1 -1q2 0 4 -2q1 0 3 -2l4 -3q4 -2 8.5 -6t9.5 -9t8 -11.5t5 -12.5q2 -4 3 -7t1 -8q1 -1 1 -6l1 -7v0z" />
    <glyph glyph-name="Q" unicode="Q" horiz-adv-x="300" 
d="M318 306q1 -6 1 -12v-12v-12t-1 -12q0 -25 -5 -53q-2 -9 -3.5 -18t-3.5 -17q-1 -8 -3 -15.5t-4 -14.5q-3 -11 -6.5 -21t-7.5 -20l-8 -23q-5 -11 -11 -22l-11 -20l-5 -7.5t-8 -9.5q-6 -8 -12 -14q-1 -1 -1.5 -2t-2.5 -2l24 -8q2 0 4 -2l3 -2l9 -3h4q1 0 2 -0.5t2 -0.5
q4 0 5 -1h1l5 -3q5 -3 4 -6q0 -4 -7 -6l-5 -2h-6q-2 1 -8 1l-8 2h-9q-3 1 -7 1t-7 1q-2 0 -4.5 0.5t-5.5 0.5q-1 1 -2 1t-3 1q-2 0 -3 1q-2 0 -3 1q-2 0 -3 0.5t-3 0.5q-1 1 -3 2l-2 -2l-5 -2l-3 -2q-1 0 -1.5 -0.5t-1.5 -0.5q-2 0 -2.5 -0.5t-1.5 -0.5t-1 -0.5t-1 -0.5
t-1 -0.5t-1 -0.5h-3l-5 -2q-5 -1 -10 -1.5t-10 -0.5h-18q-2 0 -4 1h-4l-2 2q-2 0 -2.5 0.5t-2.5 0.5q-1 0 -2 0.5t-3 0.5q-1 1 -2 1l-3 1q-12 5 -20 12q-9 4 -17 12q-8 6 -11 11q-5 3 -11 11q-2 4 -5 8.5t-6 9.5q-5 9 -10 22q-2 6 -3 11.5t-3 10.5q-2 11 -4 20.5t-4 18.5
l-2 16q0 2 -0.5 4t-0.5 4v7q0 5 0.5 8.5t1.5 8.5v2l1 2l1 5q0 2 0.5 4t0.5 4q1 3 1 7l2 6l3 12q2 5 3.5 9.5t1.5 10.5l3 13l3 5l3 6q9 17 17 32.5t19 30.5q11 19 24 32l3 4l3 3l3 4q2 0 2 2l2 1l7 9l6 9q1 2 2 2.5t1 1.5q7 1 15 7l5 3l5 3l10 6l4 2l4 3l3 2l4 3q1 0 1 0.5
t1 0.5l3 1q1 0 5 2h6l6 -1q1 0 2 0.5t2 0.5l7 2q6 1 11.5 1.5t10.5 -0.5q7 0 11 -1q3 0 5.5 -0.5t5.5 -1.5l10 -2l5 -3l4 -3q8 -5 15 -13q3 -3 6 -7t5 -8q4 -4 6 -12l5 -14l6 -25zM299 250q1 13 1.5 26t-1.5 27v9l-2 8q0 9 -3 18q-2 10 -6 21l-4 10l-4 8q-2 4 -4.5 6.5
l-5.5 5.5l-6 4l-3 2q-2 2 -4 2q-13 7 -29 5h-9q-2 -1 -3.5 -1t-3.5 -1q-4 -2 -6.5 -4t-6.5 -4l-3 -3l-4 -2l-6 -5q-12 -11 -23 -23q-2 -2 -3 -3.5t-2 -3.5l-5 -6l-3 -6l-3 -3l-2 -4l-16 -27l-4 -9l-6 -11l-5 -11l-1 -1v-2l-2 -3l-2 -5l-5 -11l-2 -6l-1 -5l-2 -7l-2 -6
l-3 -11q-5 -16 -7 -31.5t-4 -31.5l-1 -9v-22l2 -16l3 -3l5 -6l11 -12l23 -19l16 -17q2 -2 4.5 -3.5t4.5 -3.5l3 -5l5 -3q7 -5 13.5 -9.5t12.5 -7.5q4 -3 7.5 -4.5t7.5 -3.5l5 -3q1 0 2 -0.5t2 -0.5v-1l9 9l17 23q8 12 14 24t11 24q6 12 10.5 24.5t8.5 24.5q2 14 5.5 26
t5.5 26q7 31 9 63zM173 -19q3 2 5.5 2t4.5 2l-7 3.5t-6 2.5l-8 5l-7 4l-9 8l-3 3q-2 1 -2.5 2t-1.5 2q-3 0 -6 3l-4 4q-4 7 -9.5 13t-10.5 11l-3 4l-3 4q-2 4 -4 6l-5 8q-2 0 -2 2q1 -8 4.5 -22.5t10 -29.5t16.5 -27t25 -14h5h1q2 0 4 1q6 0 15 3z" />
    <glyph glyph-name="R" unicode="R" horiz-adv-x="283" 
d="M321 346q1 -2 1 -5v-7q-1 -5 -1.5 -11t-2.5 -11l-7 -22q-7 -14 -17 -29q-13 -15 -25 -24q-13 -11 -27.5 -19t-30.5 -14q-11 -5 -20.5 -7t-20.5 -4q-8 -2 -14 -2q4 -9 6 -17l9 -33q6 -25 13 -49.5t14 -47.5l10 -29l9 -29q1 -1 1 -3l1 -4l1 -4l1 -1v-1h-1l-1 -1
q-1 -1 -1.5 -2t-1.5 -2q-1 0 -2 -1q0 -1 -1 -1q0 -1 -0.5 -1t-0.5 -1q-1 0 -1 -1h-6q0 1 -1 1q0 1 -1 1l-3 7q-2 3 -4.5 7t-6.5 7q-3 4 -6 7.5t-5 7.5q-4 7 -7 14.5t-5 15.5q-5 14 -9.5 26t-7.5 18q-2 7 -3 13l-2 12l-4 17q-1 3 -1 7t-2 6q-2 5 -2.5 9.5t-1.5 9.5
q-1 8 -1.5 14t-2.5 14l-4 -13q-2 -10 -5 -20l-6 -20l-16 -59l-4 -12l-10 -34q-2 -5 -4 -9t-4 -9l-4 -9l-4 -9q-2 -8 -4 -11.5t-5 -8.5q-1 -2 -3.5 -4t-10.5 0q-2 1 -8.5 2.5t-10.5 3.5q-2 2 -5 3.5t-2 5.5q2 7 1.5 13t1.5 12q1 5 1.5 8t1.5 7q0 6 3 14l3 14q0 1 2 3q1 3 1 7
q0 5 3 8q2 1 2 5q2 5 2.5 9.5t2.5 9.5q2 6 3 12t3 12q2 7 3 12.5t3 11.5l3 12q0 7 4 8l2 3q2 11 4.5 20.5t5.5 19.5q2 4 1 8q-2 -2 -2.5 -4.5t-2.5 -5.5l3 12q1 0 1 1h2q-2 2 -4.5 3t-5.5 3q-4 2 -7 4.5t-1 4.5h10l12 -3q0 1 0.5 1.5t0.5 1.5q0 4 1 6q3 5 4 11t3 12l13 48
q1 6 0 10l-4 -15q-1 3 0 5.5t2 5.5l8 25q2 7 4.5 13t7.5 13l3 6q2 1 6 2.5t15 -3.5q8 -5 18 -10t10 -11q-5 -17 -8.5 -33t-8.5 -33l-11 -38l-4 -19q4 2 8.5 3.5t9.5 3.5l18 5l18 5q6 3 13 6t12 7q6 5 11 8t7 6q6 3 10 7l10 8q3 4 6 7.5t5 7.5q6 5 8 11q2 5 3.5 9t3.5 9l4 12
t2 12q1 2 1 7v2l-1 1v4l-1 2v2l-1 3l-1 1v1l-1 1q0 1 -0.5 2.5t-0.5 3.5l-2 2h-1l-1 2l-4 5l-3 1q0 1 -0.5 1t-0.5 1l-2 1q-1 0 -2 1t-1.5 1t-2.5 2q-3 2 -6.5 3.5t-8.5 3.5l-6 2t-7 2q-2 0 -5 -1h1q-5 0 -10.5 -0.5t-11.5 -1.5q-6 0 -11.5 -0.5t-10.5 -1.5l-21 -6l-10 -4
l-10 -4q-5 -3 -9.5 -5.5t-9.5 -5.5l-10 -7l-10 -8l-15 -14l-10 -12l-12 -13q-4 -5 -7 -10.5t-7 -10.5l-2 -2q-1 -3 -2.5 -3.5t-3.5 -1.5l-5 -2q-2 -2 -3.5 -1.5t-3.5 0.5q-1 0 -1 2t1 4q2 8 2 7q3 3 3 7l16 23l14 15l7 8l14 14l18 13q8 7 13 9q8 4 12 7l16 7q10 4 21 6
q5 2 9 2.5t9 1.5l2 1h1h4q4 0 7 1h5h4h17h4h11q9 -2 18 -5l13 -5l3 -2q1 0 3 -2q-1 0 3 -2l4 -1q4 -3 7.5 -6.5t8.5 -7.5q8 -13 11 -23q2 -4 2.5 -6.5t0.5 -7.5z" />
    <glyph glyph-name="S" unicode="S" horiz-adv-x="291" 
d="M286 191q-1 -8 0 -26.5t-1 -33.5q-2 -7 -2.5 -14.5t-2.5 -13.5q-2 -7 -4.5 -13.5t-6.5 -14.5l-14 -27q-3 -3 -5.5 -8.5t-7.5 -8.5q-2 -5 -6 -10t-7 -10q-5 -3 -8.5 -7.5t-8.5 -9.5l-17 -15q-6 -3 -13 -7t-14 -7q-13 -5 -32 -10h-21h-6q-2 -1 -5 -1q-5 0 -7 -1h-5l-3 -1
q-1 -1 -3 -1q-1 -1 -2 -1h-2h-10q-1 0 -1.5 0.5t-1.5 0.5q-2 0 -6 1q-2 0 -3.5 0.5t-3.5 0.5q-6 1 -13 3.5t-12 4.5q-5 3 -10 4.5t-7 6.5q-1 0 -1 0.5t-1 0.5q-2 0 -2 2q-1 2 -3 4q-2 3 -3.5 5t-3.5 5q-4 7 -5 14q0 8 -1 10q-3 8 -1 14l4 18l6 17l6 15q1 1 2 4q1 2 2.5 4.5
t3.5 4.5l3 2l7 10l8 10q2 2 2.5 3l1.5 3q4 3 6 5.5t5 5.5l10 9l8 9l7 4l10 11l12 6l7 4h3l4 2h4q2 0 3 0.5t2 0.5l5 2h1l2 1q2 0 7 1t12 0h1q1 0 1 -5q0 -2 -0.5 -4t-1.5 -2t-2 -0.5t-3 -0.5l-14 -4q-3 0 -7 -1t-7 -4q-3 -1 -6.5 -3.5t-7.5 -4.5l-11 -8l-12 -9l-10 -13
l-11 -12q-2 -1 -3 -3t-3 -3q-2 -4 -3 -5.5t-3 -3.5q0 -1 -1 -2l-5 -2q-14 -41 -8 -63t19 -33q15 -12 39 -15q19 -1 36.5 7t34 22t31.5 32.5t27 37.5q29 45 53 103h-1v14v3q-1 0 -1 2v1q0 1 -0.5 2t-0.5 2t-1 1v2h-1q0 1 -1 1.5t-1 1.5l-1 2l-1 1v2l-2 1l-2 3l-2 1q0 1 -1 3
q0 1 -2 3l-4 3q-5 4 -10 6.5t-10 4.5l-22 11q-1 0 -2 1h-5q-3 0 -7 2l-15 4q-6 1 -12.5 2t-12.5 3l-19 2l-22 1q-8 1 -15.5 1h-15.5q-2 -1 -4 -1.5t-5 -0.5q-3 1 -7.5 2t-6.5 3q-4 4 -4 6q-1 1 -1 3v8l1 6v4q1 1 1 6v5q0 2 0.5 6t2.5 8q4 9 11 18q3 4 5.5 7.5t5.5 6.5
q2 4 5 6.5t5 4.5q3 2 6.5 4t8.5 4q5 4 11 4q2 1 4.5 1t5.5 2q6 4 11 4q10 0 18 1.5t16 3.5h18h8q3 0 8 3q2 2 3 -1q3 -2 5 -2h10q3 -1 4.5 -0.5t3.5 0.5q3 0 5 -2h3q1 0 1 0.5t1 0.5h1q2 1 4.5 1h4.5q3 -1 5 -1t4 -2q3 -3 6.5 -5.5t5.5 -4.5l6 -10q0 -3 2 -5q0 -1 1 -2v-2
q1 -5 0.5 -10t-3.5 -12l-1 -2v-1q-1 -1 -2 -3l-3 -5h-1q-8 -5 -14 0.5t-1 15.5q2 8 1 13t-1 7q-1 3 -4.5 6t-12 3.5t-23.5 -2t-37 -10.5q-24 -9 -40 -22t-26 -25q-11 -14 -18 -29h22l26 -2q5 0 6 -1h6l23 -3q7 -2 13.5 -3.5t13.5 -2.5q4 -2 6.5 -3l7.5 -3l8 -4l4 -1
q3 0 3 -1q5 -3 10.5 -5.5t9.5 -4.5q5 -5 9.5 -8.5t8.5 -8.5l4 -4l1 -5l1 -1v-1l2 -2l2 -4t2 -7.5t2 -7.5v-3l1 -1v-3v0z" />
    <glyph glyph-name="T" unicode="T" horiz-adv-x="146" 
d="M288 389q-12 1 -24.5 0.5t-25.5 -0.5h-12t-12 -1h-24h-9q4 -2 4 -7q-2 -6 -1.5 -13t-1.5 -14q-2 -8 -3 -15t-3 -14q-1 -5 -1.5 -8.5t-0.5 -7.5q-2 -2 -2 -3q-2 -4 -2 -7q0 -5 -2 -8l-3 -5l-5 -21q-4 -12 -6 -25q-2 -6 -3.5 -12.5t-3.5 -11.5l-3 -14q0 -1 -0.5 -3.5
t-3.5 -3.5q-2 0 -2 -4l-10 -41q-1 -2 -1.5 -4t-0.5 -5q2 3 2.5 5.5t3.5 5.5q-1 -7 -4 -12h-1q-2 -1 -2.5 -3.5t-1.5 -3.5q-1 -4 -2 -6t-1 -5t-1 -5q-2 -6 -3.5 -12t-3.5 -12l-16 -51q-1 -3 -1 -9l6 15q0 -3 -1 -5.5t-2 -5.5l-3 -13l-3 -7q0 -1 -2 -7q-6 -14 -14 -27l-3 -6
q-1 -2 -5.5 -3t-15.5 5q-8 5 -17 10.5t-8 11.5l5 16q2 5 2.5 9t1.5 9l10 34q2 5 3.5 9.5t2.5 9.5l6 19l6 20l8 27q2 6 4 13l4 14l11 41l17 61q4 12 7 23.5t7 24.5q3 10 7.5 18.5t7.5 18.5q1 8 3 11t4 7h-9l-17 -2l-21 -1q-7 -1 -14 -1.5t-15 -0.5h-2q-8 0 -10 2.5t-4 3.5
q-3 1 -3.5 2.5t-1.5 3.5q0 2 6 2.5t8 0.5l8 1q8 0 15 0.5t15 1.5l24 2h10q5 0 11 0.5t11 0.5l24 1h8t8 1h15h8.5t9.5 1h42q4 0 7.5 -1t6.5 -1h11q1 0 3.5 -0.5t7.5 -0.5q1 0 3 -0.5t5 -0.5h1l2 -1l3 -2l3 -3h1q0 -1 0.5 -1t0.5 -1v-4q0 -1 -1 -1h-4l-2 1h-1q0 1 -1 1h-1v-1
v-1h-1h-4l-11 1h-11v0z" />
    <glyph glyph-name="U" unicode="U" horiz-adv-x="256" 
d="M250 404q11 -3 22.5 -7t12.5 -8q-3 -14 -4.5 -27t-4.5 -27q-3 -8 -4.5 -15t-3.5 -15l-2 -15q-2 -11 -4.5 -20.5t-4.5 -20.5q-2 -8 -3 -16t-3 -16l-3 -18q-1 -3 -2 -15t-3 -29t-6.5 -36t-11.5 -36h-1q0 -1 -2.5 -8.5t-7.5 -19t-12.5 -25.5t-18.5 -27q-14 -18 -32.5 -32
t-41.5 -18l-1 -1q-5 -2 -11 -2h-13l-12 2l-7 2q-1 1 -4 1q-1 1 -5 1l-5 2l-2 4l-11 8q-2 4 -4.5 7t-4.5 6l-3 6q0 2 -0.5 2t-0.5 1l-2 3q0 2 -1 3l-2 3l-1 4q0 1 -1 2l-1 4q0 2 -1 3q0 2 -0.5 3.5t-0.5 2.5q-3 13 -3 25q-1 16 0 31q0 6 0.5 13t1.5 13q1 4 1.5 7.5t0.5 8.5
l6 21q1 9 5 22q0 2 0.5 4t0.5 3l5 29l7 26l6 28l8 32l7 27l4 19l6 24q3 17 9 31q0 3 1 4q2 7 5.5 8.5t5.5 3.5q2 3 4.5 3.5t4.5 0.5t1.5 -7t-1.5 -9l-1 -9q-3 -8 -5 -16.5t-4 -16.5q-4 -12 -7 -27l-3 -11l-7 -24l-6 -26q-1 -5 -1.5 -9t-1.5 -8l-3 -16q-2 -5 -3.5 -10.5
t-2.5 -10.5l-5 -22v-3q0 -2 -0.5 -4.5t-0.5 -4.5q-2 -4 -2 -7q-2 -7 -3.5 -14.5t-3.5 -15.5q-2 -5 -3 -11l-2 -12l-2 -9l-2 -21q0 -7 -0.5 -12.5t-0.5 -11.5q0 -5 0.5 -8.5t0.5 -7.5l2 -13q2 -12 4 -19q2 -3 4 -7l4 -8q1 -5 6 -9q5 -5 11 -6.5t11 -2.5q6 -1 12 0q18 0 33 16
t27 37t19.5 42t10.5 31h1q0 1 0.5 2.5t0.5 2.5q1 1 1 2v1q3 13 6.5 31.5t6.5 37t5 34.5t3 25q1 1 1 3q1 8 2 15.5t3 15.5q0 2 0.5 3.5t-1.5 3.5q-2 -2 -1.5 -4t-1.5 -5q0 4 2 10v1q4 0 4 5q0 2 0.5 3.5t-0.5 3.5v5q3 5 4 9.5t2 9.5q2 10 4 19.5t4 18.5q0 5 -1 8l-3 -12
q-1 3 -0.5 4.5t1.5 3.5l5 21q3 9 10 21l4 4q1 1 -0.5 2.5t12.5 -2.5z" />
    <glyph glyph-name="V" unicode="V" horiz-adv-x="156" 
d="M217 402q2 -1 0 -10.5t-3 -14.5l-5 -12l-16 -49q-4 -9 -7 -18.5t-6 -19.5q-2 -5 -3 -8.5t-2 -8.5l-11 -35q-7 -20 -14 -39q-2 -6 -4 -12.5t-4 -13.5l-7 -23q-3 -8 -5.5 -15t-4.5 -15l-13 -36l-10 -30l-8 -24l-5 -15q-1 -2 -1 -3.5t-1 -3.5q-1 -1 -1 -2t-1 -2q0 -2 -2 -6
l-5 -16v-7q0 -1 -1 -2q-1 0 -1 -0.5t-1 -0.5q0 -1 -3 -2l-6 -2q-2 0 -4 -1t-6 -2q-3 -1 -6.5 -2t-5.5 -1q-4 0 -6 1q-2 0 -4 2l-3 1v1q-3 10 -7 16q-2 5 -2.5 8.5t-1.5 6.5q-2 8 -3.5 16.5t-1.5 16.5l-2 17v1q0 1 0.5 1t0.5 1q0 6 -1 8q-3 5 0 9q1 2 1 6q0 5 -0.5 10.5
t-0.5 11.5v14.5t-1 14.5v41v3.5t2 3.5t1.5 2.5t-0.5 3.5v44q1 5 -1 9q-2 -2 -1 -5t-1 -7q-1 5 -0.5 8t0.5 5v1q4 2 4 9t-1 11v5q2 8 2 14v13l2 56q1 5 -1 9q-1 -5 -1 -16q-2 3 -1.5 5.5t0.5 6.5l2 29q2 9 3.5 16t3.5 15l3 7q1 1 6 4t19 -1q10 -3 22 -6.5t14 -9.5
q-1 -19 -0.5 -38t-1.5 -38q-1 -11 -1.5 -21.5t-0.5 -21.5q-1 -5 -1 -10.5v-10.5q-1 -14 -2 -29t-1 -29v-22.5t-1 -23.5v-110q2 5 3.5 10.5t3.5 11.5l13 41q6 19 13 39l13 39q5 12 8.5 24t7.5 24l6 20t7 20l9 27l11 34l15 48l2 4q4 10 8.5 12t6.5 7t5 5.5t5 0.5z" />
    <glyph glyph-name="W" unicode="W" horiz-adv-x="226" 
d="M247 401q2 0 1 -9t-2 -12q0 -4 -2 -12l-8 -45q-2 -9 -3 -17.5t-3 -17.5l-2 -16l-7 -32l-6 -36l-4 -24l-4 -22l-5 -27l-6 -34q-2 -9 -2.5 -14t-2.5 -14q-3 -10 -5 -22l-3 -14l-4 -19v-13q1 -3 -4.5 -10t-16.5 -7q-12 1 -17 6.5t-7 13.5t-3 15.5t-1 15.5q-1 14 -3 27.5
t-4 20.5q-1 6 -0.5 12t0.5 13q0 5 -0.5 9t0.5 9q2 10 0 14q-2 11 1 19l3 27q0 -1 -0.5 -1.5t-0.5 -1.5v-2q-2 -6 -4 -14q-1 -14 -6 -28l-6 -32q-2 -5 -3 -10l-2 -10t-2 -9.5t-2 -9.5l-5 -24q-2 -8 -3.5 -14.5t-3.5 -14.5l-6 -23q-2 -12 -5 -20q-2 -8 -2 -12q-2 -3 -3 -9
t-3 -13v-9q0 -1 -1 -2q-1 0 -1 -0.5t-1 -0.5l-2 -2l-5 -3q-2 0 -4 -1t-6 -2q-2 -1 -5 -2t-5 -1q-4 0 -6 1q-3 0 -3 2l-1 1h-1v1l-6 18q-1 5 -2 8.5t-2 7.5q-1 9 -2.5 17.5t-1.5 17.5v9t-2 9q0 1 0.5 1.5t0.5 2.5q0 6 -1 8q-1 4 0 10q1 2 1 6q0 6 -0.5 12t-0.5 12
q1 8 0.5 15.5t-0.5 15.5q-1 7 -0.5 13.5t0.5 14.5q0 10 -1 15v4.5t2 4.5q1 1 1 6v48q0 6 -1 9q-2 -2 -1 -5.5t-1 -6.5q-1 4 -0.5 7.5t0.5 5.5t1 2q2 2 2 9v12v6q1 8 1 14.5v13.5q1 15 1 30t2 31q0 3 -0.5 5t-1.5 5q-1 -5 -1 -9v-9q-1 4 -1 12l3 32q1 16 6 33q0 2 1 4t1 4
q1 1 5 4t17 -1q9 -3 19.5 -7t12.5 -11q-1 -20 -0.5 -40t-1.5 -41q-1 -11 -1.5 -23t-0.5 -23q-1 -5 -1 -11v-11q-1 -17 -2 -32t-1 -32v-49v-70v-36l4 18l6 31l7 32l9 39l7 32l5 21l5 28q4 11 6 25q1 2 3 5t7 1l22 -9v-1l1 -1q2 -2 3 -4q2 -9 7 -24.5t7 -30.5v-18t1 -17
q1 -16 1.5 -31t2.5 -31l6 37l6 36l7 37l4 22t4 23l7 36l3 25q5 17 6 31l9 44v4q2 11 5 13t5 5q4 7 9 5z" />
    <glyph glyph-name="X" unicode="X" horiz-adv-x="170" 
d="M222 408q2 -1 -2 -11t-6 -14l-4 -12q-14 -23 -24 -48q-5 -8 -8.5 -17.5t-8.5 -18.5l-7 -17l-18 -35l-11 -24l2 -33l7 -48l7 -72l6 -56l2 -22v-11.5t2 -11.5q0 -2 1 -3.5t1 -3.5t0.5 -3t0.5 -3v-11q0 -2 -1 -3q0 -1 -2 -1l-2 -1l-6 -4q-2 0 -5 -1.5l-5 -2.5q-10 -4 -13 -4
h-6q-1 0 -5 2l-2 1v1h-1q-1 5 -3.5 8.5t-4.5 8.5q-5 8 -6 16q-6 17 -9 34q-2 5 -2.5 9t-2.5 9v4q0 5 -1 8q-1 2 -2 4.5t1 5.5v6l-4 25q-1 8 -2 15t-3 15q0 -2 -0.5 -2.5t-0.5 -1.5l-14 -28l-11 -25l-6 -15l-10 -16q0 -2 -4 -12l-3 -5l-2 -6l-1 -2q0 -3 -6 -1q-2 2 -5 3.5
t-2 6.5q1 2 1.5 4t2.5 5l5 18l10 20l17 41l18 40l8 14q-1 1 -1 6q-1 2 -2 5t3 5q2 2 0 5q-2 12 -3.5 24t-2.5 24q0 5 -2 9q-1 -2 0 -5.5t0 -6.5q-2 4 -2.5 7.5t-0.5 5.5t2 2q2 2 1.5 4.5t-0.5 5.5l-1 11q-2 2 -2 6q2 8 1 14.5t-2 13.5l-6 62q0 4 -2 10q1 -5 1 -9v-9
q-1 4 -1 13l-2 31q0 16 3 34q0 2 0.5 3.5t0.5 3.5q2 2 6.5 5.5t19.5 1.5q11 -2 24 -5t16 -10q1 -21 3 -40.5t3 -40.5l4 -48v-12q3 6 5.5 11.5t5.5 11.5l11 27l17 33l22 46l2 5q6 10 10.5 12t7.5 5q2 4 5.5 4.5t5.5 0.5z" />
    <glyph glyph-name="Y" unicode="Y" horiz-adv-x="115" 
d="M172 399q2 -1 0.5 -6t-2.5 -8l-3 -6l-12 -27q-2 -5 -4.5 -10t-4.5 -10l-5 -9l-9 -20l-9 -21l-6 -14l-6 -12q-2 -5 -3.5 -9t-3.5 -8l-9 -19l-2 -6v-3v-15q0 -2 0.5 -3t0.5 -2q1 -2 1 -4v-7l-1 -2q-1 0 -1 -1l-1 -23l-3 -23q0 -2 -0.5 -4.5t-0.5 -4.5q-1 -8 -2.5 -15
t-1.5 -15l-2 -23q-1 -8 -1.5 -16.5t-2.5 -17.5l-3 -26q-1 -6 -3.5 -11t-3.5 -10q0 -5 -1.5 -7t-3.5 -5q0 -1 -2 -2q-4 -2 -11 -1q-3 0 -10.5 0.5t-11.5 2.5q-2 0 -5.5 0.5t-4.5 2.5q0 4 -1.5 7.5t-1.5 7.5q0 5 -1 8.5t0 7.5v10q1 2 1 5q-2 2 0 3q1 1 1 4q1 2 1 5v5v16
q0 2 0.5 5.5t0.5 7.5v6v3t3 2q1 0 1 2v11t1 12q0 2 -1 4q-2 -2 -1 -3t-1 -2q-1 2 0 6v1q4 0 4 3q0 2 0.5 3t-0.5 3q-2 2 0 2q2 5 2 7.5v7.5l3 27q0 2 -0.5 2.5t-1.5 2.5q0 -2 -0.5 -4t-0.5 -4q-2 3 0 6q0 6 2 14q1 5 5 15q0 2 -0.5 4t-0.5 3v3q-1 2 -0.5 2.5t-1.5 1.5
q-2 2 -1 5l1 2v1l-3 12l-6 28q0 5 -1 8q-3 3 1 4q1 0 1 3q-2 8 -2 12l-2 11q0 3 -1 4q-1 -1 -0.5 -2.5t-0.5 -3.5q-1 3 -1 6v1q2 2 2 3v3v5q-3 3 -1 3q1 4 0.5 6.5l-1.5 7.5q0 7 -0.5 14t-0.5 15q0 2 -3 5v-9q-1 2 -1 6v15q0 8 5 16q0 3 2 5q1 1 4 2q4 1 17 0q11 -2 23 -2.5
t14 -4.5q0 -10 1.5 -19t1.5 -20v-21q1 -4 1 -11l2 -30l2 -12l1 -11l4 -21q1 2 2 4.5t2 5.5l10 22l11 26l10 21l6 15l10 19l12 25q0 2 1 3q2 6 6 6.5t6 2.5q3 3 8 1z" />
    <glyph glyph-name="Z" unicode="Z" horiz-adv-x="209" 
d="M259 400q5 -5 9.5 -9t2.5 -9q-9 -18 -17 -36t-19 -36l-21 -40q-3 -4 -6.5 -9t-5.5 -10q-8 -14 -15.5 -27.5t-15.5 -27.5l-22 -42q-8 -16 -16 -31t-17 -31l-27 -48q-6 -10 -13.5 -19t-12.5 -19l-6 -10h11q7 0 10 -1h47q2 0 3.5 -1t2.5 -1q3 0 4 2h10l2 -4q2 -6 0 -8
q-1 0 -1.5 -0.5t-1.5 -0.5h-1h-2l-1 -1h-3q-1 0 -1.5 -0.5t-1.5 -0.5h-11q-3 -1 -5.5 -1h-4.5h-34l-12 1h-16q-2 0 -4.5 0.5t-5.5 0.5q-3 -2 -8 1q-2 1 -9 3.5t-10 4.5q-2 1 -4.5 4t-1.5 5q4 8 5.5 15t5.5 15q3 8 6 15t7 15q2 4 4 7.5t3 7.5q0 2 1 2.5t2 2.5q3 0 3 7
q1 2 1.5 4t2.5 4q2 1 2.5 2t2.5 2l10 22q4 6 7 12.5t7 13.5q4 6 7 11.5t6 13.5q2 3 3 6t3 6q2 2 2.5 4.5t4.5 2.5l3 5q5 11 10.5 21t10.5 21q3 3 3 9q-2 -2 -3 -5t-4 -5q4 8 7 11q3 1 4 3t3 4q2 4 2.5 6.5t1.5 4.5l3 5q4 6 7 12.5t6 12.5l14 26t14 27q3 4 3 9l-8 -16
q2 8 5 11l15 28q3 5 6.5 9t7.5 9h-58q-6 0 -8 -1h-27q-4 0 -5 3t-3 3q-1 2 -1 3t-1 3q0 2 3 3.5t4 1.5h4h16h41h8h17h13q6 0 10 -1q2 1 7 1.5t14 -5.5v-1q1 0 2 -1q2 0 3 -1q3 -1 4 -5l1 -1v0z" />
    <glyph glyph-name="a" unicode="a" 
d="M19 123q0 2 3 3t4 1h10q0 3 1 5q2 3 2.5 6.5t2.5 7.5l4 14l6 14l12 34l10 28l7 19l10 24q3 8 6 16.5t7 16.5q0 1 0.5 2t0.5 2q2 5 4.5 6t4.5 3q1 0 5.5 -0.5t9.5 -2.5t9.5 -6t6.5 -11q1 -8 1 -15.5v-14.5l-4 -43q-2 -26 -3.5 -53t-3.5 -53q2 0 4 -0.5t4 -0.5t5 -1.5
t3 -4.5l-1 -1q-1 0 -1 -0.5t-1 -0.5q-2 0 -3 -3t-5 -5q-2 0 -3 -0.5t-3 -0.5l-1 -1q-2 -40 -6 -77q0 -5 -1 -10t-1 -10l-1 -1q0 -1 -1 -1l-2 -2q-2 -1 -8 -1q-5 0 -8 3q-2 2 -2 4v9q0 9 -4.5 21t-6.5 22v20.5t1 20.5v2h-9q-7 1 -14 0h-20q-2 -6 -4 -11q-2 -7 -3.5 -10.5
t-3.5 -10.5q-2 -4 -3.5 -8.5t-2.5 -8.5l-3 -11l-3 -12q-4 -9 -5 -16q-2 -6 -5 -14t-6 -6v2q0 1 -0.5 2t0.5 3q0 2 -2 8q-1 3 -1.5 7t0.5 10l7 28q2 8 4 14l4 15l5 15q0 3 1 4h-2q-3 1 -3.5 4t-2.5 4q-2 4 -2 8zM56 127h24q2 0 3.5 0.5t3.5 0.5t3 -0.5t3 -0.5v36q0 8 1 15.5
t2 15.5q1 5 1 11t2 11q2 10 2 17q0 11 3 23q0 2 1 4q-2 -5 -3.5 -9t-3.5 -9l-5 -12l-9 -24q-2 -8 -5 -14.5t-5 -13.5l-6 -18l-3 -8l-3 -8z" />
    <glyph glyph-name="b" unicode="b" horiz-adv-x="190" 
d="M24 193q-5 3 -5 6v1q1 7 12 7h4q2 9 4 17.5t4 16.5q3 14 5.5 22t6.5 21l2 8l8 20q1 3 3.5 7t5.5 3q3 0 3 -3v-2q2 0 3 -4.5t0 -8.5q-1 0 -1 -3l-2 -7l4 5l11 11l4 4l4 4l7 5l7 3l5 3q1 0 5 2q2 0 4.5 0.5t4.5 0.5q3 0 7 -2q0 -1 1 -1q1 -1 1 -2v-1h5l1 -1h1l1 -1
q1 0 2 -1l1 -1q1 0 2 -1q1 0 1 -1l1 -1q2 -2 2 -3q2 -2 3 -4l2 -4q1 -3 9 -11q2 -3 4.5 -6.5t3.5 -6.5q1 -2 1 -6q0 -2 0.5 -3.5t0.5 -3.5v-5q-1 -1 -1 -4v-3q-1 -2 -1 -4l-4 -12l-2 -6q-1 0 -1 -2q-1 -1 -1 -3l-2 -2q0 -2 -1 -3l-2 -4l-3 -4q0 -1 -2 -3q-8 -8 -17 -14
l-6 -4l-7 -3l-6 -2l-2 -1h1l6 -2l4 -3q4 -2 6 -4l7 -5l5 -5q1 -2 1 -3.5t1 -2.5t1 -2l1 -2q1 0 1 -1t1 -2q0 -1 1 -2l3 -12q1 -4 1 -9t1 -9q0 -3 0.5 -6t0.5 -7q0 -19 -4 -32q-4 -7 -7 -13.5t-8 -12.5q0 -2 -2 -4l-3 -5l-2 -2l-1 -2l-4 -5q-4 -5 -7.5 -9t-8.5 -8
q-8 -8 -20 -14q-5 -3 -11.5 -5.5t-13.5 -3.5q-1 0 -1.5 -0.5t-2.5 -0.5h-17q-2 0 -3 0.5t-2 0.5q-2 0 -2.5 0.5t-2.5 0.5l-4 2q-2 0 -4 2l-3 1l-2 1l-4 3l-8 8l-2 2q0 2 -2 4l-2 4q-1 1 -1 2l-1 2q0 1 -0.5 1.5t-0.5 1.5q-1 2 -1 7q-1 2 -1 6q0 2 -0.5 3.5t-0.5 3.5v6
q0 1 0.5 2t0.5 2q2 2 3 2l1 1l1 1v1l2 6v13.5t1 11.5l5 36q2 14 4.5 27t5.5 27q-2 0 -3 1q-1 0 -3 2h-1zM39 121q-3 -11 -5.5 -22.5t-4.5 -22.5q-1 -4 -1.5 -5t-0.5 -5v-5q0 -1 0.5 -1.5t0.5 -1.5v-3q0 -1 0.5 -1.5t0.5 -1.5v-2q1 -1 1 -3q1 -1 1 -3q3 -4 10 -6h9q1 1 2 1
q2 -1 7 -1h7q9 2 13 6q2 2 3 2q0 1 1 1q0 1 1 1l2 2l2 2q2 2 5.5 4.5t5.5 5.5q1 1 2 1.5t2 2.5l9 9q0 1 1 2q4 8 7 11q12 13 18 30q2 4 3 7.5t1 8.5v1q0 2 1 3q0 2 0.5 5t0.5 6v4q-2 2 -2 4l-4 4q-2 2 -3 2.5t-2 2.5l-6 3q-2 2 -3.5 2.5t-3.5 1.5l-8 4q-3 0 -7 2l-5 2
q-2 0 -6 2q-3 0 -7 2q-3 -1 -9 -1h-9h-8.5t-8.5 1l-5 -25q-2 -10 -4 -19.5t-4 -19.5zM64 241q-2 -8 -3.5 -15.5t-3.5 -15.5l6 3h2l1 1q1 0 1.5 0.5t1.5 0.5q2 2 5 2l11 5h2l2 1h1l5 1q1 1 2 1t3 1l2 1l2 1q4 1 7 2.5t6 3.5l3 2q2 2 3 2q0 1 1 1l4 4q10 10 13 21l1 2v2
q0 1 0.5 1.5t0.5 1.5v8v9t-1 8v8l-1 1v2h-1v1q0 2 1 3q0 2 -3 4q-1 0 -2 1q-1 0 -1 0.5t-1 0.5v1l-2 -2v-1l-8 -4l-8 -5l-8 -7l-7 -8l-7 -8l-8 -10l-6 -9l-4 -6l-5 -7z" />
    <glyph glyph-name="c" unicode="c" horiz-adv-x="213" 
d="M18 53q0 1 -0.5 1.5t-0.5 1.5q-1 1 -1 2l-3 4v1q-1 1 -1 2l-1 2q-2 4 -2.5 8t-1.5 7q-1 2 -1 5l-1 4v9l-1 3v11q0 2 0.5 2t0.5 1q0 8 1 12l1 7q0 5 1 7q0 3 2 7v4l1 4q0 2 2 6q0 2 1 3q0 2 1 3l3 11q1 4 2 7t2 7l3 7l2 3q0 2 0.5 2.5t0.5 1.5l5 9l5 10l6 8l2 5l3 3
q5 9 11.5 17t13.5 16q1 3 4 4l3 4l8 7l3 3l4 4l4 2l2 2l2 1q0 1 1 1t3 1l1 1q1 0 2 1q1 0 3 2q5 2 11 4.5t12 4.5h2q1 2 5 4q2 1 4.5 0.5t4.5 -0.5q2 -1 4.5 0.5t7.5 3.5h5q0 1 1 1h4l6 -2q2 0 3 -1h1q1 0 1 -0.5t1 -0.5q10 -8 15 -17q0 -1 2 -3v-4q2 -2 2 -4t1 -4
q1 -1 1 -4q0 -2 0.5 -2.5t0.5 -1.5v-8q1 -3 0.5 -6.5t-0.5 -6.5q-4 -14 -12.5 -17t-15.5 0q-4 2 -5 7.5t-1 12.5q0 8 1 18q-1 13 -9.5 17t-14.5 2q-5 0 -7 -2l-10 -5l-8 -4l-5 -3l-9 -10q-9 -9 -14 -18q-4 -5 -7 -10.5t-5 -10.5l-11 -23q-6 -11 -10.5 -23t-8.5 -23l-1 -2
q0 -1 -0.5 -1t-0.5 -1v-5l-3 -9q0 -3 -2 -9l-1 -8q-2 -9 -2.5 -18t1.5 -17v-5l1 -4v-2l1 -2l1 -3q0 -2 1 -4v-2l1 -1l2 -7l3 -5l6 -17q4 -14 12 -24.5t22 -11.5q9 -1 17 5t14.5 15.5t12.5 20t11 18.5l5 8l6 7q8 8 13 7q6 -1 4 -9q0 -7 -2 -11q-1 -2 -1 -12q0 -9 -3 -18
l-10 -14q-5 -6 -9 -11t-9 -10q-6 -5 -12 -8l-12 -6q-2 0 -2.5 -0.5t-2.5 -0.5q-19 -5 -32.5 1t-15.5 7q0 1 -1 1q-3 2 -6.5 4t-7.5 4q-5 3 -9.5 7t-9.5 9q-2 3 -4 5l-4 5q-2 2 -4 6l-2 2l-1 3z" />
    <glyph glyph-name="d" unicode="d" horiz-adv-x="197" 
d="M2 61q1 1 1 2q2 2 3 2l2 3l2 6v1v13.5t1 11.5l5 36q2 17 5.5 33t7.5 33l9 39q3 14 5.5 22t6.5 21l2 8l8 20q1 3 3.5 7t5.5 3q3 0 3 -3v-2q2 0 3 -4.5t0 -8.5q-1 0 -1 -3l-2 -7l4 5l11 11l4 4l4 4l7 5l7 3l5 3q1 0 1.5 0.5t2.5 0.5l2 2q6 2 11 1q6 0 11 -3q3 0 5 -2l4 -2
l1 -1q1 0 1 -0.5t1 -0.5q1 -1 2 -1t3 -1l2 -2q1 0 1 -0.5t1 -0.5l1 -1l6 -4l9 -9q2 -2 2 -3l3 -4q0 -1 2 -3q0 -2 2 -4v-2q1 0 1 -2q2 -7 3 -13.5t2 -14.5l1 -10v-19q0 -7 -1 -10v-10q0 -1 -0.5 -2t-0.5 -2v-5l-1 -5v-5l-2 -9l-1 -6l-1 -5l-2 -12l-3 -11q-1 -2 -1.5 -5
t-2.5 -6l-4 -8t-4 -9q0 -1 -1 -3q-2 -4 -3 -4q0 -1 -0.5 -1.5t-0.5 -1.5v-4q0 -1 -0.5 -2t-0.5 -2v-2q-1 -1 -1 -2l-2 -8l-2 -3l-2 -3l-3 -7l-2 -3l-5 -10l-6 -9l-3 -5l-2 -2q0 -1 -0.5 -1.5t-0.5 -1.5l-16 -18q-8 -10 -19 -16q-14 -8 -25 -11l-9 -2h-9h-9.5t-9.5 2
q-8 3 -17 10l-4 3l-3 4l-3 4l-2 2l-1 2q0 1 -0.5 1.5t-0.5 1.5l-2 4q0 1 -0.5 1.5t-0.5 1.5q0 3 -1 4q0 5 -1 7v3q0 1 -0.5 1.5t-0.5 1.5v9zM22 60q0 -1 0.5 -1.5t0.5 -1.5v-3q0 -1 0.5 -1t0.5 -1v-1q0 -1 0.5 -1.5t0.5 -1.5l1 -2v-2q1 0 1 -1q0 -2 2 -2q0 -2 2 -2h1
q0 -1 1 -1h1q1 0 1 -0.5t1 -0.5h9q0 1 1 1h2q2 0 4 -0.5t4 0.5q5 0 8 1q7 1 13 7l3 2q0 1 1 1q1 1 1 2q2 0 2 2l2 2q3 2 6 4.5t6 6.5l3 4l4 5q2 1 2.5 2t1.5 2l2 2q0 2 1 2l3 6l4 6l6 7l1 1v1l2 2q0 2 2 4l5 8q0 2 2 4l1 5q2 2 2 4l2 4q0 2 0.5 2.5t0.5 2.5l2 4v2v1
q0 1 0.5 1t0.5 1l3 9l-2 6q1 2 1 5v6q1 2 1 6v2q1 1 1 3q1 5 1 9.5v8.5q0 6 -1 8v6q0 2 0.5 4t0.5 4t0.5 4t0.5 4v6q0 3 1 5v2q1 1 1 3q0 3 -1 4q0 4 -1 6q0 2 1 3v2q1 16 -5 29q0 1 -0.5 1.5t-0.5 2.5l-2 2q-1 2 -5 6l-2 2l-8 6l-2 2h-1v-1l-8 -4l-8 -5l-8 -7l-7 -8l-7 -8
l-8 -10l-6 -9l-4 -6l-5 -7l-7 -10l-10 -48q-2 -8 -3.5 -16.5t-3.5 -16.5q-2 -10 -4 -19.5t-4 -19.5q-3 -11 -5.5 -22.5t-4.5 -22.5q-1 -4 -1.5 -5t-0.5 -5v-6z" />
    <glyph glyph-name="e" unicode="e" horiz-adv-x="188" 
d="M187 323q0 -1 -2 -3l-3 -4h-1q0 -1 -1 -1v-1h-1l-2 1h-11q-5 2 -10 0h-13q-4 -1 -10 -1q-2 0 -3.5 -0.5t-3.5 -0.5h-6q-2 -1 -8 -1l-5 -1q0 -1 0.5 -2t0.5 -3q-1 -10 -2 -21t-3 -22l-10 -40q0 -2 -0.5 -3.5t-0.5 -3.5l23 3q3 0 6 0.5t7 0.5q1 0 3.5 -4t3.5 -14
q1 -11 -0.5 -15t-3.5 -5q-6 -3 -10 -3q-5 -1 -9 -2.5t-6 -3.5h-9q-4 0 -6 1q-1 0 -2 0.5t-3 -0.5q-2 -2 -4 0l-17 -74q-5 -19 -9 -37.5t-10 -37.5v-2q2 1 6 1q6 0 9 1h7q2 1 6 1h8q3 1 9 1q2 1 3.5 0.5t3.5 -0.5t3.5 -0.5t3.5 0.5h14q1 0 1 -5q2 -7 -1 -10l-2 -1
q-6 -2 -10 -2q-5 -1 -10 -1.5t-10 -0.5q-2 0 -5 -0.5t-5 -0.5t-5 -0.5t-5 -0.5q-8 0 -12 -1q-7 0 -11 -1q-4 0 -6 -1h-9q-3 0 -6 -0.5t-6 -0.5h-1q-3 1 -4 3.5t-2 3.5q-2 2 -2 4t-1 4q0 2 2.5 3.5t3.5 1.5h8q2 9 -1 21.5t-2 22.5l3 20q1 5 1.5 10t2.5 10q4 17 5.5 32.5
t3.5 24.5q3 15 7 26q-2 2 -2 5q-1 7 5 9l4 11q4 9 5 17q1 10 6 21q5 14 9.5 29t9.5 30q-1 0 -1.5 -0.5t-2.5 -0.5q0 1 -0.5 2t-0.5 3q-2 8 0 10l2 2q6 2 10 2q5 1 10.5 2t10.5 1q3 0 5.5 0.5t5.5 0.5q3 1 10 1q3 1 6.5 1h6.5q3 1 11 1q2 0 3.5 0.5t3.5 0.5h9q2 0 3.5 -0.5
t3.5 -0.5q5 0 7 -1h2q4 -1 4 -6v-5v0z" />
    <glyph glyph-name="f" unicode="f" horiz-adv-x="178" 
d="M178 326v-3q0 -1 -2 -3l-5 -14h-2q0 -1 -1 -1v-1q-1 0 -1.5 0.5t-1.5 0.5h-11q-5 1 -9 0h-14q-3 -1 -10 -1q-2 0 -3 -0.5t-3 -0.5h-6q-3 -1 -8 -1l-6 -1q1 -1 1 -5q-1 -10 -1.5 -21.5t-2.5 -22.5l-4 -14l21 3q4 0 7 0.5t7 0.5q2 0 4.5 -4t3.5 -14q0 -5 0.5 -5.5t0 1
t-1.5 3.5t-2 2q-3 -2 -11 -4q-5 -1 -9 -2.5t-7 -2.5q-2 -1 -4.5 -0.5t-4.5 0.5q-3 -2 -6 0h-5h-1q-7 -26 -12.5 -58t-11.5 -58q-5 -19 -9 -37.5t-10 -37.5q-2 -5 -3.5 -9.5t-3.5 -9.5q-2 -6 -13 -3q-6 2 -7 5t-1 5q2 6 2 8q2 9 -1 21.5t-2 22.5l3 20q2 5 2.5 10t1.5 10
q4 17 6 32.5t3 24.5l9 30q1 5 2 10.5t3 10.5q1 0 1 1q-9 3 -10 10q-1 8 5 8.5t9 0.5l1 1q1 8 5 17q6 14 10.5 29t9.5 30q-1 0 -2 -0.5t-2 -0.5h-1q0 2 -1 5q-2 8 0 10l3 2q6 2 10 2q5 1 10.5 2t10.5 1q2 0 5 0.5t5 0.5q4 1 11 1q4 1 12 1q4 1 11 1q2 0 3.5 0.5t3.5 0.5h10
q2 0 3.5 -0.5t3.5 -0.5q4 0 7 -1h2q2 -1 4 -6v-2v0z" />
    <glyph glyph-name="g" unicode="g" horiz-adv-x="203" 
d="M201 205q2 0 0 -2l-1 -2l-2 -4q-1 0 -1 -1l-1 -1l-1 -1q0 1 -2 1h-16l2 -1q1 -1 3 -2q4 -4 4 -7v-16.5t-1 -16.5l-7 -33l-2 -12t-3 -12l-4 -24l-9 -49q-2 -8 -2 -10t-0.5 -3.5t-1.5 -4t-3 -9.5q-1 -5 -2 -8t-3 -7q-2 -5 -13 -2q-6 2 -13.5 3t-7.5 3t0.5 3.5t0.5 2.5
q1 4 1 3.5v-1t-0.5 -1t-0.5 3.5l2 14q-5 -3 -11 -4q-16 -5 -28 1t-14 8v1l-1 -1q-14 7 -23 17l-3 3l-1 2l-5 4l-7 11l-6 10l-3 5q0 2 -2 6q-2 5 -3.5 9.5t-3.5 9.5q0 2 -2 8q0 2 -0.5 3t-0.5 3q-2 11 -1.5 21.5t2.5 21.5q0 3 0.5 6.5t0.5 7.5l3 13q2 4 2 6l2 5q2 8 2 11
q2 10 4 14q1 5 5 13q4 9 5 9.5t6 9.5q5 8 10 17t11 17l1 2l2 2l3 4l6 7q4 4 7 7.5t7 6.5q0 1 1 1l2 1l6 5q5 3 10 6.5t12 5.5q1 0 2 0.5t3 0.5v1q1 2 5 4h7q4 0 5 -1h2q1 0 1.5 0.5t1.5 0.5q3 0 4 1h11q1 0 2 -0.5t3 -0.5q1 0 1.5 -0.5t1.5 -0.5t1.5 -0.5t1.5 -0.5l5 -3
q3 -5 5.5 -9.5t4.5 -9.5q1 -2 1 -4q1 -1 1 -4l2 -8v-7q0 -1 0.5 -1.5t0.5 -1.5v-5q0 -1 -0.5 -1.5t-0.5 -1.5v-2q-4 -13 -13 -19.5t-17 -0.5q-3 2 -4 8t-1 13q0 8 1 18q-1 14 -8.5 18t-12.5 2q-2 -1 -3.5 -1t-2.5 -1l-2 -1l-8 -6l-4 -3q-1 0 -3 -2l-1 -1l-3 -3l-4 -4t-4 -6
q-5 -6 -10 -18q-1 -1 -1 -3l-2 -2q0 -2 -2 -6l-4 -11l-3 -7q-9 -23 -15 -46l-2 -8l-2 -9l-1 -9l-2 -8q-1 -9 -1.5 -17.5t0.5 -16.5q0 -4 0.5 -7t0.5 -6q2 -9 3.5 -22t5.5 -24q3 -14 10 -25t19 -12q11 -2 19.5 10t16.5 28v9l6 23l2 9l2 8q2 5 4 13q0 7 4 17q5 11 8 23t7 24
q0 2 0.5 2.5t0.5 2.5h-2q-2 0 -3 -0.5t-3 -0.5h-11l-8 -1h-7q-1 0 -2.5 0.5t-2.5 -0.5h-13v1q0 1 -0.5 1t-0.5 2q0 9 1 11l2 1q4 2 8 2q5 1 9 1.5t9 0.5q2 0 4.5 0.5t4.5 0.5t4 0.5t4 0.5h11l9 1h25q1 0 2 -1q3 0 3 -4v-5v0z" />
    <glyph glyph-name="h" unicode="h" horiz-adv-x="184" 
d="M188 239q2 -1 6 -2t4 -4l-1 -1q-1 0 -1 -0.5t-1 -0.5q-3 0 -5 -3.5t-8 -4.5q-2 -1 -8 -1q-2 -6 -2 -9q-2 -6 -3 -12l-2 -12l-5 -17q0 -3 -1 -6t-2 -7l-4 -19l-3 -11l-3 -12l-13 -50q-4 -10 -4 -15l-4 -10q0 -3 -1.5 -10t-3.5 -14q-2 -5 -5 -12t-6 -5q-1 0 -1 1v5
q0 3 -2.5 7t-2.5 13q1 5 1.5 11t2.5 13l21 83q1 12 6 24q2 7 2.5 12.5t2.5 11.5l7 30l3 9h-76l-23 -119q-4 -20 -7.5 -38.5t-8.5 -37.5l-6 -19l-1 -1v-1l-3 -2q-2 -1 -9 -1q-8 2 -9 4q-3 2 -1 4q0 3 0.5 5t0.5 4q1 9 -3 21t-4 22l5 40q2 17 3.5 33.5t2.5 25.5q5 15 8 30
q1 10 6 21l3 9h-15q-4 1 -5.5 3.5t-3.5 4.5q-2 1 -2 8q1 2 4.5 3t5.5 1h19l3 11q6 15 11 30t9 30l4 13q0 1 4 2.5t17 -6.5q2 0 4 -2q3 -4 5 -8q-1 -10 -1.5 -21t-2.5 -21l-6 -28h76q0 7 3 13l5 22l8 28v3q2 7 6 8t6 4q2 2 5 2.5t5 0.5q2 -1 2 -7t-2 -8l-1 -8l-8 -30l-5 -23
q0 -2 -0.5 -3.5t-0.5 -3.5h9v0z" />
    <glyph glyph-name="i" unicode="i" horiz-adv-x="132" 
d="M125 329l4 -2t1 -4l-2 -2q-1 0 -2 -3.5t-4 -4.5q-2 -1 -7 -1q-4 0 -7.5 -0.5t-7.5 -0.5h-2q-1 -10 -1 -21t-2 -22l-7 -42l-20 -126q-3 -20 -6 -39l-6 -38l-3 -12h13q3 -2 5 -1h2q2 0 4 -0.5t4 -0.5q2 -1 3.5 -2t1.5 -4v-1l-2 -1q-1 0 -2 -3.5t-4 -4.5q-2 -1 -7 -1
q-4 0 -8 -0.5t-7 -0.5h-31q-1 0 -2 -0.5t-3 -0.5q-4 0 -6 1h-10q-2 0 -1.5 3t-0.5 5q-1 1 -1 8q0 4 4 4h25v5q2 9 -2 21t-4 23q0 10 1 20.5t3 19.5q2 17 3 33.5t2 25.5q2 8 3.5 15.5t3.5 15.5l3 21q5 10 5 18q0 6 1 11.5t3 10.5q5 15 8.5 30t7.5 30q-1 0 -1.5 -0.5
t-1.5 -0.5q-4 0 -7 1h-9q-2 1 -2.5 3.5t-1.5 4.5q-2 2 0 8q0 4 4 4h62q2 -3 4 -1h3q1 0 3 -0.5t4 -0.5z" />
    <glyph glyph-name="j" unicode="j" horiz-adv-x="209" 
d="M196 329l4 -2t1 -4l-1 -2q-2 0 -2.5 -3.5t-3.5 -4.5q-2 -1 -7 -1q-4 0 -7.5 -0.5t-7.5 -0.5h-2q1 -7 1 -13.5v-13.5q-2 -8 -3 -15t-2 -15q-4 -23 -6.5 -45t-5.5 -45l-4 -27l-4 -27q0 -1 -0.5 -1.5t-0.5 -1.5l-1 -4l-1 -3v-3q-1 0 -1 -1l-1 -1q-1 -2 -1 -7l-3 -17l-6 -17
q-2 -5 -4 -11t-5 -11q-7 -13 -19 -23q-4 -2 -7.5 -4.5t-8.5 -4.5t-9 -3t-9 -2h-5q-3 -1 -7 -1.5t-9 0.5l-9 3q-3 1 -9 5l-7 6q-2 2 -3 4l-2 4q-5 7 -6 15q-3 9 -3 16q-1 5 -1.5 9.5t-0.5 9.5q0 10 1 15v11q0 3 0.5 6t1.5 7q0 4 1 8t2 9v2q2 4 5 4t4 2q2 2 4.5 1.5t4.5 -0.5
q2 -1 2 -4v-5t-0.5 -2.5t-0.5 -2.5l-3 -17q0 -3 -0.5 -6.5t-0.5 -6.5q0 -2 -0.5 -3t-0.5 -3v-13v-6.5t1 -6.5q0 -2 0.5 -4.5t0.5 -4.5t0.5 -3.5t0.5 -3.5l3 -10l6 -8q0 -1 1 -1v-1h1v-1q1 0 1 -1h1v-1h1l1 -1q1 0 1 -1h1q0 -1 1 -1t1 -0.5t1 -0.5h5q14 0 24.5 18t18.5 40
q9 26 15 59v1l-2 7q0 7 0.5 14.5t1.5 14.5q2 13 2 24.5v17.5l4 22l3 16q3 6 3 12q0 8 3 16q4 9 6.5 18t4.5 19q-1 -1 -2 -1q-5 0 -7 1h-9q-2 1 -2.5 3.5t-1.5 4.5q-1 1 -1 8q0 4 4 4h62q2 -3 4 -1h3q1 0 3 -0.5t4 -0.5z" />
    <glyph glyph-name="k" unicode="k" horiz-adv-x="152" 
d="M144 328q0 -1 -0.5 -1.5t-0.5 -1.5q-1 -2 0 -5.5t-1 -8.5l-8 -11q-5 -5 -9 -10.5t-9 -10.5l-9 -11l-9 -10l-11 -13l-9 -11l-6 -7l-6 -7q0 -2 -0.5 -3t-0.5 -3l4 -16l3 -10l3 -10l3 -10l6 -22l2 -8l3 -7l3 -13l6 -17l3 -10l3 -10q2 -5 2.5 -8.5t2.5 -8.5q2 -3 2 -7t2 -7
l3 -9l7 -22q2 -5 2.5 -11.5t-1.5 -6.5q0 -1 -1 0q-1 0 -3 4q-2 3 -6 5t-8 10v-1l-9 22l-16 46l-7 22q-2 5 -3.5 11t-3.5 12l-7 27q-1 0 -1 2q-2 -16 -3.5 -31t-3.5 -30q-2 -20 -4.5 -39t-6.5 -38l-3 -19l-1 -1q0 -1 -1 -1l-2 -2q-2 -1 -8 -1q-7 1 -8 4q-2 1 -2 4v9
q1 9 -3 21t-5 23q0 22 3 40q2 17 2.5 33.5t0.5 25.5q1 8 2 15.5t3 15.5q1 5 1.5 10.5t2.5 10.5q1 5 2 9t1 9q0 6 1 11.5t3 10.5q4 15 7.5 30.5t6.5 30.5l2 13q1 1 4.5 2.5t15.5 -6.5q1 0 3 -2q4 -4 4 -8q2 -21 0 -43l-2 -11q6 6 8 10q2 2 6 7l3 3l3 3l7 8l8 9l7 8q2 2 3.5 3
t2.5 3q1 1 2 1.5t2 2.5t4 4.5t6 5.5q2 2 5.5 4t5.5 0v-1z" />
    <glyph glyph-name="l" unicode="l" horiz-adv-x="144" 
d="M124 18q2 -1 5.5 -2t1.5 -4l-1 -1q0 -1 -1 -1q-2 -1 -3.5 -4t-5.5 -4q-6 -2 -11 -2h-33q-3 0 -6 -0.5t-5 0.5h-14q-2 0 -5 -0.5t-6 -0.5h-31q-3 1 -3.5 4t-2.5 4q-3 2 -1 8q0 2 2.5 3t3.5 1h14q0 9 -3 20.5t-3 20.5q1 10 2 20.5t3 20.5q3 17 4.5 33.5t2.5 25.5l7 31l6 21
q2 5 2.5 9t2.5 9q0 5 1 11t3 11q12 30 18 61q2 3 2.5 6t2.5 6q0 2 3.5 3t15.5 -7q1 0 3 -2q3 -3 3 -8q0 -22 -3 -44l-10 -42q-6 -32 -11.5 -63t-11.5 -62q-4 -20 -7 -39t-8 -38q0 -3 -1 -4h5q2 0 5 0.5t5 0.5q2 -1 4 -0.5t4 0.5h25q4 0 8 -1q2 0 3.5 -0.5t3.5 -0.5h15v0z
" />
    <glyph glyph-name="m" unicode="m" horiz-adv-x="227" 
d="M212 330q8 -2 8 -8v-7q-2 -8 -2 -13l-3 -16q-2 -8 -3.5 -15.5t-3.5 -15.5l-6 -31q-2 -8 -3 -15t-2 -15l-6 -30q-2 -9 -3.5 -18.5t-3.5 -18.5l-6 -30q-1 -5 -1.5 -10.5t-2.5 -10.5l-5 -26l-6 -36q-1 -2 -1 -4q-2 -5 -3.5 -7t-3.5 -4q-2 -1 -7 -1.5t-7 -1.5q-1 4 -0.5 8
t0.5 6l2 10q2 9 3.5 18.5t3.5 18.5l6 29q1 4 1.5 7t0.5 6q2 7 3 13.5t2 13.5l6 30l3 20q2 7 4 17l3 13l-8 -22q-2 -7 -5.5 -13t-6.5 -13q-2 -5 -4 -9t-4 -9q-2 -4 -3.5 -7.5t-3.5 -7.5q-3 -10 -9 -19q-7 -13 -13.5 -25.5t-12.5 -25.5q-2 -3 -3 -5.5t-2 -5.5h-1v-1
q0 -6 -11 -6q-6 0 -8 2t-2 3q-1 4 -1 8l-3 9l-4 10l-3 5q0 1 -2 5l-3 9q0 2 -0.5 4.5t-0.5 4.5t-0.5 4.5t-0.5 5.5q0 5 -0.5 9t-0.5 9q0 8 -0.5 15.5t-0.5 14.5q-1 5 -1 13q-1 4 -1 10v3q-2 -8 -2 -10q-2 -5 -2 -9.5t-2 -9.5q-2 -10 -4 -17l-4 -23l-6 -27l-5 -22l-5 -17
q0 -5 -2 -11l-7 -30v-2q-1 0 -2 -0.5t-3 0.5q-9 2 -9 6v7l2 14t3 15l12 60l6 29l6 30q2 9 3.5 18t3.5 17l6 30q2 8 4 20l5 25q2 9 3.5 18t3.5 17q1 2 1 4q2 8 5.5 9.5t5.5 4.5v3q1 0 1.5 1t2.5 1q6 0 16 -5l4 -2q2 -1 4 -6q1 -9 2 -19t1 -20l-2 -38q-2 -28 -2 -56v-57v-19
l11 25l45 108q7 17 14 33t15 33l9 16q3 6 9 3v1q2 2 5 1z" />
    <glyph glyph-name="n" unicode="n" horiz-adv-x="210" 
d="M194 330q8 -2 9 -8q0 -2 -0.5 -3.5t-0.5 -3.5l-2 -13l-3 -16l-6 -31l-6 -31l-12 -60l-7 -37l-6 -30l-3 -21l-5 -26q-2 -8 -2 -10v-14q1 -4 1 -10v-8q-1 0 -2 -3t-9 -5l-1 1l-1 -1l-4 -2l-1 -1q-3 -1 -8 -1h-6t-5 2q-2 6 -5 11t-5 10q-2 8 -4 12l-3 11q-1 3 -1 6t-2 6v3
q0 4 -1 6q-3 3 -1 6q1 2 0.5 2.5t-0.5 2.5l-3 16q-1 5 -1.5 10.5t-2.5 10.5l-3 19l-2 10q-2 5 1 7q1 1 1 4q-2 4 -2.5 8t-1.5 8q0 6 -2 16q0 4 -3 7q-1 -2 0.5 -4.5t-0.5 -4.5q-2 6 -2 9v1q3 2 3 3.5v3.5l-2 8q-1 1 -1 4v8t-1 8l-6 -26l-6 -29l-3 -19q-2 -7 -4 -17l-5 -23
l-5 -27l-5 -22q-3 -8 -5 -17q-2 -8 -2 -11q-2 -5 -3.5 -13t-3.5 -17q-1 -1 -1 -2h-1h-4q-8 2 -9 6q0 5 1 7l4 29l12 60l6 29l6 30l8 35l6 30q2 12 4 20l5 25v4l-1 17v12t2 12q2 2 2 5q1 1 4.5 3.5t14.5 2.5q2 1 5 1l1 -1q11 -1 17.5 -1.5t8.5 -5.5q2 -14 4.5 -27.5
t4.5 -27.5q0 -8 1 -16l2 -16q1 -4 1.5 -7.5t0.5 -8.5l5 -43l6 -33l3 -24l2 -9l3 15q1 8 2 15t3 15q2 5 2 10t2 10l3 17l5 24l5 27l5 23q4 11 5 19l3 11q0 4 3 13l2 9q1 1 1 4l2 5v1q2 2 5 1z" />
    <glyph glyph-name="o" unicode="o" horiz-adv-x="195" 
d="M185 254q1 -5 1 -8.5v-7.5q1 -9 1 -17.5v-16.5l-3 -36q-2 -6 -2 -12t-2 -12l-4 -21q-3 -12 -8 -28q-1 -7 -5 -16l-6 -16l-3 -7.5t-3 -5.5l-7 -13q-4 -6 -7 -9l-8 -10q-3 -4 -11 -10q-2 -2 -3 -2q0 -1 -0.5 -1t-0.5 -1q-2 0 -2 -1q-2 -1 -4.5 -2t-5.5 -2q-8 -2 -13 -2
q-8 0 -14 3h-1l-1 1h-2q-10 3 -17 10q-4 3 -6 5.5t-4 4.5q-1 4 -6 7l-4 4l-4 4q-9 9 -12 17q-6 19 -8 38q-1 8 -1.5 15.5t-0.5 15.5v13q-1 4 -1 10l2 14l3 14l2 10l3 9q0 2 0.5 2.5t0.5 1.5l2 4q0 2 2 8q0 4 2 10l4 10q2 2 4 6l3 6l4 7q0 1 2 3l2 3q3 6 7 12l8 12
q5 6 9.5 11t9.5 10l6 6q6 4 15 9l8 4t8 2q0 1 1 1q2 0 3 1h3q4 1 14 1q6 0 14 -3q8 -4 12 -7l2 -3l3 -2q0 -1 1 -1l1 -2l2 -2l2 -3q0 -1 0.5 -1.5t0.5 -1.5l2 -3q0 -1 0.5 -1.5t0.5 -1.5l2 -4l2 -5v-2l1 -3l1 -4l1 -5q0 -1 0.5 -2t0.5 -2q0 -2 0.5 -4.5t0.5 -4.5zM166 200
q1 8 1 17v18q-1 4 -1 12q-1 2 -1 6q0 2 -0.5 3t-0.5 3q-2 7 -3.5 14t-4.5 12l-4 8q-4 4 -6 5q-5 4 -15 4h-10l-4 2h-1l-3 -2l-17 -16q-5 -5 -11 -22l-1 -2l-1 -2q0 -1 -0.5 -1.5t-0.5 -2.5l-3 -8l-2 -4q0 -2 -0.5 -2.5t-0.5 -2.5q0 -1 -0.5 -1.5t-0.5 -2.5q-1 -1 -1 -2
t-0.5 -1t-0.5 -1l-12 -32q-6 -24 -9 -50l-2 -27v-25q1 -8 1.5 -15t2.5 -15t3.5 -14.5t3.5 -12.5q2 -3 4 -9l6 -7h1v-1q1 0 1 -1q1 0 2 -1l1 -1l1 -1q1 -1 1 -3q0 -1 2 -3h10q0 1 1 1h3l6 3q4 2 6 4l7 6q5 5 9.5 12.5t9.5 15.5q4 8 7.5 16.5t5.5 16.5q3 8 5.5 16.5t4.5 17.5
q2 8 3.5 17t3.5 18q2 11 3 21.5t1 21.5z" />
    <glyph glyph-name="p" unicode="p" horiz-adv-x="206" 
d="M194 311q4 -11 6 -21v-11.5t-1 -10.5t-1.5 -10t-2.5 -10q-2 -8 -4 -14t-5 -13q-3 -5 -6 -10.5t-7 -10.5q-5 -8 -10 -13l-11 -12q-13 -14 -29 -26l-13 -8l-14 -8l-17 -7q-3 -8 -5.5 -17t-4.5 -17q-5 -20 -10.5 -39.5t-11.5 -39.5l-7 -19v-1l-1 -1t-3 -1q-3 -2 -8 0
q-7 2 -8 4t-1 5q2 8 2 9q1 3 1 11q-1 4 -1 12q-1 6 -1.5 12.5t0.5 11.5q2 10 4 21t5 21l4 18h-8q-1 0 -7 2l-8 4l-2 2l-1 1v2q0 2 2 3q4 2 6 2q1 1 2 1h3q2 0 3.5 -0.5t3.5 -0.5q6 0 10 1q2 8 2.5 14.5t2.5 11.5q2 8 4.5 15.5t5.5 15.5q3 14 7 22q2 5 3.5 9t2.5 9
q2 6 3.5 11.5t4.5 10.5q5 12 9.5 24.5t9.5 24.5l-17 -7q-4 -2 -5 -2q-5 -2 -8 -2.5t-5 -0.5t-4 0.5t-4 -0.5q-8 -1 -11 4q0 2 8 7q3 3 6 5t5 3l12 5l32 13q3 3 7 2l9 3l10 2t10 1q10 1 22 0q5 0 10 -2l10 -4l9 -8q2 -2 3.5 -4.5t2.5 -4.5zM180 283q0 8 -3 16q0 2 -1 3.5
t-2 3.5l-5 4q-6 5 -20 5q-13 0 -23 -3v-4q-2 -11 -3.5 -22t-4.5 -22l-13 -43l-10 -36l-10 -36l11 6q9 5 16.5 11t15.5 12l13.5 13.5t11.5 14.5q11 14 18 33q4 8 7 22q0 2 0.5 5t0.5 6q1 2 1 5v6z" />
    <glyph glyph-name="q" unicode="q" horiz-adv-x="194" 
d="M186 242v-34l-3 -36q-1 -6 -1.5 -12t-2.5 -12l-4 -21l-7 -28l-6 -16q-1 -8 -6 -16l-3 -7.5t-3 -5.5l-7 -13q-4 -6 -7 -9l-3 -5l4 -2l7 -4h3l2 -1q1 0 2 -0.5t3 -0.5h6q1 0 2 -4q2 -4 2 -6q0 -4 -1 -4l-2 -2h-3q-9 -2 -17 1q-11 3 -22 9q-1 -1 -2 -1q0 -2 -2 -2l-2 -2
q-1 0 -2 -1q-2 -1 -4.5 -2t-5.5 -2q-8 -2 -13 -2q-7 0 -13 3h-1q-1 0 -1 0.5t-1 0.5h-2q-10 3 -17 10q-7 5 -9 10q-3 4 -7 7l-7 8q-9 8 -13 17q-6 19 -8 38l-2 31v23q0 3 0.5 6.5t0.5 7.5l3 14q2 6 2 10l3 9q0 2 0.5 2.5t0.5 1.5l2 4l2 8q0 4 2 10l5 10l3 6q2 4 4 6l3 7l2 3
l2 3q4 6 7.5 12t8.5 12q4 6 8.5 11t9.5 10l2 2q1 1 2 1.5t2 2.5q6 4 15 9q5 2 8.5 4t7.5 2l1 1q3 0 4 1h2q4 1 14 1q6 0 14 -3q8 -4 12 -7l5 -5q0 -1 1 -1l1 -2l2 -2l2 -3l2 -3l1 -3q1 -1 1 -3l2 -4l2 -5q0 -1 1 -2v-3l1 -4l1 -5q1 -1 1 -4q0 -2 0.5 -4.5t0.5 -4.5zM166 239
q-1 4 -1 12q0 2 -0.5 3t-0.5 3t-0.5 3t-0.5 3q-2 15 -8 26l-4 8q-4 4 -6 5q-5 4 -15 4h-9q-2 1 -3 1t-2 1h-1l-3 -2q-5 -5 -9.5 -9t-6.5 -7q-6 -6 -12 -22l-1 -2v-2l-2 -4l-3 -8q0 -2 -0.5 -2.5t-0.5 -1.5l-2 -5q0 -1 -0.5 -1.5t-0.5 -2.5q-1 -1 -1 -2t-1 -2l-6 -16t-5 -16
q-4 -12 -6 -24.5t-4 -25.5l-2 -27v-12t1 -13q0 -8 1 -12l4 -4l11 -10l5 -4l10 -8l11 -9l8 -6l7 -5l9 -6h1q7 9 14 22q4 8 7.5 16.5t6.5 16.5q2 8 4.5 16.5t4.5 17.5q2 8 3.5 17t3.5 18q2 11 3 21.5t2 21.5v35zM99 21q1 0 1.5 0.5t1.5 0.5l-4 3l-13 9l-15 12l-12 9l-2 2
l5 -13q2 -6 4 -9q1 -4 6 -7l1 -1l2 -2l1 -1q1 0 1 -1q1 -1 1 -3t3 -3h9q0 1 1 1h3z" />
    <glyph glyph-name="r" unicode="r" horiz-adv-x="207" 
d="M194 311q3 -5 4 -10.5t2 -10.5v-11.5t-1 -10.5t-1.5 -10t-2.5 -10q-2 -8 -4 -14t-5 -13q-3 -5 -6 -10.5t-7 -10.5q-5 -8 -10 -13l-11 -12q-6 -8 -13 -14t-15 -12l-14 -8l-14 -8l-8 -3l2 -3l6 -20l21 -58q7 -18 12 -36q0 -3 0.5 -5.5t0.5 -4.5q0 -5 -7 -6q-5 -1 -6.5 -0.5
t-2.5 1.5q0 2 -0.5 2.5t-0.5 1.5q-2 5 -7.5 8.5t-8.5 8.5l-8 18q-3 8 -6.5 14.5t-5.5 11.5q-2 4 -4 14l-3 11q0 2 -1 4q-5 -20 -10.5 -39.5t-11.5 -39.5q-2 -5 -3.5 -9.5t-2.5 -9.5q-1 0 -1 -1v-1h-1q-1 -1 -3 -1q-3 -1 -8 0q-6 1 -7 4q-2 2 -2 5q2 8 2 9q1 3 1 11
q0 3 -0.5 6t-0.5 6q-1 6 -1.5 12.5t0.5 11.5q2 10 4.5 21t4.5 21l4 18h-7q-2 0 -8 2l-8 4l-3 3v2q0 1 2 3q4 2 6 2q1 1 2 1h3q2 0 3.5 -0.5t3.5 -0.5q6 0 10 1l5 26q2 8 4.5 15.5t5.5 15.5q3 14 7 22q4 9 6 18q2 6 4 11.5t4 10.5q5 12 9.5 24.5t9.5 24.5l-17 -7q-4 -2 -5 -2
q-5 -2 -8 -2.5t-5 -0.5t-4 0.5t-4 -0.5q-8 -1 -11 4q0 2 8 7q3 3 6 5t5 3l13 5q13 6 31 13h1q0 3 6 2l9 3q5 1 10.5 2t10.5 1q10 2 21 0q5 0 10 -2l10 -4l9 -8q4 -5 6 -9zM180 283q0 5 -0.5 8.5t-1.5 7.5q-2 4 -4 7l-5 4q-6 5 -20 5q-11 0 -23 -3v-4q-2 -11 -3.5 -22
t-4.5 -22l-13 -43l-10 -36l-10 -36l11 6q18 10 32 23l13.5 13.5t11.5 14.5q11 14 18 33q4 8 7 22l2 11v11z" />
    <glyph glyph-name="s" unicode="s" horiz-adv-x="167" 
d="M159 301q1 -3 1 -8q0 -1 -0.5 -1.5t-0.5 -1.5v-6q0 -3 -1 -5v-5q-1 -2 -2.5 -4.5t-4.5 -1.5l-2 2q0 2 -3 3t-4 5q-1 2 -1 8q0 7 -2 15l-3 6l-1 1q0 1 -1 1q-1 1 -7 1h-8q-1 0 -2 -1q-4 -2 -5 -4q-3 -2 -6 -6t-7 -14q-3 -6 -3 -14l-2 -14q-1 -5 -1.5 -10.5t-0.5 -11.5v-6
l1 -6q0 -6 2 -14q2 -11 4 -20.5t4 -20.5q2 -10 4.5 -20.5t4.5 -21.5q2 -7 3 -14t1 -15q2 -16 -1 -32l-1 -15q-2 -4 -3.5 -11t-3.5 -12q-1 -4 -3.5 -7t-4.5 -7l-4 -5l-2 -1l-10 -5q-4 -3 -3 -2t-4 0q-4 -2 -6 -2h-5l-3 -1h-3l-2 1h-3q-8 0 -15 3l-3 2q-1 0 -3 2l-5 4
q-6 5 -11 13q-2 5 -4 9t-3 9q-1 2 -1 4q-1 1 -1 4q0 4 -1 7q0 3 0.5 6.5t0.5 5.5v8q0 5 1 8q0 4 1 6v3q1 1 1 3l1 1l2 2q1 0 1.5 -0.5t1.5 -0.5l5 -4q1 0 1 -1q1 0 1 -1h1v-2q1 0 1 -1v-18q0 -8 1.5 -17t4.5 -16q3 -8 7 -12q6 -5 12 -6q7 -3 15 -1h1q15 3 15.5 18.5
t-5.5 32.5t-13.5 31l-7.5 14q-3 10 -7 18.5t-6 13.5t-2 10.5t-1 10.5q-2 10 -1 15q0 4 0.5 7t-1.5 6q-3 6 -1 16v3q0 1 0.5 1.5t0.5 1.5q0 4 1 6q0 3 0.5 6t0.5 7l1 3v3l2 6q1 3 1 6t2 6q2 6 4.5 11.5t4.5 11.5q8 11 22.5 23.5t37.5 20.5q6 2 9 2q2 0 3 0.5t3 0.5t3.5 -0.5
t3.5 -0.5q6 -2 9 -4q2 -1 3 -2.5t3 -3.5t2.5 -4t2.5 -4q2 -8 2 -10z" />
    <glyph glyph-name="t" unicode="t" horiz-adv-x="146" 
d="M131 330q2 -1 5.5 -2t2.5 -4v-1l-2 -1q-2 0 -3 -3.5t-6 -4.5q-3 -1 -11 -1q-5 0 -11 -0.5t-11 -0.5h-14v-1v-22t-2 -22l-7 -42l-20 -125q-5 -40 -12 -77q-2 -5 -3 -9.5t-2 -9.5v-2q-1 0 -1 -1q-1 -1 -3 -1q-2 -1 -8 -1q-7 2 -8 4t-1 4v9q1 9 -2.5 21.5t-3.5 22.5t1 20.5
t3 20.5q2 17 3 33.5t2 25.5q1 8 2.5 15.5t3.5 15.5q1 5 1.5 10.5t2.5 10.5t3 9t1 9q1 9 5 22q5 15 8.5 30t7.5 30h-4q-2 0 -3.5 -0.5t-3.5 -0.5h-10q-3 0 -6 0.5t-7 -0.5h-1q-3 1 -3.5 4t-2.5 4q-2 2 -2 9q0 2 2.5 2.5t4.5 1.5q2 0 3 -1q4 0 7 0.5t7 0.5h10q2 0 2.5 -0.5
t2.5 0.5h61q4 -2 7 -1h4q2 0 5 -0.5t6 -0.5z" />
    <glyph glyph-name="u" unicode="u" horiz-adv-x="179" 
d="M167 320q2 -1 4 -5q2 -16 0 -31q-1 -8 -2 -15t-3 -15l-12 -90l-3 -27l-4 -27q-1 -1 -1 -3l-1 -4l-1 -3q0 -2 -1 -3v-1l-1 -1h-1v-7q-2 -10 -4 -17q-1 -5 -2 -8.5t-3 -8.5t-4 -11t-5 -11q-7 -13 -19 -23q-4 -2 -7.5 -4.5t-8.5 -4.5t-9 -3t-9 -2h-5q-3 -1 -7 -1.5t-9 0.5
l-9 3q-3 1 -9 5l-7 6q-2 2 -3 4l-2 4q-2 4 -3.5 7.5t-3.5 7.5l-3 16q0 5 -0.5 9.5t-0.5 9.5v15q0 3 0.5 5.5t0.5 5.5t0.5 6t0.5 7l2 8q0 8 1 13l3 21q1 5 1.5 10.5t2.5 10.5l3 20l2 11l2 10l5 24l4 21l2 14l4 17l5 25l1 2q2 5 5 6t5 3q1 2 8 2q2 -1 2 -6v-7l-2 -6
q-1 -7 -2 -13t-3 -12l-4 -20q0 -2 -2 -8l-3 -18l-4 -20l-2 -13l-3 -12q0 -4 -1 -8t-1 -8l-4 -18q-1 -5 -1 -8t-2 -8q0 -1 -2 -7q-3 -17 -4 -33q-2 -14 -1.5 -29t3.5 -26q0 -2 0.5 -2.5t0.5 -1.5l3 -10q2 -2 3 -4t3 -4v-1q1 0 1 -1h1v-1l1 -1q1 0 1 -1h1q0 -1 1 -1l1 -1
q1 -1 2 -1l1 -1h6q14 0 24.5 18t18.5 40q9 26 15 59v1q-2 4 -2 7q0 7 0.5 14.5t1.5 14.5q2 13 1.5 24.5t0.5 17.5q0 6 1 11.5t3 10.5q1 4 1 8t2 8l2 6t1 6q0 8 3 16q4 11 7 21.5t6 21.5q0 3 2 9q1 1 4.5 1.5t14.5 -5.5z" />
    <glyph glyph-name="v" unicode="v" horiz-adv-x="154" 
d="M145 318q2 -1 1 -8.5t-2 -10.5q-1 -2 -1.5 -5t-2.5 -5q-2 -10 -5 -19t-6 -19l-9 -29l-4 -13l-8 -27l-9 -31l-6 -20l-6 -17l-7 -24l-8 -28l-8 -23l-7 -19l-3 -11v-2h-1q-2 -1 -3 -3q-4 -4 -5 -4q-5 0 -11 2q-2 0 -2.5 0.5t-2.5 0.5q-3 1 -5 3t-3 4l-1 2q-2 4 -1.5 8t0.5 8
q0 2 -1 3q-1 0 -1 1.5t-1 2.5q1 -18 0 -22q0 -3 -2 -1v9q-3 -1 -2.5 0.5t0.5 2.5q0 2 -0.5 3t-0.5 3q0 1 -1 1v-1q0 2 -0.5 3t-0.5 3q-1 2 -0.5 5t0.5 5v9v7.5t1 8.5q0 6 -0.5 12.5t-0.5 13.5q1 5 1 10v10v75q0 4 0.5 7.5t0.5 8.5q-1 5 -1 9.5v9.5t1 8t1 8q0 3 1.5 6.5
t1.5 6.5v8q0 3 0.5 9.5t1.5 13t2.5 11.5t3.5 6q3 1 3.5 4t1.5 6t2.5 5t4.5 2q8 0 9.5 -4.5t2.5 -14.5q2 -9 4.5 -19.5t2.5 -24.5q0 -11 0.5 -22t-0.5 -21v-144q1 3 1.5 6.5t2.5 6.5l9 31l9 30q3 10 6 19t5 18q2 8 5 15.5t5 15.5l6 22l8 26l11 36q0 2 0.5 2.5t0.5 1.5
q3 8 7 9.5t6 4.5q3 5 9 3zM38 18q0 -1 -2 -5q2 4 2 5z" />
    <glyph glyph-name="w" unicode="w" horiz-adv-x="187" 
d="M177 323q2 -1 2 -7.5t-1 -8.5l-2 -9q-2 -8 -3.5 -16t-3.5 -16l-5 -25l-3 -11q-1 -6 -2 -11.5t-3 -11.5q-1 -7 -2 -13t-3 -13q-2 -4 -2 -8t-2 -9l-3 -15l-4 -20q-2 -6 -3 -12l-2 -12l-5 -19q-1 -4 -2.5 -8t-2.5 -8q0 -2 -2 -10l-6 -26q-1 0 -1 -1t-2 -1q0 -1 -1 -2
q-4 -2 -3.5 -6.5t-5.5 -4.5q-5 0 -6.5 2.5t-3.5 7.5q-1 6 -3.5 12t-3.5 14l-3 25q0 8 -1 12q0 3 -0.5 6.5t-0.5 6.5q0 10 -1 15q0 8 -1 12q0 4 -1 6q0 -3 -2 -9l-4 -22l-3 -15l-3 -13l-4 -18q-1 -5 -1.5 -10.5t-2.5 -10.5q-1 -5 -1.5 -8.5t-2.5 -8.5l-3 -9q0 -2 -0.5 -2.5
t-0.5 -2.5t-0.5 -3t-0.5 -3q-2 -1 -2.5 -2t-2.5 -1q-4 0 -7.5 1t-5.5 1q-1 1 -2 1q-4 1 -6 3t-3 4v2q-2 4 -2 8v8q0 2 -1 3q-1 0 -1 1.5t-1 2.5q1 -9 1 -14.5v-7.5q-1 -2 -2 -1q-1 2 -1 4q1 1 0 4v1q-2 -1 -2 3q0 2 -0.5 3t-0.5 3q1 1 0 1l-1 -1q0 2 -0.5 3t-0.5 3
q-1 2 -0.5 5t0.5 5v9q0 4 0.5 7.5t0.5 8.5v94q1 4 0.5 7.5t-0.5 6.5t0.5 6t0.5 7v35q0 5 0.5 8t0.5 8q1 3 2 6.5t1 6.5v8q0 3 0.5 9.5t1.5 13t3 11.5t4 6t3 4t1.5 6t2 5t5.5 2q7 0 8.5 -4.5t3.5 -14.5q1 -9 3.5 -19.5t2.5 -24.5q0 -11 0.5 -22t-0.5 -21v-21q1 -11 0 -21v-57
l3 14l5 23l3 15l4 20l6 27v3q2 6 5.5 7t5.5 3q2 3 8 3q2 -1 2 -6.5v-7.5q-1 -2 -1 -5q1 0 1.5 -0.5t1.5 -0.5v-1q2 -2 2 -8v-1q2 -3 2 -10v-1h1l1 -2q-1 11 -0.5 12.5t1.5 0.5v-5h1q1 0 1 -2q0 -1 0.5 -1.5t0.5 -1.5v-1h1q0 -1 0.5 -1.5t0.5 -1.5v-5q0 -2 0.5 -3t0.5 -3v-9
q0 -4 0.5 -7.5t0.5 -7.5v-12q1 -2 1 -5t0.5 -6t0.5 -5q0 -3 0.5 -6t0.5 -6v-3l3 15l6 26q1 6 2 12.5t3 13.5q2 8 3.5 15.5t3.5 15.5l6 26l3 18q2 6 3 11.5t2 11.5q2 8 3.5 15.5t3.5 15.5q0 1 0.5 1.5t0.5 1.5q2 7 5 8t5 4q3 3 9 3zM113 100l-2 -7zM110 86q0 -2 -0.5 -3.5
t-0.5 -3.5q0 2 0.5 3.5t0.5 3.5zM46 76q-1 -2 -1 -5q0 3 1 5z" />
    <glyph glyph-name="x" unicode="x" horiz-adv-x="176" 
d="M178 317q2 -1 -0.5 -7t-3.5 -8l-5 -9l-30 -55l-12 -24q-2 -3 -3.5 -5.5t-2.5 -5.5l-12 -21v-5q0 -7 0.5 -13t1.5 -13l2 -21q3 -8 3 -13l1 -18q1 -7 2 -13t1 -12l2 -20v-11.5t1 -10.5q0 -2 1 -4.5t1 -4.5l1 -8v-9q0 -1 -0.5 -1t-0.5 -1q-5 -2 -7 -4h-1q-4 -1 -10 -5h-2
q-2 2 -1.5 2.5t-2.5 -0.5q0 -1 -0.5 -1t-0.5 1q-2 0 -4 2q-3 3 -3.5 7t-1.5 7v2q-3 4 -3.5 8t-0.5 8q0 1 0.5 1.5t-1.5 1.5l-3 3q3 -17 3 -21q0 -3 -2 -1q-1 2 -1 3v5l-2 1q-2 -2 -2 -0.5v2.5q0 2 -0.5 3.5t-0.5 3.5h-2q-2 2 -2 4q-1 3 -1 10q0 2 -1 4.5t-1 4.5v7.5t-1 8.5
q0 6 -0.5 12.5t-1.5 13.5l-8 -14q-4 -6 -6 -9.5t-5 -9.5q-2 -3 -8.5 -14t-8.5 -15q-4 -6 -5 -9l-15 -25q-1 0 -1 -1q-1 -1 -6 0q-10 4 -9 9q0 4 1 6l13 24l34 66q4 6 7.5 11.5t6.5 12.5q2 2 2.5 4.5t2.5 4.5v5q-3 10 -3 21q0 4 -1 7t-1 7v12l-3 15q0 5 -0.5 10t-1.5 10v16
q0 2 1 6t1 7q-1 2 -1 8v9t0.5 12.5t1.5 11.5t4 6t3 4t-0.5 6.5t0 6t5.5 2.5q8 0 11 -4t6 -14q2 -9 7 -19t7 -24l5 -39l3 7l11 21l30 55l1 2q5 6 9.5 7t6.5 3q3 2 6.5 2t6.5 -1zM76 173l-2 -5zM74 110l4 6zM78 117l2 6zM84 186q-3 -3 -3 -6q0 3 3 6zM70 160q-2 -4 -2 -5
q0 1 2 5z" />
    <glyph glyph-name="y" unicode="y" horiz-adv-x="134" 
d="M136 311q3 -1 2.5 -4.5t-2.5 -4.5q0 -1 -2 -5l-9 -17l-7 -14l-11 -18l-7 -14l-4 -10q-4 -4 -5 -8q-2 -2 -3.5 -5t-2.5 -6l-7 -13q0 -1 -1 -1.5t-1 -1.5v-4q0 -2 1 -4t1 -4v-3q1 -1 -3 -2l-5 -2v-2h2q0 -2 0.5 -2t0.5 -1q1 -2 0.5 -3t-0.5 -3q-1 -2 -0.5 -3t-0.5 -2
q0 -2 -1 -4.5t-1 -5.5q-1 -5 -1 -15q-1 -4 -1 -12q-1 -2 -1 -5v-11q-2 -5 -2 -13q-1 -2 -0.5 -4t0.5 -4q-1 -3 -1 -7q0 -3 -0.5 -5.5t-0.5 -4.5v-11q0 -3 -1 -5t-1 -5q-4 -4 -4 -7v-5q-1 -4 -4 -13.5t-8 -9.5q-3 0 -3 -2v-4t-1 -3t-5 -1q-8 1 -10 3.5t-4 8.5q-1 6 -4 12.5
t-3 14.5q1 6 1 13v13q1 4 1 13q0 8 2 12q1 5 1 15q0 9 1 13q0 2 -0.5 4.5t0.5 4.5q0 7 1 10q0 4 1 7.5t1 7.5t2 12q0 4 0.5 7t1.5 7q0 7 2 10v3q0 2 -1 2.5t-1 1.5v8l-2 12q0 7 -1 10v4q-1 3 -1 9l-3 10q0 2 -0.5 3.5t-0.5 3.5v5q-1 3 -1 8l-3 9q0 2 0.5 4t0.5 4t1.5 3
t1.5 3q0 1 -0.5 2t-0.5 2q0 3 1 10.5t6 9.5q5 1 5 5t8 4q10 0 8.5 -1.5t0.5 -6.5t6.5 -9t6.5 -11l3 -20q0 -3 0.5 -5.5t0.5 -4.5q2 -3 2 -10q0 -4 2 -12q0 -2 0.5 -4.5t0.5 -5.5q0 -1 1 -1l1 -1l3 7l9 17l7 15q3 3 5 10l7 12l9 16q1 1 1 2q3 4 7.5 3.5t6.5 0.5q3 3 9 -1z
M68 222l-7 -14zM64 168h-1q0 -2 1 -2v2zM72 182q0 1 0.5 1t0.5 1q0 -1 -0.5 -1t-0.5 -1zM68 178v-1v1z" />
    <glyph glyph-name="z" unicode="z" horiz-adv-x="188" 
d="M179 304q1 -2 2 -4.5t0 -5.5l-8 -22t-9 -21q-11 -23 -22 -40q-16 -30 -31 -60.5t-32 -60.5q-10 -18 -18 -32.5t-19 -32.5l-2 -2h20q2 -1 2.5 -0.5t2.5 0.5q1 0 1.5 -0.5t2.5 -0.5h5l7 1q2 0 2.5 -0.5t2.5 -0.5q1 0 2 -0.5t2 -0.5l3 1q1 0 2.5 -0.5t3.5 -0.5q1 0 2 -4v-10
l-2 -2q-1 0 -1.5 -0.5t-1.5 -0.5q-3 0 -4 -1h-22q-4 -1 -8 0h-27q-2 0 -4 0.5t-4 0.5h-2q-4 -1 -9 4q-5 4 -5.5 7t0.5 4l4 9q5 8 6 21.5t5 24.5l15 31q8 17 15 32.5t11 24.5q4 8 8 14.5t9 14.5q4 10 11 20q7 9 10 16q4 12 12 21q19 28 36 57l2 2h-5q-2 0 -3.5 0.5t-3.5 0.5
h-23q-2 0 -3 -0.5t-2 -0.5h-16q-2 1 -2.5 3.5t-1.5 4.5q-2 2 -2 8q0 4 4 4h12l7 1h3h20q1 0 2 -0.5t2 -0.5h6q5 0 7 -1q2 0 3.5 -0.5t3.5 -0.5l5 -3q1 0 1.5 -0.5t1.5 -0.5t1 -1h1q1 -1 2 -1v-1q1 0 1 -1l2 -2q0 -1 0.5 -1.5t0.5 -1.5q2 -4 0 -7v-1v0z" />
    <glyph glyph-name="three" unicode="3" horiz-adv-x="333" 
d="M330 207q5 -34 -5 -78q-1 -5 -2 -9.5t-3 -9.5q0 -8 -3 -15q-5 -18 -12 -36q-3 -9 -7 -17.5t-9 -17.5l-13 -23l-14 -22q-4 -5 -8 -10.5t-9 -10.5t-10 -9.5t-11 -9.5l-14 -10t-15 -9t-16.5 -6.5t-17.5 -4.5q-2 -1 -7 -1t-8 1q-5 0 -7 -1q-5 0 -8 -1h-6q-2 0 -3 -0.5
t-3 -0.5h-5q-3 -3 -5 -3l-3 -2h-14q-3 0 -4 1q-5 0 -8 1q-1 0 -7 2q-12 3 -26 10q-11 5 -19 12l-2 2l-2 3q-2 2 -4 6q-5 6 -6 12q-5 9 -6 18q0 10 -2 14q-3 8 -1 17q2 6 3 11.5t2 10.5l6 21q2 5 3.5 9.5t3.5 9.5q1 2 3 5q2 2 3 5t3 6l3 4l7 11l10 14q1 2 2 3.5t2 3.5l10 13
l12 14q2 2 4 4.5t4 4.5l8 8l11 10l15 10q2 2 6 4q1 0 1.5 0.5t1.5 0.5l4 2q2 0 6 2q2 0 3 0.5t3 0.5q1 1 3 1q1 1 4 1q3 1 8.5 2t11.5 0h1q2 0 1 -5q0 -9 -3 -10q-1 0 -1.5 -0.5t-1.5 -0.5l-16 -4q-4 -2 -7.5 -3.5t-7.5 -3.5l-14 -9q-4 -2 -7 -5l-6 -6l-13 -12l-14 -16
l-10 -14q-2 -3 -3.5 -5.5t-3.5 -4.5l-6 -10q-2 -2 -2 -3q-2 -2 -2 -3q-8 -26 -10 -45.5t0 -34t7.5 -24.5t12.5 -17q16 -16 42 -19q27 -2 51.5 15.5t46 45t39.5 60t31 61.5q6 17 11.5 44t0.5 53q-4 19 -16 34t-37 22l-8 -4q-5 -2 -11 -3t-12 -1t-11.5 1t-10.5 3q-3 1 -5 5
q0 3 3 8q1 5 5 7l1 1h6q1 0 1 -0.5t1 -0.5h1q3 0 4 1q1 0 2 0.5t2 0.5q0 1 2 1q0 1 1 1l2 2q1 0 1 0.5t1 0.5q3 3 5.5 6.5t4.5 5.5l10 9l9 11q7 13 10 22l4 19l6 23v4q1 1 1 4v3q1 2 1 4q2 5 0 10q0 16 -5 25t-12 13t-15 4.5t-13 -0.5l-2 -1h-2q-1 0 -1.5 -0.5t-2.5 -0.5
l-4 -2q-1 0 -2 -1h-2l-4 -2q-2 -2 -3 -2l-2 -2l-2 -1l-4 -2l-8 -7l-6 -6l-4 -5l-6 -6l-6 -9l-1 -1q-2 -2 -4.5 -0.5t-4.5 1.5q-1 0 -8 2q-2 2 -1.5 4.5t1.5 3.5l2 2l7 11l3.5 3.5l3.5 3.5l3 3l3 4l4 3l3.5 3.5l3.5 3.5l6 4l5 3q2 2 4 2l4 2q2 2 4 2q4 2 5 2l8 2q2 1 3.5 0.5
t3.5 -0.5q1 1 4 1h3q1 0 11 0.5t22 -2t24 -10t19 -23.5q2 -3 2.5 -6.5t1.5 -6.5q2 -9 2.5 -17.5t-0.5 -16.5v-4q0 -2 -1 -3q0 -5 -1 -8q0 -5 -1 -7q0 -2 -0.5 -3.5t-0.5 -3.5q-2 -8 -4 -15t-5 -14q-6 -14 -15 -28l-7 -11q9 -4 18.5 -10.5t18.5 -17t16 -25.5t10 -36z" />
    <glyph glyph-name="ampersand" unicode="&#x26;" horiz-adv-x="426" 
d="M250 32v-1h-10q-1 0 -1.5 -0.5t-1.5 -0.5t-1.5 -0.5t-1.5 -0.5h-2l-1 -1l-3 -1l-5 -1l-5 -2l-6 1l-4 -1h1q-5 -3 -9 -3l-7 -2l-4 -2h-2l-1 -1q-2 0 -3 -0.5t-3 -0.5h-5l-21 -3l-20 -5q-5 -2 -10.5 -2.5t-11.5 -1.5l-4 -2h-4q-1 -1 -3 -1l-4 -1l-3 -1h-10l-3 1
q-16 1 -18.5 13.5t-1.5 18.5v4l2 3v-1v5l2 3q0 5 3 2l6 -3q1 0 1 -2l-2 -3l-1 -3l-1 -4q-1 -4 1.5 -8.5t10.5 -6.5q1 0 2 0.5t2 0.5q2 0 7.5 1t13.5 4v-1q2 2 3 2l19 6l19 5l47 11l18 4l5 1l11 1q2 1 8 1l5 -1h11l4 -1l3 -2q8 -1 12 -5.5t5.5 -10t1 -10.5t-0.5 -8
q0 -1 -0.5 -1.5t-0.5 -1.5l-1 -1l-3 -5l-1 3q-1 0 -2 -0.5t-3 -0.5q-2 -1 -3 -1l1 3q0 1 0.5 1t0.5 1l2 4q2 3 -0.5 8.5t-11.5 7.5h-7zM295 298v-1h-9q-1 0 -1.5 -0.5t-1.5 -0.5t-1.5 -0.5t-1.5 -0.5h-2l-1 -1l-3 -1l-5 -1l-5 -2l-6 1l-4 -1h1q-5 -3 -9 -3l-7 -2l-4 -2h-2
l-1 -1q-2 0 -3 -0.5t-3 -0.5h-5l-22 -3l-20 -5q-5 -2 -10.5 -2.5t-10.5 -1.5l-4 -2h-4q-1 -1 -3 -1l-4 -1l-3 -1h-10l-3 1q-16 1 -18.5 13.5t-1.5 18.5v4l2 3v-1v5l2 3q0 5 3 2l6 -3q1 0 1 -2l-2 -3l-1 -3l-1 -4q-1 -4 1.5 -8.5t10.5 -6.5q1 0 2 0.5t2 0.5q2 0 7.5 1t13.5 4
v-1q2 2 3 2l18 6l19 5l48 11l18 4l5 1l11 1q2 1 8 1l5 -1h10l4 -1l3 -2q8 -1 12 -5.5t5.5 -10t1 -10.5t-0.5 -8q0 -1 -0.5 -1.5t-0.5 -1.5l-1 -1l-3 -5l-1 3q-1 0 -2 -0.5t-3 -0.5q-2 -1 -3 -1l1 3q0 1 0.5 1t0.5 1l2 4q2 3 -0.5 8.5t-11.5 7.5h-7zM171 237q2 0 6.5 -2
t0.5 -7q-4 -2 -6 -4q-2 -1 -2 -2l-3 -1h-14q-1 0 -1 -0.5t-2 -0.5l-4 -1q-3 -8 -3 -17l-10 -21l-25 -63v-3q-2 -8 -6.5 -19t-8.5 -22q0 -2 -2 -2q-11 -7 -15 -5q-1 0 -3 0.5t-3 3.5l3 8q0 2 0.5 4t-1.5 4q0 2 0.5 4.5t0.5 6.5q4 10 7 22q2 5 4 9.5t1 9.5l1 5q2 1 2 1.5
t2 2.5v4t2 4l-1 -1q-2 -2 4 6q0 1 1 2t0 2q2 2 2 5t3 6q1 2 1.5 3.5t2.5 3.5q-2 4 3 12l-1 -1q4 7 7.5 12.5t7.5 12.5h-14q-2 -1 -5 6q-1 2 -1 5q2 5 12 7l56 -1zM251 196q1 0 5.5 -2.5t-0.5 -8.5q1 -1 0.5 -1t-1.5 1l-4 -2l2 1l-7 -4l-4 -1q-2 -3 -3.5 -7t-0.5 -8l-7 -10
q-1 0 -0.5 -0.5t-1.5 -1.5l-3 -10l-2 -6l-2 -7l-15 -28l-2 -4l-1 -4q0 -2 -1.5 -5.5t-3.5 -6.5l-4 -6q-2 -4 -6 -5.5t-4 3.5h-1q-1 0 -1 1v2q-2 4 -1 9q-1 1 1 3l4 4q-3 5 2 5q3 11 6 17l7 14l5 11q0 2 2 4.5t2 4.5q2 2 2 4l2 13l7 13l-29 -1q-7 -13 -11.5 -27.5
t-12.5 -27.5q-2 -11 -6.5 -21t-9.5 -18l-8 -12l-4 -2l-5 1q-5 0 -5 5l1 6q0 2 0.5 4.5t-0.5 5.5q-2 5 0 10l5 20q3 8 6 17l5 15q2 3 3.5 7t2.5 6q0 2 1.5 3.5l2.5 2.5v-1q-2 3 0 5l-2 1v1l-2 5v-1q-3 2 -3 3v4q0 4 4.5 4.5t5.5 0.5l7 1l2 4l16 28q0 1 2 2q0 1 1.5 2t-0.5 1
q2 2 6 3q6 2 13 -1q1 0 2.5 -3t0.5 -6t-2.5 -9t-1.5 -11l-6 -10h27l3.5 3.5l2.5 2.5q0 2 1 3l-1 -1q1 1 1 2.5t1 2.5l7 18l2 2l2 1l8 4l2 -1q3 4 6 3q2 0 2 -6v-5q-2 0 -2 -2l-7 -16q-2 -2 -2 -5q0 1 -0.5 -1t-2.5 -4zM340 227l-2 -3l-15 1q-3 -1 -5.5 -1h-3.5h-6
q-1 0 -0.5 -0.5t-0.5 -0.5q-3 -4 -3 -9t-5 -9l-8 -20l4 -1q4 2 6 1l2 2q7 -2 6 -13q-3 -13 -6 -14v1q-1 -2 -4 -2.5t-5 -1.5l-1 -1h-3l-3 -1v-1h-12q-2 -5 -3.5 -9t-3.5 -8l-7 -15l-6 -14l-5 -13q0 -2 -2.5 -3t-1.5 -4l8 1q0 2 2 0h7q1 1 2 0.5t4 0.5h4l8 -2q5 0 3 -3
q-1 -2 -2.5 -4.5t-6.5 -5.5q-3 0 -5 -1q-1 0 -2 -0.5t-4 -1.5l-12 1q-1 0 -2 -0.5t-2 -0.5l-7 1q-1 -1 -2 -1t-6 -1l-6 -1q-1 0 -2 -0.5t-3 0.5l-6 5q-2 2 -1.5 3t-1.5 2q1 3 10 7q2 1 0 0.5t1 1.5l3 20q1 2 0.5 3t1.5 4q1 0 1 3l1.5 3t2.5 3q0 4 2 8.5t3 8.5q1 2 2 3.5
t2 3.5q-3 3 3 3q-3 5 1 11q1 1 0 4q2 4 3 5t2 3l3 3t4 2q1 2 1 4t1 4l1 7q-1 0 1 1t3 3h-1l17 27h-1q-2 0 -2.5 0.5t1.5 0.5q0 4 1 5t4 3h-1q0 2 3.5 2.5t5.5 0.5q2 2 5 2h5h5q4 1 5 1.5t2 0.5h5h-1q8 2 12 1l13 1q5 -3 5 -12z" />
    <glyph glyph-name="zero" unicode="0" horiz-adv-x="242" 
d="M229 432q4 -9 5.5 -18t3.5 -19q2 -14 2.5 -28t0.5 -28v-25l-3 -52q-2 -14 -3.5 -28.5t-3.5 -28.5l-5 -37l-7 -34q-2 -11 -4.5 -21.5t-5.5 -21.5q-3 -14 -6.5 -26.5t-7.5 -25.5q-2 -6 -4 -11l-4 -10t-3.5 -9.5t-4.5 -10.5q-3 -8 -7.5 -16.5t-9.5 -16.5q-2 -5 -5 -9.5
t-7 -9.5l-7 -9l-12 -11l-8 -5l-10 -3q-6 -2 -11 0q-3 0 -9 2q-4 0 -6 1q-9 1 -16 7q-8 6 -15 15l-11 19q-5 10 -8.5 18.5t-6.5 13.5l-5 14l-6 21q-6 24 -6 49l-3 41v10q-1 3 -1 9v13q1 10 2.5 19.5t3.5 18.5l3 13q0 5 1 7l2 6q2 5 3.5 10.5t1.5 11.5q1 3 1 6.5t2 6.5
q0 3 2 7l2 6q8 18 15 36t15 36l5 9l4 9l3 4l2 5l4 9q2 5 5 8.5t5 8.5l3 5q1 2 1 3t1 2q2 3 2.5 6t1.5 5q0 3 4 4q5 2 6 5l6 6q3 5 8 8q1 3 4 4q1 2 2 2.5t2 1.5q3 3 5.5 7t5.5 6q3 3 9 7q1 1 3 1q1 0 1.5 0.5t1.5 0.5h3l8 3q3 2 5.5 2t4.5 1q8 0 12 -1q6 0 11 -3
q5 -2 9.5 -6t7.5 -8l6 -9l2 -5zM221 351v12t-1 12t-1 12t-2 12l-3 16q-2 4 -3 7.5t-3 6.5q-4 8 -7 12q-4 4 -10 6q-2 0 -2.5 0.5t-2.5 0.5h-1q-2 -2 -3 -2q-6 -5 -11 -11l-5 -7q-4 -4 -5 -6q-5 -8 -8.5 -15l-7.5 -15l-12 -31l-2 -8l-2 -4l-1 -4l-3 -8q0 -2 -2 -8
q-5 -12 -9 -24.5t-7 -25.5l-4 -13l-2 -7l-1 -6l-2 -7q0 -2 -0.5 -3t-0.5 -3l-3 -13q-4 -18 -6.5 -36t-4.5 -36l-2 -18v-8q0 -6 -1 -9v-35q0 -11 0.5 -21.5t1.5 -21.5q1 -9 1.5 -18t2.5 -17q0 -6 1.5 -19t4.5 -25.5t8 -21t12 -6.5h1q4 0 10 7l3 3q9 9 17 22q7 12 13 25t11 27
t9 28l8 28t7.5 27.5t6.5 27.5t5.5 28t4.5 28q6 34 9 69q2 14 2.5 28.5t1.5 28.5v39z" />
    <glyph glyph-name="one" unicode="1" horiz-adv-x="150" 
d="M116 465q10 -5 21 -11t12 -14l-8 -45q-2 -11 -3.5 -22t-3.5 -23q-3 -12 -5.5 -25t-4.5 -26l-5 -25l-13 -70l-9 -54l-14 -79l-11 -63q-2 -7 -3.5 -13t-3.5 -12l-6 -25q-2 -11 -3.5 -15.5t-3.5 -12.5q-1 -1 -4 -5t-11 -2q-4 1 -11.5 1.5t-12.5 2.5q-2 1 -5.5 3t-3.5 6
q1 9 -0.5 18t0.5 18q1 10 1 19.5t2 18.5q1 5 1.5 10t0.5 10q0 1 2 5q0 2 0.5 4.5t0.5 4.5q-2 6 2 10l2 8q1 6 1.5 12.5t2.5 13.5q2 8 2.5 16.5t1.5 16.5l6 32q0 5 0.5 8.5t1.5 8.5q0 2 0.5 5t3.5 5l2 6l4 26t4 27q2 5 0 11q-2 -3 -2 -6.5t-2 -7.5q0 9 3 15v2q3 1 3.5 3.5
t1.5 5.5q2 9 1 13q0 5 1 7q3 8 4 15.5t2 15.5l13 67q1 3 0.5 6t-0.5 6q-2 -5 -2.5 -10t-1.5 -10q-1 4 -0.5 7t1.5 7l6 27l-5 -6l-3 -5l-4 -5l-6 -8l-1 -1q-2 -1 -4.5 0.5t-3.5 1.5q-2 -1 -4 0.5t-4 2.5q-2 2 -1.5 4t1.5 3l1 2l6 8q4 4 5 6q2 2 2 3l5 6q1 2 5 6l3 4l3 4l4 5
l5 6q1 2 1.5 2t2.5 2l4 3q2 2 2 3q1 0 1 0.5t1 0.5q1 1 1 3q2 2 7 5t18 -4z" />
    <glyph glyph-name="two" unicode="2" horiz-adv-x="318" 
d="M277 259q-2 -6 -4 -8l-6 -12l-7 -12l-7 -12l-7 -11l-15 -22.5t-15 -21.5q-20 -29 -39 -58t-39 -58q-12 -18 -24.5 -35.5t-26.5 -33.5q-6 -8 -13 -14t-12 -14q-2 -3 -3.5 -5.5t-3.5 -4.5h52q2 0 4.5 0.5t5.5 -0.5h20q5 1 14 1q4 0 6 -0.5t5 -0.5q2 0 5 -0.5t5 -0.5h5h6.5
t9.5 -1h1v-1q0 -1 0.5 -1.5t0.5 -1.5t-0.5 -2t-0.5 -2q0 -5 -2 -6l-3 -2q-4 0 -7.5 -0.5t-7.5 -0.5h-31q-10 0 -15 -1h-92q-3 0 -3 1q-1 0 -1.5 -0.5t-1.5 -0.5l-4 -2h-7l-1 1h-2l-1 1q-1 0 -4 3l-2 4q-1 2 -1 6q-1 2 -1 6q0 12 7 23l7.5 12.5l9 15t8.5 14.5t5 11
q3 9 13.5 29t21.5 37q11 16 18.5 31.5t12.5 24.5q5 8 10.5 14t10.5 14q4 5 7 9t8 9q3 4 6.5 7t5.5 8q2 6 6 10.5t9 9.5l12 12l11 13l5 6l5 7l10 13q5 8 10 14.5t10 14.5l2 4t3 4l4 6q2 6 4 10q0 2 0.5 3t0.5 2q0 2 0.5 2.5t0.5 2.5t3 4q10 27 13 46t3 30v8v3q-1 15 -6 22.5
t-12 11t-14.5 4t-12.5 -0.5l-1 -1h-2q-2 0 -2.5 -0.5t-2.5 -0.5l-4 -2l-2 -1h-2l-4 -2q-2 -2 -3 -2l-2 -2l-2 -1l-4 -2l-8 -7l-6 -6l-4 -5q-4 -4 -5 -6q-3 -3 -7 -9v-1q-2 -2 -5 -0.5t-5 1.5q-1 0 -8 2q-2 2 -1 4.5t1 3.5l2 2l8 11l6 7l3 3l3 4l4 3l8 7l5 4l5 3l4 2l4 2
q2 2 4 2q4 2 5 2l8 2q2 1 3.5 0.5t3.5 -0.5q1 1 4 1q6 1 19 0.5t27 -6t25.5 -18t13.5 -36.5q1 -3 0 -6h1v-1q1 -1 1 -2v-3q1 -2 0 -3v-8l-1 -3v-5l-1 -5q0 -4 -1 -5q0 -2 -0.5 -5t-0.5 -5q-2 -6 -2 -9q-2 -8 -2 -10q-2 -6 -2 -9l-3 -9l-2 -9l-3 -9l-1 -4q0 -2 -0.5 -2.5
t-0.5 -2.5l-6 -17l-6 -16l-4 -8v0z" />
    <glyph glyph-name="grave" unicode="`" horiz-adv-x="95" 
d="M85 351q1 -2 2.5 -3.5t-0.5 -4.5l-2 -1q-1 0 -3.5 -3t-5.5 -2q-4 0 -7 1q-9 4 -11.5 5t-5 1.5t-7.5 2.5t-20 7q-1 1 -1.5 0.5t-1.5 0.5q-3 0 -6 3l-9 3q-2 2 -1 4.5t0 4.5q0 2 3 8q1 2 3 2h3l57 -22q1 -3 4 -3l3 -1q1 0 2 -1q2 -2 4 -2z" />
    <glyph glyph-name="acute" unicode="&#xb4;" horiz-adv-x="95" 
d="M10 351q2 0 4 2q1 1 2 1l3 1q2 0 4 3l57 22h3t3 -2q3 -6 3 -8q-1 -2 0 -4.5t-1 -4.5l-9 -3q-3 -3 -6 -3q-1 -1 -1.5 -0.5t-1.5 -0.5q-15 -5 -20 -7t-7.5 -2.5t-5 -1.5t-11.5 -5q-3 -1 -7 -1q-3 -1 -5.5 2t-3.5 3l-2 1q-2 3 -0.5 4.5t2.5 3.5z" />
    <glyph glyph-name="circumflex" unicode="&#x2c6;" horiz-adv-x="94" 
d="M11 358q3 0 4 1q1 0 2 1h3h1q-1 0 2 1t27 6l24 -17h2l3 -2q1 0 2 -1l3 -3q1 -2 2.5 -4t-1.5 -4l-2 -1q-1 0 -4 -2.5t-6 -0.5q-1 0 -7 2l-20 12l-22 -4h-7q-3 0 -5 3.5t-3 3.5l-2 1q-2 4 0 5t4 3z" />
    <glyph glyph-name="tilde" unicode="&#x2dc;" horiz-adv-x="106" 
d="M44 348h-2q0 1 -1 0.5t-1 0.5q-2 0 -2 0.5t-1 0.5q-5 0 -4 1q-1 0 -1 1h-2q-1 0 -1 1q-3 0 -4 1l-4 3l-7 4q-7 7 -5 12t7 7t14 -4q4 -3 10 -7l28 -6q4 1 6 -1h2h1q1 -1 1.5 -0.5t1.5 -0.5l4 -2q2 -2 4.5 -3.5t4.5 -3.5q6 -6 4 -10t-6 -6q-3 -2 -7 0l-8 4q-4 3 -10 7z" />
    <glyph glyph-name="dieresis" unicode="&#xa8;" horiz-adv-x="68" 
d="M29 373q1 -2 2.5 -3.5t-0.5 -4.5l-2 -1q-1 0 -2.5 -2.5t-6.5 -2.5t-8 1t-5 1q-2 2 -1 4.5t0 4.5q0 2 3 8q1 2 3 2h3h1q1 -3 4 -3l3 -1q1 0 2 -1q2 -2 4 -2zM58 365q1 -2 2.5 -3.5t-0.5 -4.5l-2 -1q-1 0 -2.5 -2.5t-6.5 -2.5t-8 1t-5 1q-2 2 -1 4.5t0 4.5q0 2 3 8q1 2 3 2
h3h1q1 -3 4 -3l3 -1q1 0 2 -1q2 -2 4 -2z" />
    <glyph glyph-name="slash" unicode="/" horiz-adv-x="303" 
d="M281 452q7 -6 12 -12.5t3 -12.5q-11 -22 -20 -44t-20 -45q-7 -12 -13 -25l-12 -26l-12 -25l-33 -68q-6 -14 -12 -27t-13 -27l-36 -78l-31 -62q-6 -13 -13.5 -23.5t-14.5 -24.5q-5 -11 -8 -15t-8 -12q-1 -1 -4.5 -4t-11.5 1q-3 2 -10.5 5t-11.5 6l-4.5 4.5t-1.5 7.5
q4 9 5.5 18.5t6.5 18.5q4 10 6.5 19t7.5 19l9 19q0 2 1 3t1 2q3 4 4 9q2 7 5 10q2 2 4 7l12 26l15 33q3 8 6.5 15.5t7.5 15.5l7 17q1 2 2 5t5 4q2 0 4 6q5 14 11 26.5t12 26.5q3 4 4 11q-3 -3 -4 -6.5t-4 -6.5q1 5 2.5 8l3.5 7q1 0 1 1q4 0 5 3t3 6q4 8 5 12q2 7 3 8
q5 7 8 14.5t7 15.5l31 66q3 6 3 12l-9 -19q1 5 5 13q8 15 17 32t29 44q2 2 7.5 3t15.5 -8q1 0 3 -2q1 0 3 -2q1 -1 2 -1.5t2 -2.5v-1v0z" />
    <glyph glyph-name="hyphen" unicode="-" horiz-adv-x="100" 
d="M89 118q1 -1 3 -2t0 -5l-1 -1q-1 0 -2.5 -4t-4.5 -4q-2 -1 -3.5 -1t-3.5 -1q-10 1 -12.5 1.5t-5 0.5h-8h-21.5q-1 1 -1.5 0.5t-1.5 0.5q-2 -1 -3 -0.5t-3 0.5h-10q-2 2 -2 4.5t-2 4.5q0 2 -0.5 3.5t1.5 4.5q0 2 2 3t3 1l60 -3q3 -3 6 -2h3q1 -1 2 -1h5v0z" />
    <glyph glyph-name="plus" unicode="+" horiz-adv-x="98" 
d="M51 73q-1 -1 -2 -2.5t-5 0.5h-1q0 1 -4 3t-3 5l-2 7q2 8 2.5 10.5t1.5 4.5q-2 0 -4.5 0.5t-4.5 0.5q-1 1 -1.5 0.5t-1.5 0.5q-2 -1 -3 -0.5t-3 0.5h-10q-2 2 -2 4.5t-2 4.5q0 2 -0.5 3.5t1.5 4.5q0 2 2 3t3 1l28 -2q0 7 1 11q1 1 0.5 1.5t0.5 1.5q-1 2 0 2.5t1 2.5l1 11
q2 2 5 1.5t5 0.5q2 2 7 -1q2 0 3 -2.5t0 -3.5l-4 -26h12q3 -3 6 -2h3q1 -1 2 -1h5q1 -1 3 -2t0 -5l-1 -1q-1 0 -2.5 -4t-4.5 -4l-7 -2q-11 1 -13.5 1h-4.5l-2 -13q-3 -3 -3 -6v-3q-1 -1 -1 -2q-1 -1 -1 -4z" />
    <glyph glyph-name="equal" unicode="=" horiz-adv-x="109" 
d="M97 136q1 -1 3 -2t0 -5l-1 -1q-1 0 -2.5 -4t-4.5 -4q-2 -1 -3.5 -1t-3.5 -1q-10 1 -12.5 1.5t-5 0.5h-8h-21.5q-1 1 -1.5 0.5t-1.5 0.5q-2 -1 -3 -0.5t-3 0.5h-10q-2 2 -2 4.5t-2 4.5q0 2 -0.5 3.5t1.5 4.5q0 2 2 3t3 1l60 -3q3 -3 6 -2h3q1 -1 2 -1h5zM88 102q1 -1 3 -2
t0 -5l-1 -1q-1 0 -2.5 -4t-4.5 -4q-2 -1 -3.5 -1t-3.5 -1q-10 1 -12.5 1.5t-5 0.5h-8h-21.5q-1 1 -1.5 0.5t-1.5 0.5q-2 -1 -3 -0.5t-3 0.5h-10q-2 2 -2 4.5t-2 4.5q0 2 -0.5 3.5t1.5 4.5q0 2 2 3t3 1l60 -3q3 -3 6 -2h3q1 -1 2 -1h5z" />
    <glyph glyph-name="comma" unicode="," horiz-adv-x="54" 
d="M43 21q4 -1 5 -5.5t-1 -6.5q-1 -1 -1 -1.5t-1 -1.5t-1 -5l-1 -1q-1 0 -2 -1q-1 -2 -3 -4l-2 -4q-1 -1 -2 -1l-1 -2v-1q-2 -2 -2 -4q-3 -3 -4 -3l-4 -2t-3 -1h-6q-3 0 -0.5 6.5t8 15t12 15.5t9.5 7z" />
    <glyph glyph-name="period" unicode="." horiz-adv-x="40" 
d="M30 16q1 -2 2.5 -3.5t-0.5 -4.5l-2 -1q-1 0 -2.5 -2.5t-6.5 -2.5t-8 1t-5 1q-2 2 -1 4.5t0 4.5q0 2 3 8q1 2 3 2h3h1q1 -3 4 -3l3 -1q1 0 2 -1q2 -2 4 -2z" />
    <glyph glyph-name="colon" unicode=":" horiz-adv-x="56" 
d="M29 71q1 -2 2.5 -3.5t-0.5 -4.5l-2 -1q-1 0 -2.5 -2.5t-6.5 -2.5t-8 1t-5 1q-2 2 -1 4.5t0 4.5q0 2 3 8q1 2 3 2h3h1q1 -3 4 -3l3 -1q1 0 2 -1q2 -2 4 -2zM46 161q1 -2 2.5 -3.5t-0.5 -4.5l-2 -1q-1 0 -2.5 -2.5t-6.5 -2.5t-8 1t-5 1q-2 2 -1 4.5t0 4.5q0 2 3 8q1 2 3 2
h3h1q1 -3 4 -3l3 -1q1 0 2 -1q2 -2 4 -2z" />
    <glyph glyph-name="divide" unicode="&#xf7;" horiz-adv-x="98" 
d="M88 118q1 -1 3 -2t0 -5l-1 -1q-1 0 -2.5 -4t-4.5 -4q-2 -1 -3.5 -1t-3.5 -1q-10 1 -12.5 1.5t-5 0.5h-8h-21.5q-1 1 -1.5 0.5t-1.5 0.5q-2 -1 -3 -0.5t-3 0.5h-10q-2 2 -2 4.5t-2 4.5q0 2 -0.5 3.5t1.5 4.5q0 2 2 3t3 1l60 -3q3 -3 6 -2h3q1 -1 2 -1h5zM50 71
q1 -2 2.5 -3.5t-0.5 -4.5l-2 -1q-1 0 -2.5 -2.5t-6.5 -2.5t-8 1t-5 1q-2 2 -1 4.5t0 4.5q0 2 3 8q1 2 3 2h3h1q1 -3 4 -3l3 -1q1 0 2 -1q2 -2 4 -2zM67 161q1 -2 2.5 -3.5t-0.5 -4.5l-2 -1q-1 0 -2.5 -2.5t-6.5 -2.5t-8 1t-5 1q-2 2 -1 4.5t0 4.5q0 2 3 8q1 2 3 2h3h1
q1 -3 4 -3l3 -1q1 0 2 -1q2 -2 4 -2z" />
    <glyph glyph-name="multiply" unicode="&#xd7;" horiz-adv-x="80" 
d="M10 136q0 2 -0.5 3.5t3.5 3.5l1 1q1 -1 5 0t6 -1l6 -4q5 -7 6 -9l2 -4q2 2 3.5 3t3.5 3q1 0 1 0.5t2 0.5q0 2 4 4l7 7q2 1 4.5 -1t4.5 -2q2 -2 3 -2.5t2 -4.5q2 -3 -1 -6l-21 -18q2 -2 3.5 -4t3.5 -5q0 -1 1 -1t1 -2q2 0 1.5 -1.5t0.5 -2.5l8 -8q0 -2 -2.5 -4.5
t-3.5 -4.5q0 -3 -6 -4q-1 -2 -3.5 -0.5t-2.5 2.5l-16 21l-8 -8q-5 0 -6 -3l-2 -2q-1 0 -2 -1l-4 -4q-1 0 -3 -0.5t-4 3.5v2q1 0 -0.5 4t0.5 6l3 7q8 7 10 8.5t4 3.5l-8 10q0 3 -2 7l-2 2v2z" />
    <glyph glyph-name="quotesingle" unicode="'" horiz-adv-x="245" 
d="M334 389q7 -2 8.5 -9t-0.5 -12q-2 -1 -4 -5q-2 -1 -2 -8v-1q0 -1 -2 -1q-1 0 -2 -1h-1v-1q-1 -2 -2 -3.5t-3 -3.5t-2 -3.5t-1 -2.5q-2 -2 -4 -2l-1 -4v-1q-4 -4 -4 -7q-2 -2 -3 -3.5t-4 -1.5q-3 -2 -6.5 -3.5t-5.5 -1.5h-10q-6 0 -1 11.5t14 25.5t19.5 25.5t16.5 12.5z
" />
    <glyph glyph-name="quoteright" unicode="&#x2019;" horiz-adv-x="243" 
d="M351 408q8 -2 10 -11.5t-1 -14.5q-2 -2 -2.5 -3t-2.5 -3t-2 -5v-6v-1q0 -1 -2 -1q-1 0 -1.5 -0.5t-1.5 -0.5h-1q-1 -1 0 -1q-2 -4 -7 -9q-2 -3 -2 -4.5t-2 -3.5t-4 -2l-2 -5v-2q-2 -2 -3.5 -4t-1.5 -4q-3 -3 -4 -5t-4 -2q-5 -2 -9 -4t-6 -2h-13q-7 0 -1 14.5t17.5 32
t25 32t20.5 15.5z" />
    <glyph glyph-name="asterisk" unicode="*" horiz-adv-x="98" 
d="M24 323q-2 0 -3.5 -0.5t-3.5 3.5l-1 1q1 1 0 5t1 6l3 5h-10q-2 2 -2 4.5t-2 4.5q0 2 -0.5 3.5t1.5 4.5q0 2 2 3t3 1l13 -1q-2 2 -2 3l-7 7q-1 2 1 4.5t2 4.5q2 2 2.5 3t4.5 2q1 1 3 0.5t3 -1.5l9 -11l1 1q-1 2 0 2.5t1 2.5l1 11q2 2 5 1.5t5 0.5q2 2 7 -1q2 0 3 -2.5
t0 -3.5l-2 -12q0 1 1.5 0.5t2.5 0.5l8 8q2 0 4.5 -2.5t4.5 -3.5q2 0 4 -6q2 -1 0.5 -3.5t-2.5 -2.5l-10 -7h3h3q1 -1 2 -1h5q1 -1 3 -2t0 -5l-1 -1q-1 0 -2.5 -4t-4.5 -4l-7 -2h-4q0 -3 3 -4l2 -2q0 -1 1 -2t1.5 -2t2.5 -2q0 -1 0.5 -3t-3.5 -4h-2q0 1 -4 -0.5t-6 0.5l-7 3
l-4 5v-1q-3 -3 -3 -6v-3q-1 -1 -1 -2q-1 -1 -1 -4q-1 -1 -2 -2.5t-5 0.5h-1q0 1 -4 3t-3 5l-2 7v3q-1 0 -1.5 -0.5t-1.5 -0.5l-2 -2h-2z" />
    <glyph glyph-name="Agrave" unicode="&#xc0;" horiz-adv-x="291" 
d="M294 202q-2 -11 -3.5 -23t-3.5 -23q-3 -17 -5.5 -33.5t-5.5 -33.5l-10 -54q-2 -11 -5.5 -21t-5.5 -21q-2 -10 -3.5 -14t-3.5 -10q0 -1 -3 -4t-11 -2q-2 1 -9.5 1.5t-11.5 2.5l-5 2.5t-4 5.5q1 8 -0.5 15t-0.5 15q1 5 1 9v8q0 2 0.5 4t0.5 4q0 5 1 8q0 5 0.5 8.5t0.5 8.5
q0 1 0.5 2t0.5 2q1 2 1 7q0 7 2 9l2 6l3 23q2 8 2.5 14.5t1.5 13.5q1 8 2 14t2 14q2 8 2 14q0 2 0.5 4t3.5 4q1 1 1 2t1 3l2 21h-59q-10 -19 -19 -38l-15 -30l-7 -14l-7 -13l-17 -37l-19 -43q-3 -5 -5 -9l-4 -8l-8 -17l-14 -29l-5 -9l-4 -9l-21 -48l-2 -2q-3 -3 -5 -1
t-4.5 4t-0.5 7q1 2 2 5l2 6l19 47l22 49l11 24l11 24l23 47l11 23l11 23l12 24t12 23h-42q-6 -1 -12.5 -1h-12.5h-3q-5 1 -7 4t-4 4q-4 1 -4 7q-1 2 4.5 3t7.5 1h7q7 0 13.5 0.5t12.5 0.5h50v3l6 11l12 23l17 32l11 20l5 9l5 10l16 27l8 13l7 14q2 2 4 6q5 7 8.5 9.5
t6.5 4.5v1l2 1q5 2 12 -2q3 -2 10 -5.5t14 -7.5t12.5 -9t5.5 -10q0 -3 -0.5 -5.5t-1.5 -6.5q-2 -9 -3 -18.5t-3 -19.5q-2 -11 -4 -21.5t-4 -21.5q-2 -6 -3 -11.5t-2 -10.5q-1 -10 -3 -19t-4 -19q5 0 7 -1q5 0 10.5 -2t4.5 -4q0 -1 -1 -1h-3q-2 0 -3.5 -1t-3.5 -2l-4 -3
q-1 0 -3 -0.5t-4 -0.5h-3q0 -2 -0.5 -3.5t-0.5 -2.5zM259 353q1 4 0 9q-1 -4 -1.5 -8t-2.5 -9q0 6 2 12v3l-23 -41q-3 -5 -6 -10.5t-6 -10.5l-6 -12l-6 -10l-10 -19q-5 -8 -8 -15.5t-8 -14.5h53q0 2 0.5 2.5t0.5 2.5q1 4 0 10q-2 -3 -2 -6t-2 -6q0 5 2 13q0 1 1 1q4 1 4 8
q1 3 1.5 5.5t0.5 5.5v6q5 10 5 26l6 29l2 14t3 15zM345 457q1 -2 2.5 -3.5t-0.5 -4.5l-2 -1q-1 0 -3.5 -3t-5.5 -2q-4 0 -7 1q-9 4 -11.5 5t-5 1.5t-7.5 2.5t-20 7q-1 1 -1.5 0.5t-1.5 0.5q-3 0 -6 3l-9 3q-2 2 -1 4.5t0 4.5q0 2 3 8q1 2 3 2h3l57 -22q1 -3 4 -3l3 -1
q1 0 2 -1q2 -2 4 -2z" />
    <glyph glyph-name="Aacute" unicode="&#xc1;" horiz-adv-x="291" 
d="M294 202q-2 -11 -3.5 -23t-3.5 -23q-3 -17 -5.5 -33.5t-5.5 -33.5l-10 -54q-2 -11 -5.5 -21t-5.5 -21q-2 -10 -3.5 -14t-3.5 -10q0 -1 -3 -4t-11 -2q-2 1 -9.5 1.5t-11.5 2.5l-5 2.5t-4 5.5q1 8 -0.5 15t-0.5 15q1 5 1 9v8q0 2 0.5 4t0.5 4q0 5 1 8q0 5 0.5 8.5t0.5 8.5
q0 1 0.5 2t0.5 2q1 2 1 7q0 7 2 9l2 6l3 23q2 8 2.5 14.5t1.5 13.5q1 8 2 14t2 14q2 8 2 14q0 2 0.5 4t3.5 4q1 1 1 2t1 3l2 21h-59q-10 -19 -19 -38l-15 -30l-7 -14l-7 -13l-17 -37l-19 -43q-3 -5 -5 -9l-4 -8l-8 -17l-14 -29l-5 -9l-4 -9l-21 -48l-2 -2q-3 -3 -5 -1
t-4.5 4t-0.5 7q1 2 2 5l2 6l19 47l22 49l11 24l11 24l23 47l11 23l11 23l12 24t12 23h-42q-6 -1 -12.5 -1h-12.5h-3q-5 1 -7 4t-4 4q-4 1 -4 7q-1 2 4.5 3t7.5 1h7q7 0 13.5 0.5t12.5 0.5h50v3l6 11l12 23l17 32l11 20l5 9l5 10l16 27l8 13l7 14q2 2 4 6q5 7 8.5 9.5
t6.5 4.5v1l2 1q5 2 12 -2q3 -2 10 -5.5t14 -7.5t12.5 -9t5.5 -10q0 -3 -0.5 -5.5t-1.5 -6.5q-2 -9 -3 -18.5t-3 -19.5q-2 -11 -4 -21.5t-4 -21.5q-2 -6 -3 -11.5t-2 -10.5q-1 -10 -3 -19t-4 -19q5 0 7 -1q5 0 10.5 -2t4.5 -4q0 -1 -1 -1h-3q-2 0 -3.5 -1t-3.5 -2l-4 -3
q-1 0 -3 -0.5t-4 -0.5h-3q0 -2 -0.5 -3.5t-0.5 -2.5zM259 353q1 4 0 9q-1 -4 -1.5 -8t-2.5 -9q0 6 2 12v3l-23 -41q-3 -5 -6 -10.5t-6 -10.5l-6 -12l-6 -10l-10 -19q-5 -8 -8 -15.5t-8 -14.5h53q0 2 0.5 2.5t0.5 2.5q1 4 0 10q-2 -3 -2 -6t-2 -6q0 5 2 13q0 1 1 1q4 1 4 8
q1 3 1.5 5.5t0.5 5.5v6q5 10 5 26l6 29l2 14t3 15zM262 457q2 0 4 2q1 1 2 1l3 1q2 0 4 3l57 22h3t3 -2q3 -6 3 -8q-1 -2 0 -4.5t-1 -4.5l-9 -3q-3 -3 -6 -3q-1 -1 -1.5 -0.5t-1.5 -0.5q-15 -5 -20 -7t-7.5 -2.5t-5 -1.5t-11.5 -5q-3 -1 -7 -1q-3 -1 -5.5 2t-3.5 3l-2 1
q-2 3 -0.5 4.5t2.5 3.5z" />
    <glyph glyph-name="Acircumflex" unicode="&#xc2;" horiz-adv-x="291" 
d="M294 202q-2 -11 -3.5 -23t-3.5 -23q-3 -17 -5.5 -33.5t-5.5 -33.5l-10 -54q-2 -11 -5.5 -21t-5.5 -21q-2 -10 -3.5 -14t-3.5 -10q0 -1 -3 -4t-11 -2q-2 1 -9.5 1.5t-11.5 2.5l-5 2.5t-4 5.5q1 8 -0.5 15t-0.5 15q1 5 1 9v8q0 2 0.5 4t0.5 4q0 5 1 8q0 5 0.5 8.5t0.5 8.5
q0 1 0.5 2t0.5 2q1 2 1 7q0 7 2 9l2 6l3 23q2 8 2.5 14.5t1.5 13.5q1 8 2 14t2 14q2 8 2 14q0 2 0.5 4t3.5 4q1 1 1 2t1 3l2 21h-59q-10 -19 -19 -38l-15 -30l-7 -14l-7 -13l-17 -37l-19 -43q-3 -5 -5 -9l-4 -8l-8 -17l-14 -29l-5 -9l-4 -9l-21 -48l-2 -2q-3 -3 -5 -1
t-4.5 4t-0.5 7q1 2 2 5l2 6l19 47l22 49l11 24l11 24l23 47l11 23l11 23l12 24t12 23h-42q-6 -1 -12.5 -1h-12.5h-3q-5 1 -7 4t-4 4q-4 1 -4 7q-1 2 4.5 3t7.5 1h7q7 0 13.5 0.5t12.5 0.5h50v3l6 11l12 23l17 32l11 20l5 9l5 10l16 27l8 13l7 14q2 2 4 6q5 7 8.5 9.5
t6.5 4.5v1l2 1q5 2 12 -2q3 -2 10 -5.5t14 -7.5t12.5 -9t5.5 -10q0 -3 -0.5 -5.5t-1.5 -6.5q-2 -9 -3 -18.5t-3 -19.5q-2 -11 -4 -21.5t-4 -21.5q-2 -6 -3 -11.5t-2 -10.5q-1 -10 -3 -19t-4 -19q5 0 7 -1q5 0 10.5 -2t4.5 -4q0 -1 -1 -1h-3q-2 0 -3.5 -1t-3.5 -2l-4 -3
q-1 0 -3 -0.5t-4 -0.5h-3q0 -2 -0.5 -3.5t-0.5 -2.5zM259 353q1 4 0 9q-1 -4 -1.5 -8t-2.5 -9q0 6 2 12v3l-23 -41q-3 -5 -6 -10.5t-6 -10.5l-6 -12l-6 -10l-10 -19q-5 -8 -8 -15.5t-8 -14.5h53q0 2 0.5 2.5t0.5 2.5q1 4 0 10q-2 -3 -2 -6t-2 -6q0 5 2 13q0 1 1 1q4 1 4 8
q1 3 1.5 5.5t0.5 5.5v6q5 10 5 26l6 29l2 14t3 15zM275 472q3 0 4 1q1 0 2 1h3h1q-1 0 2 1t27 6l24 -17h2l3 -2q1 0 2 -1l3 -3q1 -2 2.5 -4t-1.5 -4l-2 -1q-1 0 -4 -2.5t-6 -0.5q-1 0 -7 2l-20 12l-22 -4h-7q-3 0 -5 3.5t-3 3.5l-2 1q-2 4 0 5t4 3z" />
    <glyph glyph-name="Atilde" unicode="&#xc3;" horiz-adv-x="291" 
d="M294 202q-2 -11 -3.5 -23t-3.5 -23q-3 -17 -5.5 -33.5t-5.5 -33.5l-10 -54q-2 -11 -5.5 -21t-5.5 -21q-2 -10 -3.5 -14t-3.5 -10q0 -1 -3 -4t-11 -2q-2 1 -9.5 1.5t-11.5 2.5l-5 2.5t-4 5.5q1 8 -0.5 15t-0.5 15q1 5 1 9v8q0 2 0.5 4t0.5 4q0 5 1 8q0 5 0.5 8.5t0.5 8.5
q0 1 0.5 2t0.5 2q1 2 1 7q0 7 2 9l2 6l3 23q2 8 2.5 14.5t1.5 13.5q1 8 2 14t2 14q2 8 2 14q0 2 0.5 4t3.5 4q1 1 1 2t1 3l2 21h-59q-10 -19 -19 -38l-15 -30l-7 -14l-7 -13l-17 -37l-19 -43q-3 -5 -5 -9l-4 -8l-8 -17l-14 -29l-5 -9l-4 -9l-21 -48l-2 -2q-3 -3 -5 -1
t-4.5 4t-0.5 7q1 2 2 5l2 6l19 47l22 49l11 24l11 24l23 47l11 23l11 23l12 24t12 23h-42q-6 -1 -12.5 -1h-12.5h-3q-5 1 -7 4t-4 4q-4 1 -4 7q-1 2 4.5 3t7.5 1h7q7 0 13.5 0.5t12.5 0.5h50v3l6 11l12 23l17 32l11 20l5 9l5 10l16 27l8 13l7 14q2 2 4 6q5 7 8.5 9.5
t6.5 4.5v1l2 1q5 2 12 -2q3 -2 10 -5.5t14 -7.5t12.5 -9t5.5 -10q0 -3 -0.5 -5.5t-1.5 -6.5q-2 -9 -3 -18.5t-3 -19.5q-2 -11 -4 -21.5t-4 -21.5q-2 -6 -3 -11.5t-2 -10.5q-1 -10 -3 -19t-4 -19q5 0 7 -1q5 0 10.5 -2t4.5 -4q0 -1 -1 -1h-3q-2 0 -3.5 -1t-3.5 -2l-4 -3
q-1 0 -3 -0.5t-4 -0.5h-3q0 -2 -0.5 -3.5t-0.5 -2.5zM259 353q1 4 0 9q-1 -4 -1.5 -8t-2.5 -9q0 6 2 12v3l-23 -41q-3 -5 -6 -10.5t-6 -10.5l-6 -12l-6 -10l-10 -19q-5 -8 -8 -15.5t-8 -14.5h53q0 2 0.5 2.5t0.5 2.5q1 4 0 10q-2 -3 -2 -6t-2 -6q0 5 2 13q0 1 1 1q4 1 4 8
q1 3 1.5 5.5t0.5 5.5v6q5 10 5 26l6 29l2 14t3 15zM299 447h-2q0 1 -1 0.5t-1 0.5q-2 0 -2 0.5t-1 0.5q-5 0 -4 1q-1 0 -1 1h-2q-1 0 -1 1q-3 0 -4 1l-4 3l-7 4q-7 7 -5 12t7 7t14 -4q4 -3 10 -7l28 -6q4 1 6 -1h2h1q1 -1 1.5 -0.5t1.5 -0.5l4 -2q2 -2 4.5 -3.5t4.5 -3.5
q6 -6 4 -10t-6 -6q-3 -2 -7 0l-8 4q-4 3 -10 7z" />
    <glyph glyph-name="Adieresis" unicode="&#xc4;" horiz-adv-x="291" 
d="M294 202q-2 -11 -3.5 -23t-3.5 -23q-3 -17 -5.5 -33.5t-5.5 -33.5l-10 -54q-2 -11 -5.5 -21t-5.5 -21q-2 -10 -3.5 -14t-3.5 -10q0 -1 -3 -4t-11 -2q-2 1 -9.5 1.5t-11.5 2.5l-5 2.5t-4 5.5q1 8 -0.5 15t-0.5 15q1 5 1 9v8q0 2 0.5 4t0.5 4q0 5 1 8q0 5 0.5 8.5t0.5 8.5
q0 1 0.5 2t0.5 2q1 2 1 7q0 7 2 9l2 6l3 23q2 8 2.5 14.5t1.5 13.5q1 8 2 14t2 14q2 8 2 14q0 2 0.5 4t3.5 4q1 1 1 2t1 3l2 21h-59q-10 -19 -19 -38l-15 -30l-7 -14l-7 -13l-17 -37l-19 -43q-3 -5 -5 -9l-4 -8l-8 -17l-14 -29l-5 -9l-4 -9l-21 -48l-2 -2q-3 -3 -5 -1
t-4.5 4t-0.5 7q1 2 2 5l2 6l19 47l22 49l11 24l11 24l23 47l11 23l11 23l12 24t12 23h-42q-6 -1 -12.5 -1h-12.5h-3q-5 1 -7 4t-4 4q-4 1 -4 7q-1 2 4.5 3t7.5 1h7q7 0 13.5 0.5t12.5 0.5h50v3l6 11l12 23l17 32l11 20l5 9l5 10l16 27l8 13l7 14q2 2 4 6q5 7 8.5 9.5
t6.5 4.5v1l2 1q5 2 12 -2q3 -2 10 -5.5t14 -7.5t12.5 -9t5.5 -10q0 -3 -0.5 -5.5t-1.5 -6.5q-2 -9 -3 -18.5t-3 -19.5q-2 -11 -4 -21.5t-4 -21.5q-2 -6 -3 -11.5t-2 -10.5q-1 -10 -3 -19t-4 -19q5 0 7 -1q5 0 10.5 -2t4.5 -4q0 -1 -1 -1h-3q-2 0 -3.5 -1t-3.5 -2l-4 -3
q-1 0 -3 -0.5t-4 -0.5h-3q0 -2 -0.5 -3.5t-0.5 -2.5zM259 353q1 4 0 9q-1 -4 -1.5 -8t-2.5 -9q0 6 2 12v3l-23 -41q-3 -5 -6 -10.5t-6 -10.5l-6 -12l-6 -10l-10 -19q-5 -8 -8 -15.5t-8 -14.5h53q0 2 0.5 2.5t0.5 2.5q1 4 0 10q-2 -3 -2 -6t-2 -6q0 5 2 13q0 1 1 1q4 1 4 8
q1 3 1.5 5.5t0.5 5.5v6q5 10 5 26l6 29l2 14t3 15zM303 464q1 -2 2.5 -3.5t-0.5 -4.5l-2 -1q-1 0 -2.5 -2.5t-6.5 -2.5t-8 1t-5 1q-2 2 -1 4.5t0 4.5q0 2 3 8q1 2 3 2h3h1q1 -3 4 -3l3 -1q1 0 2 -1q2 -2 4 -2zM332 456q1 -2 2.5 -3.5t-0.5 -4.5l-2 -1q-1 0 -2.5 -2.5
t-6.5 -2.5t-8 1t-5 1q-2 2 -1 4.5t0 4.5q0 2 3 8q1 2 3 2h3h1q1 -3 4 -3l3 -1q1 0 2 -1q2 -2 4 -2z" />
    <glyph glyph-name="Egrave" unicode="&#xc8;" horiz-adv-x="297" 
d="M356 408v-1v-2q-1 0 -1 -0.5t-1 -0.5q-2 0 -3 1l-4 3q-1 0 -1 -1l-1 -1l-1 -1h-10q-3 -1 -10 -1q-11 -1 -22 -1.5t-21 -2.5l-21 -2l-21 -3l-25 -4q-1 -1 -4 -1q0 -1 0.5 -1.5t0.5 -1.5q-5 -15 -7.5 -29t-7.5 -28h6q2 0 4 1t4 1h8q7 0 10 1h12q4 1 5.5 0.5t4.5 -0.5
q2 0 4.5 -0.5t4.5 -0.5h5h6t9 -1l8 -3q4 -2 4 -3t2 -3l5 -2l1 -1q1 0 2 -1q1 0 1 -1h1q0 -1 1 -1v-2q1 0 1 -1v-2l-1 -1l-2 -2h-4l-2 2l-1 1l-2 -3v-1v-2h-1h-4q-3 0 -5.5 -1t-5.5 -3q-4 -1 -7 -1.5t-8 -0.5q-6 -1 -13 -2t-13 -1q-4 0 -7 -0.5t-6 -0.5q-4 0 -6.5 -0.5
t-6.5 -0.5q-5 0 -8.5 -0.5t-7.5 -1.5h-4.5t-5.5 -1q-2 -5 -3 -11.5t-3 -12.5l-7 -21q-3 -15 -8 -29.5t-8 -28.5l-13 -46l-18 -66l-17 -52q-4 -11 -9 -21t-8 -21l-3 -7l16 2l20 2q3 0 6 0.5t7 1.5q2 0 5 0.5t6 0.5q10 2 15 2l18 2q10 0 15 1q3 0 6.5 -0.5t6.5 0.5q5 0 7 1h21
q2 -1 4.5 -1t6.5 -1q2 0 2 -2l2 -1v-1h1v-2q2 -2 0 -2q0 -2 -1 -2h-1v2l-1 1q0 1 -1 1h-2q-2 0 -6 -2q-2 -2 -4 -2t-6 -1l-18 -3l-41 -4l-38 -4l-24 -3l-19 -3l-12 -3q-2 0 -5.5 -1t-8.5 1h-5q-6 -2 -11.5 -2.5t-11.5 -1.5h-2q-5 -1 -7 1.5t-4 2.5q-5 0 -5 7q-1 2 3.5 3
t6.5 1l6 1h1v2q2 8 2.5 15.5t2.5 15.5t3 15.5t3 15.5q2 5 3 8.5t2 7.5q0 2 2 4q2 6 2 7q-2 5 2 10q2 2 2 5q2 6 3.5 11.5t3.5 10.5l7 28l7 27q2 3 2.5 6.5t1.5 6.5t1.5 5.5t3.5 3.5q2 0 2 4q2 12 5 23l6 22q1 3 1 9q-2 -2 -2 -5t-2 -6q0 4 1 7l2 6v1q3 0 3.5 3t1.5 5
q3 4 3 11q0 3 1 5q5 13 8 27q0 1 1 2h-3q-4 -1 -11 -1h-4l-2 1l-3 4v1q-1 4 -4 8v1q4 2 2 5q-2 1 1 4q3 2 9 2h1q3 2 10 2q0 1 0.5 0.5t1.5 1.5q0 1 2 1q-11 -2 -13.5 -1.5t-1.5 1.5q2 1 3 1h3v1q-1 2 2 2h1q1 0 1 0.5t1 0.5h1l-1 1q3 0 4 1h7q1 0 1.5 0.5t1.5 0.5l5 15
q1 4 1 10l-6 -16q0 2 1 5.5t2 5.5l8 30l3 5h-8q-1 0 -1.5 -0.5t-1.5 -0.5q-6 0 -8 2t-4 3q-2 0 -3.5 2t-1.5 4q-1 2 4 3.5t7 1.5l7 2l18 2l3 5l3 7q1 1 6 3t16 -4l11 -5q4 2 8 2.5t9 1.5l20 2l14 3h12l17 3l19 3h16h14h18h7q1 -1 2 -1t3 -1l2 -2l1 -1l1 -1h1q0 -1 0.5 -1
t0.5 -1v-3v0zM229 452q1 -2 2.5 -3.5t-0.5 -4.5l-2 -1q-1 0 -3.5 -3t-5.5 -2q-4 0 -7 1q-9 4 -11.5 5t-5 1.5t-7.5 2.5t-20 7q-1 1 -1.5 0.5t-1.5 0.5q-3 0 -6 3l-9 3q-2 2 -1 4.5t0 4.5q0 2 3 8q1 2 3 2h3l57 -22q1 -3 4 -3l3 -1q1 0 2 -1q2 -2 4 -2z" />
    <glyph glyph-name="Eacute" unicode="&#xc9;" horiz-adv-x="297" 
d="M356 408v-1v-2q-1 0 -1 -0.5t-1 -0.5q-2 0 -3 1l-4 3q-1 0 -1 -1l-1 -1l-1 -1h-10q-3 -1 -10 -1q-11 -1 -22 -1.5t-21 -2.5l-21 -2l-21 -3l-25 -4q-1 -1 -4 -1q0 -1 0.5 -1.5t0.5 -1.5q-5 -15 -7.5 -29t-7.5 -28h6q2 0 4 1t4 1h8q7 0 10 1h12q4 1 5.5 0.5t4.5 -0.5
q2 0 4.5 -0.5t4.5 -0.5h5h6t9 -1l8 -3q4 -2 4 -3t2 -3l5 -2l1 -1q1 0 2 -1q1 0 1 -1h1q0 -1 1 -1v-2q1 0 1 -1v-2l-1 -1l-2 -2h-4l-2 2l-1 1l-2 -3v-1v-2h-1h-4q-3 0 -5.5 -1t-5.5 -3q-4 -1 -7 -1.5t-8 -0.5q-6 -1 -13 -2t-13 -1q-4 0 -7 -0.5t-6 -0.5q-4 0 -6.5 -0.5
t-6.5 -0.5q-5 0 -8.5 -0.5t-7.5 -1.5h-4.5t-5.5 -1q-2 -5 -3 -11.5t-3 -12.5l-7 -21q-3 -15 -8 -29.5t-8 -28.5l-13 -46l-18 -66l-17 -52q-4 -11 -9 -21t-8 -21l-3 -7l16 2l20 2q3 0 6 0.5t7 1.5q2 0 5 0.5t6 0.5q10 2 15 2l18 2q10 0 15 1q3 0 6.5 -0.5t6.5 0.5q5 0 7 1h21
q2 -1 4.5 -1t6.5 -1q2 0 2 -2l2 -1v-1h1v-2q2 -2 0 -2q0 -2 -1 -2h-1v2l-1 1q0 1 -1 1h-2q-2 0 -6 -2q-2 -2 -4 -2t-6 -1l-18 -3l-41 -4l-38 -4l-24 -3l-19 -3l-12 -3q-2 0 -5.5 -1t-8.5 1h-5q-6 -2 -11.5 -2.5t-11.5 -1.5h-2q-5 -1 -7 1.5t-4 2.5q-5 0 -5 7q-1 2 3.5 3
t6.5 1l6 1h1v2q2 8 2.5 15.5t2.5 15.5t3 15.5t3 15.5q2 5 3 8.5t2 7.5q0 2 2 4q2 6 2 7q-2 5 2 10q2 2 2 5q2 6 3.5 11.5t3.5 10.5l7 28l7 27q2 3 2.5 6.5t1.5 6.5t1.5 5.5t3.5 3.5q2 0 2 4q2 12 5 23l6 22q1 3 1 9q-2 -2 -2 -5t-2 -6q0 4 1 7l2 6v1q3 0 3.5 3t1.5 5
q3 4 3 11q0 3 1 5q5 13 8 27q0 1 1 2h-3q-4 -1 -11 -1h-4l-2 1l-3 4v1q-1 4 -4 8v1q4 2 2 5q-2 1 1 4q3 2 9 2h1q3 2 10 2q0 1 0.5 0.5t1.5 1.5q0 1 2 1q-11 -2 -13.5 -1.5t-1.5 1.5q2 1 3 1h3v1q-1 2 2 2h1q1 0 1 0.5t1 0.5h1l-1 1q3 0 4 1h7q1 0 1.5 0.5t1.5 0.5l5 15
q1 4 1 10l-6 -16q0 2 1 5.5t2 5.5l8 30l3 5h-8q-1 0 -1.5 -0.5t-1.5 -0.5q-6 0 -8 2t-4 3q-2 0 -3.5 2t-1.5 4q-1 2 4 3.5t7 1.5l7 2l18 2l3 5l3 7q1 1 6 3t16 -4l11 -5q4 2 8 2.5t9 1.5l20 2l14 3h12l17 3l19 3h16h14h18h7q1 -1 2 -1t3 -1l2 -2l1 -1l1 -1h1q0 -1 0.5 -1
t0.5 -1v-3v0zM142 458q2 0 4 2q1 1 2 1l3 1q2 0 4 3l57 22h3t3 -2q3 -6 3 -8q-1 -2 0 -4.5t-1 -4.5l-9 -3q-3 -3 -6 -3q-1 -1 -1.5 -0.5t-1.5 -0.5q-15 -5 -20 -7t-7.5 -2.5t-5 -1.5t-11.5 -5q-3 -1 -7 -1q-3 -1 -5.5 2t-3.5 3l-2 1q-2 3 -0.5 4.5t2.5 3.5z" />
    <glyph glyph-name="Ecircumflex" unicode="&#xca;" horiz-adv-x="297" 
d="M356 408v-1v-2q-1 0 -1 -0.5t-1 -0.5q-2 0 -3 1l-4 3q-1 0 -1 -1l-1 -1l-1 -1h-10q-3 -1 -10 -1q-11 -1 -22 -1.5t-21 -2.5l-21 -2l-21 -3l-25 -4q-1 -1 -4 -1q0 -1 0.5 -1.5t0.5 -1.5q-5 -15 -7.5 -29t-7.5 -28h6q2 0 4 1t4 1h8q7 0 10 1h12q4 1 5.5 0.5t4.5 -0.5
q2 0 4.5 -0.5t4.5 -0.5h5h6t9 -1l8 -3q4 -2 4 -3t2 -3l5 -2l1 -1q1 0 2 -1q1 0 1 -1h1q0 -1 1 -1v-2q1 0 1 -1v-2l-1 -1l-2 -2h-4l-2 2l-1 1l-2 -3v-1v-2h-1h-4q-3 0 -5.5 -1t-5.5 -3q-4 -1 -7 -1.5t-8 -0.5q-6 -1 -13 -2t-13 -1q-4 0 -7 -0.5t-6 -0.5q-4 0 -6.5 -0.5
t-6.5 -0.5q-5 0 -8.5 -0.5t-7.5 -1.5h-4.5t-5.5 -1q-2 -5 -3 -11.5t-3 -12.5l-7 -21q-3 -15 -8 -29.5t-8 -28.5l-13 -46l-18 -66l-17 -52q-4 -11 -9 -21t-8 -21l-3 -7l16 2l20 2q3 0 6 0.5t7 1.5q2 0 5 0.5t6 0.5q10 2 15 2l18 2q10 0 15 1q3 0 6.5 -0.5t6.5 0.5q5 0 7 1h21
q2 -1 4.5 -1t6.5 -1q2 0 2 -2l2 -1v-1h1v-2q2 -2 0 -2q0 -2 -1 -2h-1v2l-1 1q0 1 -1 1h-2q-2 0 -6 -2q-2 -2 -4 -2t-6 -1l-18 -3l-41 -4l-38 -4l-24 -3l-19 -3l-12 -3q-2 0 -5.5 -1t-8.5 1h-5q-6 -2 -11.5 -2.5t-11.5 -1.5h-2q-5 -1 -7 1.5t-4 2.5q-5 0 -5 7q-1 2 3.5 3
t6.5 1l6 1h1v2q2 8 2.5 15.5t2.5 15.5t3 15.5t3 15.5q2 5 3 8.5t2 7.5q0 2 2 4q2 6 2 7q-2 5 2 10q2 2 2 5q2 6 3.5 11.5t3.5 10.5l7 28l7 27q2 3 2.5 6.5t1.5 6.5t1.5 5.5t3.5 3.5q2 0 2 4q2 12 5 23l6 22q1 3 1 9q-2 -2 -2 -5t-2 -6q0 4 1 7l2 6v1q3 0 3.5 3t1.5 5
q3 4 3 11q0 3 1 5q5 13 8 27q0 1 1 2h-3q-4 -1 -11 -1h-4l-2 1l-3 4v1q-1 4 -4 8v1q4 2 2 5q-2 1 1 4q3 2 9 2h1q3 2 10 2q0 1 0.5 0.5t1.5 1.5q0 1 2 1q-11 -2 -13.5 -1.5t-1.5 1.5q2 1 3 1h3v1q-1 2 2 2h1q1 0 1 0.5t1 0.5h1l-1 1q3 0 4 1h7q1 0 1.5 0.5t1.5 0.5l5 15
q1 4 1 10l-6 -16q0 2 1 5.5t2 5.5l8 30l3 5h-8q-1 0 -1.5 -0.5t-1.5 -0.5q-6 0 -8 2t-4 3q-2 0 -3.5 2t-1.5 4q-1 2 4 3.5t7 1.5l7 2l18 2l3 5l3 7q1 1 6 3t16 -4l11 -5q4 2 8 2.5t9 1.5l20 2l14 3h12l17 3l19 3h16h14h18h7q1 -1 2 -1t3 -1l2 -2l1 -1l1 -1h1q0 -1 0.5 -1
t0.5 -1v-3v0zM149 460q3 0 4 1q1 0 2 1h3h1q-1 0 2 1t27 6l24 -17h2l3 -2q1 0 2 -1l3 -3q1 -2 2.5 -4t-1.5 -4l-2 -1q-1 0 -4 -2.5t-6 -0.5q-1 0 -7 2l-20 12l-22 -4h-7q-3 0 -5 3.5t-3 3.5l-2 1q-2 4 0 5t4 3z" />
    <glyph glyph-name="Edieresis" unicode="&#xcb;" horiz-adv-x="297" 
d="M356 408v-1v-2q-1 0 -1 -0.5t-1 -0.5q-2 0 -3 1l-4 3q-1 0 -1 -1l-1 -1l-1 -1h-10q-3 -1 -10 -1q-11 -1 -22 -1.5t-21 -2.5l-21 -2l-21 -3l-25 -4q-1 -1 -4 -1q0 -1 0.5 -1.5t0.5 -1.5q-5 -15 -7.5 -29t-7.5 -28h6q2 0 4 1t4 1h8q7 0 10 1h12q4 1 5.5 0.5t4.5 -0.5
q2 0 4.5 -0.5t4.5 -0.5h5h6t9 -1l8 -3q4 -2 4 -3t2 -3l5 -2l1 -1q1 0 2 -1q1 0 1 -1h1q0 -1 1 -1v-2q1 0 1 -1v-2l-1 -1l-2 -2h-4l-2 2l-1 1l-2 -3v-1v-2h-1h-4q-3 0 -5.5 -1t-5.5 -3q-4 -1 -7 -1.5t-8 -0.5q-6 -1 -13 -2t-13 -1q-4 0 -7 -0.5t-6 -0.5q-4 0 -6.5 -0.5
t-6.5 -0.5q-5 0 -8.5 -0.5t-7.5 -1.5h-4.5t-5.5 -1q-2 -5 -3 -11.5t-3 -12.5l-7 -21q-3 -15 -8 -29.5t-8 -28.5l-13 -46l-18 -66l-17 -52q-4 -11 -9 -21t-8 -21l-3 -7l16 2l20 2q3 0 6 0.5t7 1.5q2 0 5 0.5t6 0.5q10 2 15 2l18 2q10 0 15 1q3 0 6.5 -0.5t6.5 0.5q5 0 7 1h21
q2 -1 4.5 -1t6.5 -1q2 0 2 -2l2 -1v-1h1v-2q2 -2 0 -2q0 -2 -1 -2h-1v2l-1 1q0 1 -1 1h-2q-2 0 -6 -2q-2 -2 -4 -2t-6 -1l-18 -3l-41 -4l-38 -4l-24 -3l-19 -3l-12 -3q-2 0 -5.5 -1t-8.5 1h-5q-6 -2 -11.5 -2.5t-11.5 -1.5h-2q-5 -1 -7 1.5t-4 2.5q-5 0 -5 7q-1 2 3.5 3
t6.5 1l6 1h1v2q2 8 2.5 15.5t2.5 15.5t3 15.5t3 15.5q2 5 3 8.5t2 7.5q0 2 2 4q2 6 2 7q-2 5 2 10q2 2 2 5q2 6 3.5 11.5t3.5 10.5l7 28l7 27q2 3 2.5 6.5t1.5 6.5t1.5 5.5t3.5 3.5q2 0 2 4q2 12 5 23l6 22q1 3 1 9q-2 -2 -2 -5t-2 -6q0 4 1 7l2 6v1q3 0 3.5 3t1.5 5
q3 4 3 11q0 3 1 5q5 13 8 27q0 1 1 2h-3q-4 -1 -11 -1h-4l-2 1l-3 4v1q-1 4 -4 8v1q4 2 2 5q-2 1 1 4q3 2 9 2h1q3 2 10 2q0 1 0.5 0.5t1.5 1.5q0 1 2 1q-11 -2 -13.5 -1.5t-1.5 1.5q2 1 3 1h3v1q-1 2 2 2h1q1 0 1 0.5t1 0.5h1l-1 1q3 0 4 1h7q1 0 1.5 0.5t1.5 0.5l5 15
q1 4 1 10l-6 -16q0 2 1 5.5t2 5.5l8 30l3 5h-8q-1 0 -1.5 -0.5t-1.5 -0.5q-6 0 -8 2t-4 3q-2 0 -3.5 2t-1.5 4q-1 2 4 3.5t7 1.5l7 2l18 2l3 5l3 7q1 1 6 3t16 -4l11 -5q4 2 8 2.5t9 1.5l20 2l14 3h12l17 3l19 3h16h14h18h7q1 -1 2 -1t3 -1l2 -2l1 -1l1 -1h1q0 -1 0.5 -1
t0.5 -1v-3v0zM185 465q1 -2 2.5 -3.5t-0.5 -4.5l-2 -1q-1 0 -2.5 -2.5t-6.5 -2.5t-8 1t-5 1q-2 2 -1 4.5t0 4.5q0 2 3 8q1 2 3 2h3h1q1 -3 4 -3l3 -1q1 0 2 -1q2 -2 4 -2zM214 457q1 -2 2.5 -3.5t-0.5 -4.5l-2 -1q-1 0 -2.5 -2.5t-6.5 -2.5t-8 1t-5 1q-2 2 -1 4.5t0 4.5
q0 2 3 8q1 2 3 2h3h1q1 -3 4 -3l3 -1q1 0 2 -1q2 -2 4 -2z" />
    <glyph glyph-name="Igrave" unicode="&#xcc;" 
d="M212 395q-2 -1 -5 -1h-17q4 -4 4 -6l-7 -37q-2 -9 -3 -18t-3 -19q-6 -19 -9 -40l-5 -22l-11 -56l-9 -44l-12 -64l-10 -50q-2 -5 -3 -10t-3 -10l-6 -20v-3h24h9q2 0 5 -4t2 -12q-3 -15 -11 -15q-4 0 -7 -1h-7q-4 0 -6.5 -0.5t-6.5 -0.5q-6 -2 -9 -2q-8 0 -12 1q-6 0 -8 1
q-5 2 -7 1q-3 -1 -9 1q-6 1 -11.5 1.5t-11.5 2.5q-4 0 -12 2q-1 0 -3 1q-3 0 -7 2q-11 2 -11 9q1 6 8 6h12q2 -1 11 3t17 4h2q0 5 -0.5 7.5t0.5 7.5q1 8 1 15t2 15q1 5 1.5 8.5t0.5 8.5v1l1 2q0 2 0.5 3.5t0.5 2.5q-2 7 2 9l2 6q1 5 1.5 10.5t1.5 11.5l5 27q1 7 2 13t2 13
q0 6 2 12q0 7 4 8q1 1 1 2.5t1 2.5q1 11 3 22t4 21q1 5 0 9q-2 -2 -2 -5t-2 -6q0 7 3 13q2 1 2.5 3.5t1.5 4.5q1 3 1.5 5.5t0.5 5.5q-3 5 0 5q3 7 4 13t2 13l11 54q1 4 0 9q-3 -8 -3 -15q-1 2 -0.5 5t0.5 5l8 28q1 6 3 12t4 11q-2 -1 -6 -1h-23q-2 1 -3 3t-3 3t-2 3v4
t2.5 2.5t3.5 0.5h17q4 1 11 1h14q3 1 9 0h43q2 -2 7 -2h9q1 -1 6 -1q2 -1 5 -1.5t3 -3.5q0 -1 -1 -1h-3q-1 -1 -2.5 -3t-6.5 -3h-4zM215 455q1 -2 2.5 -3.5t-0.5 -4.5l-2 -1q-1 0 -3.5 -3t-5.5 -2q-4 0 -7 1q-9 4 -11.5 5t-5 1.5t-7.5 2.5t-20 7q-1 1 -1.5 0.5t-1.5 0.5
q-3 0 -6 3l-9 3q-2 2 -1 4.5t0 4.5q0 2 3 8q1 2 3 2h3l57 -22q1 -3 4 -3l3 -1q1 0 2 -1q2 -2 4 -2z" />
    <glyph glyph-name="Iacute" unicode="&#xcd;" 
d="M212 395q-2 -1 -5 -1h-17q4 -4 4 -6l-7 -37q-2 -9 -3 -18t-3 -19q-6 -19 -9 -40l-5 -22l-11 -56l-9 -44l-12 -64l-10 -50q-2 -5 -3 -10t-3 -10l-6 -20v-3h24h9q2 0 5 -4t2 -12q-3 -15 -11 -15q-4 0 -7 -1h-7q-4 0 -6.5 -0.5t-6.5 -0.5q-6 -2 -9 -2q-8 0 -12 1q-6 0 -8 1
q-5 2 -7 1q-3 -1 -9 1q-6 1 -11.5 1.5t-11.5 2.5q-4 0 -12 2q-1 0 -3 1q-3 0 -7 2q-11 2 -11 9q1 6 8 6h12q2 -1 11 3t17 4h2q0 5 -0.5 7.5t0.5 7.5q1 8 1 15t2 15q1 5 1.5 8.5t0.5 8.5v1l1 2q0 2 0.5 3.5t0.5 2.5q-2 7 2 9l2 6q1 5 1.5 10.5t1.5 11.5l5 27q1 7 2 13t2 13
q0 6 2 12q0 7 4 8q1 1 1 2.5t1 2.5q1 11 3 22t4 21q1 5 0 9q-2 -2 -2 -5t-2 -6q0 7 3 13q2 1 2.5 3.5t1.5 4.5q1 3 1.5 5.5t0.5 5.5q-3 5 0 5q3 7 4 13t2 13l11 54q1 4 0 9q-3 -8 -3 -15q-1 2 -0.5 5t0.5 5l8 28q1 6 3 12t4 11q-2 -1 -6 -1h-23q-2 1 -3 3t-3 3t-2 3v4
t2.5 2.5t3.5 0.5h17q4 1 11 1h14q3 1 9 0h43q2 -2 7 -2h9q1 -1 6 -1q2 -1 5 -1.5t3 -3.5q0 -1 -1 -1h-3q-1 -1 -2.5 -3t-6.5 -3h-4zM123 458q2 0 4 2q1 1 2 1l3 1q2 0 4 3l57 22h3t3 -2q3 -6 3 -8q-1 -2 0 -4.5t-1 -4.5l-9 -3q-3 -3 -6 -3q-1 -1 -1.5 -0.5t-1.5 -0.5
q-15 -5 -20 -7t-7.5 -2.5t-5 -1.5t-11.5 -5q-3 -1 -7 -1q-3 -1 -5.5 2t-3.5 3l-2 1q-2 3 -0.5 4.5t2.5 3.5z" />
    <glyph glyph-name="Icircumflex" unicode="&#xce;" 
d="M212 395q-2 -1 -5 -1h-17q4 -4 4 -6l-7 -37q-2 -9 -3 -18t-3 -19q-6 -19 -9 -40l-5 -22l-11 -56l-9 -44l-12 -64l-10 -50q-2 -5 -3 -10t-3 -10l-6 -20v-3h24h9q2 0 5 -4t2 -12q-3 -15 -11 -15q-4 0 -7 -1h-7q-4 0 -6.5 -0.5t-6.5 -0.5q-6 -2 -9 -2q-8 0 -12 1q-6 0 -8 1
q-5 2 -7 1q-3 -1 -9 1q-6 1 -11.5 1.5t-11.5 2.5q-4 0 -12 2q-1 0 -3 1q-3 0 -7 2q-11 2 -11 9q1 6 8 6h12q2 -1 11 3t17 4h2q0 5 -0.5 7.5t0.5 7.5q1 8 1 15t2 15q1 5 1.5 8.5t0.5 8.5v1l1 2q0 2 0.5 3.5t0.5 2.5q-2 7 2 9l2 6q1 5 1.5 10.5t1.5 11.5l5 27q1 7 2 13t2 13
q0 6 2 12q0 7 4 8q1 1 1 2.5t1 2.5q1 11 3 22t4 21q1 5 0 9q-2 -2 -2 -5t-2 -6q0 7 3 13q2 1 2.5 3.5t1.5 4.5q1 3 1.5 5.5t0.5 5.5q-3 5 0 5q3 7 4 13t2 13l11 54q1 4 0 9q-3 -8 -3 -15q-1 2 -0.5 5t0.5 5l8 28q1 6 3 12t4 11q-2 -1 -6 -1h-23q-2 1 -3 3t-3 3t-2 3v4
t2.5 2.5t3.5 0.5h17q4 1 11 1h14q3 1 9 0h43q2 -2 7 -2h9q1 -1 6 -1q2 -1 5 -1.5t3 -3.5q0 -1 -1 -1h-3q-1 -1 -2.5 -3t-6.5 -3h-4zM136 469q3 0 4 1q1 0 2 1h3h1q-1 0 2 1t27 6l24 -17h2l3 -2q1 0 2 -1l3 -3q1 -2 2.5 -4t-1.5 -4l-2 -1q-1 0 -4 -2.5t-6 -0.5q-1 0 -7 2
l-20 12l-22 -4h-7q-3 0 -5 3.5t-3 3.5l-2 1q-2 4 0 5t4 3z" />
    <glyph glyph-name="Idieresis" unicode="&#xcf;" 
d="M212 395q-2 -1 -5 -1h-17q4 -4 4 -6l-7 -37q-2 -9 -3 -18t-3 -19q-6 -19 -9 -40l-5 -22l-11 -56l-9 -44l-12 -64l-10 -50q-2 -5 -3 -10t-3 -10l-6 -20v-3h24h9q2 0 5 -4t2 -12q-3 -15 -11 -15q-4 0 -7 -1h-7q-4 0 -6.5 -0.5t-6.5 -0.5q-6 -2 -9 -2q-8 0 -12 1q-6 0 -8 1
q-5 2 -7 1q-3 -1 -9 1q-6 1 -11.5 1.5t-11.5 2.5q-4 0 -12 2q-1 0 -3 1q-3 0 -7 2q-11 2 -11 9q1 6 8 6h12q2 -1 11 3t17 4h2q0 5 -0.5 7.5t0.5 7.5q1 8 1 15t2 15q1 5 1.5 8.5t0.5 8.5v1l1 2q0 2 0.5 3.5t0.5 2.5q-2 7 2 9l2 6q1 5 1.5 10.5t1.5 11.5l5 27q1 7 2 13t2 13
q0 6 2 12q0 7 4 8q1 1 1 2.5t1 2.5q1 11 3 22t4 21q1 5 0 9q-2 -2 -2 -5t-2 -6q0 7 3 13q2 1 2.5 3.5t1.5 4.5q1 3 1.5 5.5t0.5 5.5q-3 5 0 5q3 7 4 13t2 13l11 54q1 4 0 9q-3 -8 -3 -15q-1 2 -0.5 5t0.5 5l8 28q1 6 3 12t4 11q-2 -1 -6 -1h-23q-2 1 -3 3t-3 3t-2 3v4
t2.5 2.5t3.5 0.5h17q4 1 11 1h14q3 1 9 0h43q2 -2 7 -2h9q1 -1 6 -1q2 -1 5 -1.5t3 -3.5q0 -1 -1 -1h-3q-1 -1 -2.5 -3t-6.5 -3h-4zM166 469q1 -2 2.5 -3.5t-0.5 -4.5l-2 -1q-1 0 -2.5 -2.5t-6.5 -2.5t-8 1t-5 1q-2 2 -1 4.5t0 4.5q0 2 3 8q1 2 3 2h3h1q1 -3 4 -3l3 -1
q1 0 2 -1q2 -2 4 -2zM195 461q1 -2 2.5 -3.5t-0.5 -4.5l-2 -1q-1 0 -2.5 -2.5t-6.5 -2.5t-8 1t-5 1q-2 2 -1 4.5t0 4.5q0 2 3 8q1 2 3 2h3h1q1 -3 4 -3l3 -1q1 0 2 -1q2 -2 4 -2z" />
    <glyph glyph-name="Ntilde" unicode="&#xd1;" horiz-adv-x="236" 
d="M267 404q7 -4 7 -9q0 -2 -0.5 -4.5t-0.5 -5.5q-1 -4 -1.5 -8t-1.5 -9t-1.5 -10.5t-2.5 -10.5l-8 -42l-7 -40q-2 -11 -3.5 -20.5t-3.5 -19.5l-8 -40l-8 -49q-2 -10 -3.5 -20.5t-3.5 -20.5l-5 -28q-2 -8 -3.5 -17t-3.5 -17q-1 -11 -3 -21t-4 -21v-16q0 -3 -3 -6
q-2 -2 -5 -2q-6 -3 -14 -3h-3q-2 -1 -6 -1q-2 0 -5.5 0.5t-5.5 3.5q-2 8 -5 14t-4 14q-2 4 -2.5 7.5t-2.5 7.5t-2 8q0 2 -0.5 3.5t-0.5 3.5q-1 4 -1.5 8t-2.5 8v4q0 5 -2 7q0 2 -0.5 4.5t0.5 4.5v6q-2 6 -3 11.5t-2 10.5q-1 7 -2 13.5t-2 12.5q-2 7 -3 13t-2 13l-2 13
q-2 7 0 9q1 1 0.5 2.5t-0.5 3.5q-2 11 -4 21.5t-4 21.5q0 5 -2 8q-1 -2 0.5 -5t-0.5 -6q-2 8 -2 12v1q2 2 2 4v5q-1 2 -1 5t-2 5q-1 2 -1 6q0 3 -0.5 6.5t-0.5 6.5q-1 -3 -1 -8q0 -2 0.5 -5.5t0.5 -6.5q-1 2 -1 5.5v5.5q-1 -1 -1 -2q-2 -11 -3.5 -20t-3.5 -19l-8 -43
q-2 -8 -2.5 -15t-2.5 -14t-2.5 -13t-1.5 -13q-2 -8 -3.5 -16.5t-3.5 -17.5q-2 -10 -3.5 -20t-3.5 -20l-7 -33l-7 -26l-2 -17q-2 -6 -4.5 -18.5t-5.5 -26.5v-2q-2 -2 -9 -1q-6 2 -10.5 4t-5.5 7q-1 2 -1 10l6 43q4 21 7.5 45t7.5 45l8 44l8 44l10 53l8 44q1 8 2 15t2 15l8 38
l8 47v23q0 2 0.5 3.5t0.5 3.5q1 1 4.5 5t16.5 2h3q5 2 10 0l2 -2q7 -1 12.5 -3t6.5 -6q2 -8 3.5 -17.5t3.5 -18.5q1 -9 2.5 -18t2.5 -19l6 -42l3 -21q2 -14 3.5 -28.5t4.5 -28.5q1 -5 1.5 -11t1.5 -12q1 -5 1.5 -10.5t2.5 -10.5q2 -17 5 -32.5t5 -32.5l5 -34l4 22l3 17
q2 8 3 17.5t3 17.5q2 11 3.5 20.5t3.5 19.5l5 26l2 12l2 12l6 31l7 36q1 10 2.5 15.5t3.5 15.5q1 5 2.5 11.5t2.5 12.5l3 16q2 2 2 7l2 9l3 12l3 12l1 2q0 3 4 2zM196 451h-2q0 1 -1 0.5t-1 0.5q-2 0 -2 0.5t-1 0.5q-5 0 -4 1q-1 0 -1 1h-2q-1 0 -1 1q-3 0 -4 1l-4 3l-7 4
q-7 7 -5 12t7 7t14 -4q4 -3 10 -7l28 -6q4 1 6 -1h2h1q1 -1 1.5 -0.5t1.5 -0.5l4 -2q2 -2 4.5 -3.5t4.5 -3.5q6 -6 4 -10t-6 -6q-3 -2 -7 0l-8 4q-4 3 -10 7z" />
    <glyph glyph-name="Ograve" unicode="&#xd2;" horiz-adv-x="289" 
d="M297 294v-12.5t1 -11.5q0 -6 -0.5 -12.5t-0.5 -11.5q-1 -14 -2 -26.5t-3 -25.5q-2 -9 -3 -17.5t-3 -17.5q-2 -8 -4 -15t-4 -15q-2 -10 -5 -20t-7 -19l-9 -23q-5 -12 -10 -23q-2 -6 -4.5 -9.5t-4.5 -8.5l-11 -17l-12 -14l-12 -13q-3 -4 -7.5 -7t-9.5 -7l-4 -2l-3 -2
q-1 0 -1.5 -0.5t-1.5 -0.5t-1 -0.5t-2 -0.5l-2 -1l-2 -1h-3l-5 -2q-10 -2 -17 -2h-16q-3 0 -4 1h-4l-4 2q-1 0 -2 0.5t-2 0.5t-2 0.5t-2 0.5q-1 1 -3 1l-2 1q-5 2 -9.5 5t-9.5 6q-4 3 -7.5 6t-6.5 6l-11 11q-2 2 -4.5 5t-5.5 7l-5 7.5t-5 9.5q-3 5 -5.5 11t-4.5 11t-3 11
t-2 11l-7 38l-3 16q0 5 -1 8v6l2 18l1 2v1l1 6l1 7q0 5 1 8q0 1 0.5 2t0.5 3q1 3 1.5 6.5t2.5 5.5q1 5 2.5 9.5t2.5 10.5q0 6 3 12l1 6l3 5q9 17 16.5 32.5t18.5 31.5q5 8 10 15.5t10 14.5q1 3 4 4l2 4q1 1 2 1.5t2 1.5l2 2q0 1 0.5 1t0.5 1l6 8q4 6 6 10q2 2 4 3
q5 0 7.5 2.5l5.5 5.5q3 0 5 2l5 3l9 6l4 2l3 2l3 3l4 3q1 0 1 1l3 1q4 0 5 1q2 0 3 0.5t3 0.5l5 -2q1 0 1.5 0.5t1.5 0.5q7 2 8 3q5 1 10 1.5t10 -0.5q7 0 10 -1q3 0 9 -2l10 -3l4 -2l4 -3q5 -3 8 -6l7 -7q7 -7 10 -15q2 -3 3.5 -6t2.5 -6t2 -6.5t2 -6.5q5 -13 5 -25z
M279 239q2 26 0 51l-1 5v4v9l-3 18l-5 20l-5 9q-1 3 -2 5.5t-2 4.5q-2 3 -5 5.5t-5 5.5l-5 4l-3 2q-2 2 -3 2q-14 6 -27 6h-7q-2 -2 -3.5 -2.5t-3.5 -1.5q-3 -1 -6 -3.5t-7 -4.5l-3 -1l-3 -3l-4 -3l-1 -1l-1 -1q-13 -11 -22 -23l-4 -6l-4 -6q-1 -2 -1.5 -3.5t-2.5 -3.5
l-2 -3l-2 -4q-4 -6 -7 -12t-7 -13l-6 -10l-2 -6t-2 -5l-6 -11v-1l-1 -1l-1 -3l-2 -6l-4 -11l-2 -5q0 -4 -2 -6l-2 -6l-2 -6l-2 -11q-4 -15 -5.5 -31t-3.5 -32v-8l-1 -1v-6v-7.5t1 -8.5q0 -7 1 -14.5t2 -14.5q1 -5 1.5 -10.5t2.5 -10.5q1 -6 4 -21t9 -30.5t15.5 -28
t24.5 -14.5h5h1q1 0 3 1q7 0 13 3l12 4v1q2 0 2 2q1 0 2 1l1 1l3 1l5 5q9 7 19 18q4 5 7.5 10.5t7.5 12.5q7 11 12.5 23.5t10.5 24.5q5 11 8.5 23.5t7.5 24.5q4 14 7 26t5 25q3 16 5 31t3 32zM275 456q1 -2 2.5 -3.5t-0.5 -4.5l-2 -1q-1 0 -3.5 -3t-5.5 -2q-4 0 -7 1
q-9 4 -11.5 5t-5 1.5t-7.5 2.5t-20 7q-1 1 -1.5 0.5t-1.5 0.5q-3 0 -6 3l-9 3q-2 2 -1 4.5t0 4.5q0 2 3 8q1 2 3 2h3l57 -22q1 -3 4 -3l3 -1q1 0 2 -1q2 -2 4 -2z" />
    <glyph glyph-name="Oacute" unicode="&#xd3;" horiz-adv-x="289" 
d="M297 294v-12.5t1 -11.5q0 -6 -0.5 -12.5t-0.5 -11.5q-1 -14 -2 -26.5t-3 -25.5q-2 -9 -3 -17.5t-3 -17.5q-2 -8 -4 -15t-4 -15q-2 -10 -5 -20t-7 -19l-9 -23q-5 -12 -10 -23q-2 -6 -4.5 -9.5t-4.5 -8.5l-11 -17l-12 -14l-12 -13q-3 -4 -7.5 -7t-9.5 -7l-4 -2l-3 -2
q-1 0 -1.5 -0.5t-1.5 -0.5t-1 -0.5t-2 -0.5l-2 -1l-2 -1h-3l-5 -2q-10 -2 -17 -2h-16q-3 0 -4 1h-4l-4 2q-1 0 -2 0.5t-2 0.5t-2 0.5t-2 0.5q-1 1 -3 1l-2 1q-5 2 -9.5 5t-9.5 6q-4 3 -7.5 6t-6.5 6l-11 11q-2 2 -4.5 5t-5.5 7l-5 7.5t-5 9.5q-3 5 -5.5 11t-4.5 11t-3 11
t-2 11l-7 38l-3 16q0 5 -1 8v6l2 18l1 2v1l1 6l1 7q0 5 1 8q0 1 0.5 2t0.5 3q1 3 1.5 6.5t2.5 5.5q1 5 2.5 9.5t2.5 10.5q0 6 3 12l1 6l3 5q9 17 16.5 32.5t18.5 31.5q5 8 10 15.5t10 14.5q1 3 4 4l2 4q1 1 2 1.5t2 1.5l2 2q0 1 0.5 1t0.5 1l6 8q4 6 6 10q2 2 4 3
q5 0 7.5 2.5l5.5 5.5q3 0 5 2l5 3l9 6l4 2l3 2l3 3l4 3q1 0 1 1l3 1q4 0 5 1q2 0 3 0.5t3 0.5l5 -2q1 0 1.5 0.5t1.5 0.5q7 2 8 3q5 1 10 1.5t10 -0.5q7 0 10 -1q3 0 9 -2l10 -3l4 -2l4 -3q5 -3 8 -6l7 -7q7 -7 10 -15q2 -3 3.5 -6t2.5 -6t2 -6.5t2 -6.5q5 -13 5 -25z
M279 239q2 26 0 51l-1 5v4v9l-3 18l-5 20l-5 9q-1 3 -2 5.5t-2 4.5q-2 3 -5 5.5t-5 5.5l-5 4l-3 2q-2 2 -3 2q-14 6 -27 6h-7q-2 -2 -3.5 -2.5t-3.5 -1.5q-3 -1 -6 -3.5t-7 -4.5l-3 -1l-3 -3l-4 -3l-1 -1l-1 -1q-13 -11 -22 -23l-4 -6l-4 -6q-1 -2 -1.5 -3.5t-2.5 -3.5
l-2 -3l-2 -4q-4 -6 -7 -12t-7 -13l-6 -10l-2 -6t-2 -5l-6 -11v-1l-1 -1l-1 -3l-2 -6l-4 -11l-2 -5q0 -4 -2 -6l-2 -6l-2 -6l-2 -11q-4 -15 -5.5 -31t-3.5 -32v-8l-1 -1v-6v-7.5t1 -8.5q0 -7 1 -14.5t2 -14.5q1 -5 1.5 -10.5t2.5 -10.5q1 -6 4 -21t9 -30.5t15.5 -28
t24.5 -14.5h5h1q1 0 3 1q7 0 13 3l12 4v1q2 0 2 2q1 0 2 1l1 1l3 1l5 5q9 7 19 18q4 5 7.5 10.5t7.5 12.5q7 11 12.5 23.5t10.5 24.5q5 11 8.5 23.5t7.5 24.5q4 14 7 26t5 25q3 16 5 31t3 32zM195 458q2 0 4 2q1 1 2 1l3 1q2 0 4 3l57 22h3t3 -2q3 -6 3 -8q-1 -2 0 -4.5
t-1 -4.5l-9 -3q-3 -3 -6 -3q-1 -1 -1.5 -0.5t-1.5 -0.5q-15 -5 -20 -7t-7.5 -2.5t-5 -1.5t-11.5 -5q-3 -1 -7 -1q-3 -1 -5.5 2t-3.5 3l-2 1q-2 3 -0.5 4.5t2.5 3.5z" />
    <glyph glyph-name="Ocircumflex" unicode="&#xd4;" horiz-adv-x="289" 
d="M297 294v-12.5t1 -11.5q0 -6 -0.5 -12.5t-0.5 -11.5q-1 -14 -2 -26.5t-3 -25.5q-2 -9 -3 -17.5t-3 -17.5q-2 -8 -4 -15t-4 -15q-2 -10 -5 -20t-7 -19l-9 -23q-5 -12 -10 -23q-2 -6 -4.5 -9.5t-4.5 -8.5l-11 -17l-12 -14l-12 -13q-3 -4 -7.5 -7t-9.5 -7l-4 -2l-3 -2
q-1 0 -1.5 -0.5t-1.5 -0.5t-1 -0.5t-2 -0.5l-2 -1l-2 -1h-3l-5 -2q-10 -2 -17 -2h-16q-3 0 -4 1h-4l-4 2q-1 0 -2 0.5t-2 0.5t-2 0.5t-2 0.5q-1 1 -3 1l-2 1q-5 2 -9.5 5t-9.5 6q-4 3 -7.5 6t-6.5 6l-11 11q-2 2 -4.5 5t-5.5 7l-5 7.5t-5 9.5q-3 5 -5.5 11t-4.5 11t-3 11
t-2 11l-7 38l-3 16q0 5 -1 8v6l2 18l1 2v1l1 6l1 7q0 5 1 8q0 1 0.5 2t0.5 3q1 3 1.5 6.5t2.5 5.5q1 5 2.5 9.5t2.5 10.5q0 6 3 12l1 6l3 5q9 17 16.5 32.5t18.5 31.5q5 8 10 15.5t10 14.5q1 3 4 4l2 4q1 1 2 1.5t2 1.5l2 2q0 1 0.5 1t0.5 1l6 8q4 6 6 10q2 2 4 3
q5 0 7.5 2.5l5.5 5.5q3 0 5 2l5 3l9 6l4 2l3 2l3 3l4 3q1 0 1 1l3 1q4 0 5 1q2 0 3 0.5t3 0.5l5 -2q1 0 1.5 0.5t1.5 0.5q7 2 8 3q5 1 10 1.5t10 -0.5q7 0 10 -1q3 0 9 -2l10 -3l4 -2l4 -3q5 -3 8 -6l7 -7q7 -7 10 -15q2 -3 3.5 -6t2.5 -6t2 -6.5t2 -6.5q5 -13 5 -25z
M279 239q2 26 0 51l-1 5v4v9l-3 18l-5 20l-5 9q-1 3 -2 5.5t-2 4.5q-2 3 -5 5.5t-5 5.5l-5 4l-3 2q-2 2 -3 2q-14 6 -27 6h-7q-2 -2 -3.5 -2.5t-3.5 -1.5q-3 -1 -6 -3.5t-7 -4.5l-3 -1l-3 -3l-4 -3l-1 -1l-1 -1q-13 -11 -22 -23l-4 -6l-4 -6q-1 -2 -1.5 -3.5t-2.5 -3.5
l-2 -3l-2 -4q-4 -6 -7 -12t-7 -13l-6 -10l-2 -6t-2 -5l-6 -11v-1l-1 -1l-1 -3l-2 -6l-4 -11l-2 -5q0 -4 -2 -6l-2 -6l-2 -6l-2 -11q-4 -15 -5.5 -31t-3.5 -32v-8l-1 -1v-6v-7.5t1 -8.5q0 -7 1 -14.5t2 -14.5q1 -5 1.5 -10.5t2.5 -10.5q1 -6 4 -21t9 -30.5t15.5 -28
t24.5 -14.5h5h1q1 0 3 1q7 0 13 3l12 4v1q2 0 2 2q1 0 2 1l1 1l3 1l5 5q9 7 19 18q4 5 7.5 10.5t7.5 12.5q7 11 12.5 23.5t10.5 24.5q5 11 8.5 23.5t7.5 24.5q4 14 7 26t5 25q3 16 5 31t3 32zM203 471q3 0 4 1q1 0 2 1h3h1q-1 0 2 1t27 6l24 -17h2l3 -2q1 0 2 -1l3 -3
q1 -2 2.5 -4t-1.5 -4l-2 -1q-1 0 -4 -2.5t-6 -0.5q-1 0 -7 2l-20 12l-22 -4h-7q-3 0 -5 3.5t-3 3.5l-2 1q-2 4 0 5t4 3z" />
    <glyph glyph-name="Otilde" unicode="&#xd5;" horiz-adv-x="289" 
d="M297 294v-12.5t1 -11.5q0 -6 -0.5 -12.5t-0.5 -11.5q-1 -14 -2 -26.5t-3 -25.5q-2 -9 -3 -17.5t-3 -17.5q-2 -8 -4 -15t-4 -15q-2 -10 -5 -20t-7 -19l-9 -23q-5 -12 -10 -23q-2 -6 -4.5 -9.5t-4.5 -8.5l-11 -17l-12 -14l-12 -13q-3 -4 -7.5 -7t-9.5 -7l-4 -2l-3 -2
q-1 0 -1.5 -0.5t-1.5 -0.5t-1 -0.5t-2 -0.5l-2 -1l-2 -1h-3l-5 -2q-10 -2 -17 -2h-16q-3 0 -4 1h-4l-4 2q-1 0 -2 0.5t-2 0.5t-2 0.5t-2 0.5q-1 1 -3 1l-2 1q-5 2 -9.5 5t-9.5 6q-4 3 -7.5 6t-6.5 6l-11 11q-2 2 -4.5 5t-5.5 7l-5 7.5t-5 9.5q-3 5 -5.5 11t-4.5 11t-3 11
t-2 11l-7 38l-3 16q0 5 -1 8v6l2 18l1 2v1l1 6l1 7q0 5 1 8q0 1 0.5 2t0.5 3q1 3 1.5 6.5t2.5 5.5q1 5 2.5 9.5t2.5 10.5q0 6 3 12l1 6l3 5q9 17 16.5 32.5t18.5 31.5q5 8 10 15.5t10 14.5q1 3 4 4l2 4q1 1 2 1.5t2 1.5l2 2q0 1 0.5 1t0.5 1l6 8q4 6 6 10q2 2 4 3
q5 0 7.5 2.5l5.5 5.5q3 0 5 2l5 3l9 6l4 2l3 2l3 3l4 3q1 0 1 1l3 1q4 0 5 1q2 0 3 0.5t3 0.5l5 -2q1 0 1.5 0.5t1.5 0.5q7 2 8 3q5 1 10 1.5t10 -0.5q7 0 10 -1q3 0 9 -2l10 -3l4 -2l4 -3q5 -3 8 -6l7 -7q7 -7 10 -15q2 -3 3.5 -6t2.5 -6t2 -6.5t2 -6.5q5 -13 5 -25z
M279 239q2 26 0 51l-1 5v4v9l-3 18l-5 20l-5 9q-1 3 -2 5.5t-2 4.5q-2 3 -5 5.5t-5 5.5l-5 4l-3 2q-2 2 -3 2q-14 6 -27 6h-7q-2 -2 -3.5 -2.5t-3.5 -1.5q-3 -1 -6 -3.5t-7 -4.5l-3 -1l-3 -3l-4 -3l-1 -1l-1 -1q-13 -11 -22 -23l-4 -6l-4 -6q-1 -2 -1.5 -3.5t-2.5 -3.5
l-2 -3l-2 -4q-4 -6 -7 -12t-7 -13l-6 -10l-2 -6t-2 -5l-6 -11v-1l-1 -1l-1 -3l-2 -6l-4 -11l-2 -5q0 -4 -2 -6l-2 -6l-2 -6l-2 -11q-4 -15 -5.5 -31t-3.5 -32v-8l-1 -1v-6v-7.5t1 -8.5q0 -7 1 -14.5t2 -14.5q1 -5 1.5 -10.5t2.5 -10.5q1 -6 4 -21t9 -30.5t15.5 -28
t24.5 -14.5h5h1q1 0 3 1q7 0 13 3l12 4v1q2 0 2 2q1 0 2 1l1 1l3 1l5 5q9 7 19 18q4 5 7.5 10.5t7.5 12.5q7 11 12.5 23.5t10.5 24.5q5 11 8.5 23.5t7.5 24.5q4 14 7 26t5 25q3 16 5 31t3 32zM231 452h-2q0 1 -1 0.5t-1 0.5q-2 0 -2 0.5t-1 0.5q-5 0 -4 1q-1 0 -1 1h-2
q-1 0 -1 1q-3 0 -4 1l-4 3l-7 4q-7 7 -5 12t7 7t14 -4q4 -3 10 -7l28 -6q4 1 6 -1h2h1q1 -1 1.5 -0.5t1.5 -0.5l4 -2q2 -2 4.5 -3.5t4.5 -3.5q6 -6 4 -10t-6 -6q-3 -2 -7 0l-8 4q-4 3 -10 7z" />
    <glyph glyph-name="Odieresis" unicode="&#xd6;" horiz-adv-x="289" 
d="M297 294v-12.5t1 -11.5q0 -6 -0.5 -12.5t-0.5 -11.5q-1 -14 -2 -26.5t-3 -25.5q-2 -9 -3 -17.5t-3 -17.5q-2 -8 -4 -15t-4 -15q-2 -10 -5 -20t-7 -19l-9 -23q-5 -12 -10 -23q-2 -6 -4.5 -9.5t-4.5 -8.5l-11 -17l-12 -14l-12 -13q-3 -4 -7.5 -7t-9.5 -7l-4 -2l-3 -2
q-1 0 -1.5 -0.5t-1.5 -0.5t-1 -0.5t-2 -0.5l-2 -1l-2 -1h-3l-5 -2q-10 -2 -17 -2h-16q-3 0 -4 1h-4l-4 2q-1 0 -2 0.5t-2 0.5t-2 0.5t-2 0.5q-1 1 -3 1l-2 1q-5 2 -9.5 5t-9.5 6q-4 3 -7.5 6t-6.5 6l-11 11q-2 2 -4.5 5t-5.5 7l-5 7.5t-5 9.5q-3 5 -5.5 11t-4.5 11t-3 11
t-2 11l-7 38l-3 16q0 5 -1 8v6l2 18l1 2v1l1 6l1 7q0 5 1 8q0 1 0.5 2t0.5 3q1 3 1.5 6.5t2.5 5.5q1 5 2.5 9.5t2.5 10.5q0 6 3 12l1 6l3 5q9 17 16.5 32.5t18.5 31.5q5 8 10 15.5t10 14.5q1 3 4 4l2 4q1 1 2 1.5t2 1.5l2 2q0 1 0.5 1t0.5 1l6 8q4 6 6 10q2 2 4 3
q5 0 7.5 2.5l5.5 5.5q3 0 5 2l5 3l9 6l4 2l3 2l3 3l4 3q1 0 1 1l3 1q4 0 5 1q2 0 3 0.5t3 0.5l5 -2q1 0 1.5 0.5t1.5 0.5q7 2 8 3q5 1 10 1.5t10 -0.5q7 0 10 -1q3 0 9 -2l10 -3l4 -2l4 -3q5 -3 8 -6l7 -7q7 -7 10 -15q2 -3 3.5 -6t2.5 -6t2 -6.5t2 -6.5q5 -13 5 -25z
M279 239q2 26 0 51l-1 5v4v9l-3 18l-5 20l-5 9q-1 3 -2 5.5t-2 4.5q-2 3 -5 5.5t-5 5.5l-5 4l-3 2q-2 2 -3 2q-14 6 -27 6h-7q-2 -2 -3.5 -2.5t-3.5 -1.5q-3 -1 -6 -3.5t-7 -4.5l-3 -1l-3 -3l-4 -3l-1 -1l-1 -1q-13 -11 -22 -23l-4 -6l-4 -6q-1 -2 -1.5 -3.5t-2.5 -3.5
l-2 -3l-2 -4q-4 -6 -7 -12t-7 -13l-6 -10l-2 -6t-2 -5l-6 -11v-1l-1 -1l-1 -3l-2 -6l-4 -11l-2 -5q0 -4 -2 -6l-2 -6l-2 -6l-2 -11q-4 -15 -5.5 -31t-3.5 -32v-8l-1 -1v-6v-7.5t1 -8.5q0 -7 1 -14.5t2 -14.5q1 -5 1.5 -10.5t2.5 -10.5q1 -6 4 -21t9 -30.5t15.5 -28
t24.5 -14.5h5h1q1 0 3 1q7 0 13 3l12 4v1q2 0 2 2q1 0 2 1l1 1l3 1l5 5q9 7 19 18q4 5 7.5 10.5t7.5 12.5q7 11 12.5 23.5t10.5 24.5q5 11 8.5 23.5t7.5 24.5q4 14 7 26t5 25q3 16 5 31t3 32zM234 471q1 -2 2.5 -3.5t-0.5 -4.5l-2 -1q-1 0 -2.5 -2.5t-6.5 -2.5t-8 1t-5 1
q-2 2 -1 4.5t0 4.5q0 2 3 8q1 2 3 2h3h1q1 -3 4 -3l3 -1q1 0 2 -1q2 -2 4 -2zM263 463q1 -2 2.5 -3.5t-0.5 -4.5l-2 -1q-1 0 -2.5 -2.5t-6.5 -2.5t-8 1t-5 1q-2 2 -1 4.5t0 4.5q0 2 3 8q1 2 3 2h3h1q1 -3 4 -3l3 -1q1 0 2 -1q2 -2 4 -2z" />
    <glyph glyph-name="Ugrave" unicode="&#xd9;" horiz-adv-x="256" 
d="M250 404q11 -3 22.5 -7t12.5 -8q-3 -14 -4.5 -27t-4.5 -27q-3 -8 -4.5 -15t-3.5 -15l-2 -15q-2 -11 -4.5 -20.5t-4.5 -20.5q-2 -8 -3 -16t-3 -16l-3 -18q-1 -3 -2 -15t-3 -29t-6.5 -36t-11.5 -36h-1q0 -1 -2.5 -8.5t-7.5 -19t-12.5 -25.5t-18.5 -27q-14 -18 -32.5 -32
t-41.5 -18l-1 -1q-5 -2 -11 -2h-13l-12 2l-7 2q-1 1 -4 1q-1 1 -5 1l-5 2l-2 4l-11 8q-2 4 -4.5 7t-4.5 6l-3 6q0 2 -0.5 2t-0.5 1l-2 3q0 2 -1 3l-2 3l-1 4q0 1 -1 2l-1 4q0 2 -1 3q0 2 -0.5 3.5t-0.5 2.5q-3 13 -3 25q-1 16 0 31q0 6 0.5 13t1.5 13q1 4 1.5 7.5t0.5 8.5
l6 21q1 9 5 22q0 2 0.5 4t0.5 3l5 29l7 26l6 28l8 32l7 27l4 19l6 24q3 17 9 31q0 3 1 4q2 7 5.5 8.5t5.5 3.5q2 3 4.5 3.5t4.5 0.5t1.5 -7t-1.5 -9l-1 -9q-3 -8 -5 -16.5t-4 -16.5q-4 -12 -7 -27l-3 -11l-7 -24l-6 -26q-1 -5 -1.5 -9t-1.5 -8l-3 -16q-2 -5 -3.5 -10.5
t-2.5 -10.5l-5 -22v-3q0 -2 -0.5 -4.5t-0.5 -4.5q-2 -4 -2 -7q-2 -7 -3.5 -14.5t-3.5 -15.5q-2 -5 -3 -11l-2 -12l-2 -9l-2 -21q0 -7 -0.5 -12.5t-0.5 -11.5q0 -5 0.5 -8.5t0.5 -7.5l2 -13q2 -12 4 -19q2 -3 4 -7l4 -8q1 -5 6 -9q5 -5 11 -6.5t11 -2.5q6 -1 12 0q18 0 33 16
t27 37t19.5 42t10.5 31h1q0 1 0.5 2.5t0.5 2.5q1 1 1 2v1q3 13 6.5 31.5t6.5 37t5 34.5t3 25q1 1 1 3q1 8 2 15.5t3 15.5q0 2 0.5 3.5t-1.5 3.5q-2 -2 -1.5 -4t-1.5 -5q0 4 2 10v1q4 0 4 5q0 2 0.5 3.5t-0.5 3.5v5q3 5 4 9.5t2 9.5q2 10 4 19.5t4 18.5q0 5 -1 8l-3 -12
q-1 3 -0.5 4.5t1.5 3.5l5 21q3 9 10 21l4 4q1 1 -0.5 2.5t12.5 -2.5zM218 457q1 -2 2.5 -3.5t-0.5 -4.5l-2 -1q-1 0 -3.5 -3t-5.5 -2q-4 0 -7 1q-9 4 -11.5 5t-5 1.5t-7.5 2.5t-20 7q-1 1 -1.5 0.5t-1.5 0.5q-3 0 -6 3l-9 3q-2 2 -1 4.5t0 4.5q0 2 3 8q1 2 3 2h3l57 -22
q1 -3 4 -3l3 -1q1 0 2 -1q2 -2 4 -2z" />
    <glyph glyph-name="Uacute" unicode="&#xda;" horiz-adv-x="256" 
d="M250 404q11 -3 22.5 -7t12.5 -8q-3 -14 -4.5 -27t-4.5 -27q-3 -8 -4.5 -15t-3.5 -15l-2 -15q-2 -11 -4.5 -20.5t-4.5 -20.5q-2 -8 -3 -16t-3 -16l-3 -18q-1 -3 -2 -15t-3 -29t-6.5 -36t-11.5 -36h-1q0 -1 -2.5 -8.5t-7.5 -19t-12.5 -25.5t-18.5 -27q-14 -18 -32.5 -32
t-41.5 -18l-1 -1q-5 -2 -11 -2h-13l-12 2l-7 2q-1 1 -4 1q-1 1 -5 1l-5 2l-2 4l-11 8q-2 4 -4.5 7t-4.5 6l-3 6q0 2 -0.5 2t-0.5 1l-2 3q0 2 -1 3l-2 3l-1 4q0 1 -1 2l-1 4q0 2 -1 3q0 2 -0.5 3.5t-0.5 2.5q-3 13 -3 25q-1 16 0 31q0 6 0.5 13t1.5 13q1 4 1.5 7.5t0.5 8.5
l6 21q1 9 5 22q0 2 0.5 4t0.5 3l5 29l7 26l6 28l8 32l7 27l4 19l6 24q3 17 9 31q0 3 1 4q2 7 5.5 8.5t5.5 3.5q2 3 4.5 3.5t4.5 0.5t1.5 -7t-1.5 -9l-1 -9q-3 -8 -5 -16.5t-4 -16.5q-4 -12 -7 -27l-3 -11l-7 -24l-6 -26q-1 -5 -1.5 -9t-1.5 -8l-3 -16q-2 -5 -3.5 -10.5
t-2.5 -10.5l-5 -22v-3q0 -2 -0.5 -4.5t-0.5 -4.5q-2 -4 -2 -7q-2 -7 -3.5 -14.5t-3.5 -15.5q-2 -5 -3 -11l-2 -12l-2 -9l-2 -21q0 -7 -0.5 -12.5t-0.5 -11.5q0 -5 0.5 -8.5t0.5 -7.5l2 -13q2 -12 4 -19q2 -3 4 -7l4 -8q1 -5 6 -9q5 -5 11 -6.5t11 -2.5q6 -1 12 0q18 0 33 16
t27 37t19.5 42t10.5 31h1q0 1 0.5 2.5t0.5 2.5q1 1 1 2v1q3 13 6.5 31.5t6.5 37t5 34.5t3 25q1 1 1 3q1 8 2 15.5t3 15.5q0 2 0.5 3.5t-1.5 3.5q-2 -2 -1.5 -4t-1.5 -5q0 4 2 10v1q4 0 4 5q0 2 0.5 3.5t-0.5 3.5v5q3 5 4 9.5t2 9.5q2 10 4 19.5t4 18.5q0 5 -1 8l-3 -12
q-1 3 -0.5 4.5t1.5 3.5l5 21q3 9 10 21l4 4q1 1 -0.5 2.5t12.5 -2.5zM140 457q2 0 4 2q1 1 2 1l3 1q2 0 4 3l57 22h3t3 -2q3 -6 3 -8q-1 -2 0 -4.5t-1 -4.5l-9 -3q-3 -3 -6 -3q-1 -1 -1.5 -0.5t-1.5 -0.5q-15 -5 -20 -7t-7.5 -2.5t-5 -1.5t-11.5 -5q-3 -1 -7 -1
q-3 -1 -5.5 2t-3.5 3l-2 1q-2 3 -0.5 4.5t2.5 3.5z" />
    <glyph glyph-name="Ucircumflex" unicode="&#xdb;" horiz-adv-x="256" 
d="M250 404q11 -3 22.5 -7t12.5 -8q-3 -14 -4.5 -27t-4.5 -27q-3 -8 -4.5 -15t-3.5 -15l-2 -15q-2 -11 -4.5 -20.5t-4.5 -20.5q-2 -8 -3 -16t-3 -16l-3 -18q-1 -3 -2 -15t-3 -29t-6.5 -36t-11.5 -36h-1q0 -1 -2.5 -8.5t-7.5 -19t-12.5 -25.5t-18.5 -27q-14 -18 -32.5 -32
t-41.5 -18l-1 -1q-5 -2 -11 -2h-13l-12 2l-7 2q-1 1 -4 1q-1 1 -5 1l-5 2l-2 4l-11 8q-2 4 -4.5 7t-4.5 6l-3 6q0 2 -0.5 2t-0.5 1l-2 3q0 2 -1 3l-2 3l-1 4q0 1 -1 2l-1 4q0 2 -1 3q0 2 -0.5 3.5t-0.5 2.5q-3 13 -3 25q-1 16 0 31q0 6 0.5 13t1.5 13q1 4 1.5 7.5t0.5 8.5
l6 21q1 9 5 22q0 2 0.5 4t0.5 3l5 29l7 26l6 28l8 32l7 27l4 19l6 24q3 17 9 31q0 3 1 4q2 7 5.5 8.5t5.5 3.5q2 3 4.5 3.5t4.5 0.5t1.5 -7t-1.5 -9l-1 -9q-3 -8 -5 -16.5t-4 -16.5q-4 -12 -7 -27l-3 -11l-7 -24l-6 -26q-1 -5 -1.5 -9t-1.5 -8l-3 -16q-2 -5 -3.5 -10.5
t-2.5 -10.5l-5 -22v-3q0 -2 -0.5 -4.5t-0.5 -4.5q-2 -4 -2 -7q-2 -7 -3.5 -14.5t-3.5 -15.5q-2 -5 -3 -11l-2 -12l-2 -9l-2 -21q0 -7 -0.5 -12.5t-0.5 -11.5q0 -5 0.5 -8.5t0.5 -7.5l2 -13q2 -12 4 -19q2 -3 4 -7l4 -8q1 -5 6 -9q5 -5 11 -6.5t11 -2.5q6 -1 12 0q18 0 33 16
t27 37t19.5 42t10.5 31h1q0 1 0.5 2.5t0.5 2.5q1 1 1 2v1q3 13 6.5 31.5t6.5 37t5 34.5t3 25q1 1 1 3q1 8 2 15.5t3 15.5q0 2 0.5 3.5t-1.5 3.5q-2 -2 -1.5 -4t-1.5 -5q0 4 2 10v1q4 0 4 5q0 2 0.5 3.5t-0.5 3.5v5q3 5 4 9.5t2 9.5q2 10 4 19.5t4 18.5q0 5 -1 8l-3 -12
q-1 3 -0.5 4.5t1.5 3.5l5 21q3 9 10 21l4 4q1 1 -0.5 2.5t12.5 -2.5zM145 477q3 0 4 1q1 0 2 1h3h1q-1 0 2 1t27 6l24 -17h2l3 -2q1 0 2 -1l3 -3q1 -2 2.5 -4t-1.5 -4l-2 -1q-1 0 -4 -2.5t-6 -0.5q-1 0 -7 2l-20 12l-22 -4h-7q-3 0 -5 3.5t-3 3.5l-2 1q-2 4 0 5t4 3z" />
    <glyph glyph-name="Udieresis" unicode="&#xdc;" horiz-adv-x="256" 
d="M250 404q11 -3 22.5 -7t12.5 -8q-3 -14 -4.5 -27t-4.5 -27q-3 -8 -4.5 -15t-3.5 -15l-2 -15q-2 -11 -4.5 -20.5t-4.5 -20.5q-2 -8 -3 -16t-3 -16l-3 -18q-1 -3 -2 -15t-3 -29t-6.5 -36t-11.5 -36h-1q0 -1 -2.5 -8.5t-7.5 -19t-12.5 -25.5t-18.5 -27q-14 -18 -32.5 -32
t-41.5 -18l-1 -1q-5 -2 -11 -2h-13l-12 2l-7 2q-1 1 -4 1q-1 1 -5 1l-5 2l-2 4l-11 8q-2 4 -4.5 7t-4.5 6l-3 6q0 2 -0.5 2t-0.5 1l-2 3q0 2 -1 3l-2 3l-1 4q0 1 -1 2l-1 4q0 2 -1 3q0 2 -0.5 3.5t-0.5 2.5q-3 13 -3 25q-1 16 0 31q0 6 0.5 13t1.5 13q1 4 1.5 7.5t0.5 8.5
l6 21q1 9 5 22q0 2 0.5 4t0.5 3l5 29l7 26l6 28l8 32l7 27l4 19l6 24q3 17 9 31q0 3 1 4q2 7 5.5 8.5t5.5 3.5q2 3 4.5 3.5t4.5 0.5t1.5 -7t-1.5 -9l-1 -9q-3 -8 -5 -16.5t-4 -16.5q-4 -12 -7 -27l-3 -11l-7 -24l-6 -26q-1 -5 -1.5 -9t-1.5 -8l-3 -16q-2 -5 -3.5 -10.5
t-2.5 -10.5l-5 -22v-3q0 -2 -0.5 -4.5t-0.5 -4.5q-2 -4 -2 -7q-2 -7 -3.5 -14.5t-3.5 -15.5q-2 -5 -3 -11l-2 -12l-2 -9l-2 -21q0 -7 -0.5 -12.5t-0.5 -11.5q0 -5 0.5 -8.5t0.5 -7.5l2 -13q2 -12 4 -19q2 -3 4 -7l4 -8q1 -5 6 -9q5 -5 11 -6.5t11 -2.5q6 -1 12 0q18 0 33 16
t27 37t19.5 42t10.5 31h1q0 1 0.5 2.5t0.5 2.5q1 1 1 2v1q3 13 6.5 31.5t6.5 37t5 34.5t3 25q1 1 1 3q1 8 2 15.5t3 15.5q0 2 0.5 3.5t-1.5 3.5q-2 -2 -1.5 -4t-1.5 -5q0 4 2 10v1q4 0 4 5q0 2 0.5 3.5t-0.5 3.5v5q3 5 4 9.5t2 9.5q2 10 4 19.5t4 18.5q0 5 -1 8l-3 -12
q-1 3 -0.5 4.5t1.5 3.5l5 21q3 9 10 21l4 4q1 1 -0.5 2.5t12.5 -2.5zM181 470q1 -2 2.5 -3.5t-0.5 -4.5l-2 -1q-1 0 -2.5 -2.5t-6.5 -2.5t-8 1t-5 1q-2 2 -1 4.5t0 4.5q0 2 3 8q1 2 3 2h3h1q1 -3 4 -3l3 -1q1 0 2 -1q2 -2 4 -2zM210 462q1 -2 2.5 -3.5t-0.5 -4.5l-2 -1
q-1 0 -2.5 -2.5t-6.5 -2.5t-8 1t-5 1q-2 2 -1 4.5t0 4.5q0 2 3 8q1 2 3 2h3h1q1 -3 4 -3l3 -1q1 0 2 -1q2 -2 4 -2z" />
    <glyph glyph-name="Yacute" unicode="&#xdd;" horiz-adv-x="115" 
d="M172 399q2 -1 0.5 -6t-2.5 -8l-3 -6l-12 -27q-2 -5 -4.5 -10t-4.5 -10l-5 -9l-9 -20l-9 -21l-6 -14l-6 -12q-2 -5 -3.5 -9t-3.5 -8l-9 -19l-2 -6v-3v-15q0 -2 0.5 -3t0.5 -2q1 -2 1 -4v-7l-1 -2q-1 0 -1 -1l-1 -23l-3 -23q0 -2 -0.5 -4.5t-0.5 -4.5q-1 -8 -2.5 -15
t-1.5 -15l-2 -23q-1 -8 -1.5 -16.5t-2.5 -17.5l-3 -26q-1 -6 -3.5 -11t-3.5 -10q0 -5 -1.5 -7t-3.5 -5q0 -1 -2 -2q-4 -2 -11 -1q-3 0 -10.5 0.5t-11.5 2.5q-2 0 -5.5 0.5t-4.5 2.5q0 4 -1.5 7.5t-1.5 7.5q0 5 -1 8.5t0 7.5v10q1 2 1 5q-2 2 0 3q1 1 1 4q1 2 1 5v5v16
q0 2 0.5 5.5t0.5 7.5v6v3t3 2q1 0 1 2v11t1 12q0 2 -1 4q-2 -2 -1 -3t-1 -2q-1 2 0 6v1q4 0 4 3q0 2 0.5 3t-0.5 3q-2 2 0 2q2 5 2 7.5v7.5l3 27q0 2 -0.5 2.5t-1.5 2.5q0 -2 -0.5 -4t-0.5 -4q-2 3 0 6q0 6 2 14q1 5 5 15q0 2 -0.5 4t-0.5 3v3q-1 2 -0.5 2.5t-1.5 1.5
q-2 2 -1 5l1 2v1l-3 12l-6 28q0 5 -1 8q-3 3 1 4q1 0 1 3q-2 8 -2 12l-2 11q0 3 -1 4q-1 -1 -0.5 -2.5t-0.5 -3.5q-1 3 -1 6v1q2 2 2 3v3v5q-3 3 -1 3q1 4 0.5 6.5l-1.5 7.5q0 7 -0.5 14t-0.5 15q0 2 -3 5v-9q-1 2 -1 6v15q0 8 5 16q0 3 2 5q1 1 4 2q4 1 17 0q11 -2 23 -2.5
t14 -4.5q0 -10 1.5 -19t1.5 -20v-21q1 -4 1 -11l2 -30l2 -12l1 -11l4 -21q1 2 2 4.5t2 5.5l10 22l11 26l10 21l6 15l10 19l12 25q0 2 1 3q2 6 6 6.5t6 2.5q3 3 8 1zM76 456q2 0 4 2q1 1 2 1l3 1q2 0 4 3l57 22h3t3 -2q3 -6 3 -8q-1 -2 0 -4.5t-1 -4.5l-9 -3q-3 -3 -6 -3
q-1 -1 -1.5 -0.5t-1.5 -0.5q-15 -5 -20 -7t-7.5 -2.5t-5 -1.5t-11.5 -5q-3 -1 -7 -1q-3 -1 -5.5 2t-3.5 3l-2 1q-2 3 -0.5 4.5t2.5 3.5z" />
    <glyph glyph-name="agrave" unicode="&#xe0;" 
d="M19 123q0 2 3 3t4 1h10q0 3 1 5q2 3 2.5 6.5t2.5 7.5l4 14l6 14l12 34l10 28l7 19l10 24q3 8 6 16.5t7 16.5q0 1 0.5 2t0.5 2q2 5 4.5 6t4.5 3q1 0 5.5 -0.5t9.5 -2.5t9.5 -6t6.5 -11q1 -8 1 -15.5v-14.5l-4 -43q-2 -26 -3.5 -53t-3.5 -53q2 0 4 -0.5t4 -0.5t5 -1.5
t3 -4.5l-1 -1q-1 0 -1 -0.5t-1 -0.5q-2 0 -3 -3t-5 -5q-2 0 -3 -0.5t-3 -0.5l-1 -1q-2 -40 -6 -77q0 -5 -1 -10t-1 -10l-1 -1q0 -1 -1 -1l-2 -2q-2 -1 -8 -1q-5 0 -8 3q-2 2 -2 4v9q0 9 -4.5 21t-6.5 22v20.5t1 20.5v2h-9q-7 1 -14 0h-20q-2 -6 -4 -11q-2 -7 -3.5 -10.5
t-3.5 -10.5q-2 -4 -3.5 -8.5t-2.5 -8.5l-3 -11l-3 -12q-4 -9 -5 -16q-2 -6 -5 -14t-6 -6v2q0 1 -0.5 2t0.5 3q0 2 -2 8q-1 3 -1.5 7t0.5 10l7 28q2 8 4 14l4 15l5 15q0 3 1 4h-2q-3 1 -3.5 4t-2.5 4q-2 4 -2 8zM56 127h24q2 0 3.5 0.5t3.5 0.5t3 -0.5t3 -0.5v36q0 8 1 15.5
t2 15.5q1 5 1 11t2 11q2 10 2 17q0 11 3 23q0 2 1 4q-2 -5 -3.5 -9t-3.5 -9l-5 -12l-9 -24q-2 -8 -5 -14.5t-5 -13.5l-6 -18l-3 -8l-3 -8zM169 351q1 -2 2.5 -3.5t-0.5 -4.5l-2 -1q-1 0 -3.5 -3t-5.5 -2q-4 0 -7 1q-9 4 -11.5 5t-5 1.5t-7.5 2.5t-20 7q-1 1 -1.5 0.5
t-1.5 0.5q-3 0 -6 3l-9 3q-2 2 -1 4.5t0 4.5q0 2 3 8q1 2 3 2h3l57 -22q1 -3 4 -3l3 -1q1 0 2 -1q2 -2 4 -2z" />
    <glyph glyph-name="aacute" unicode="&#xe1;" 
d="M19 123q0 2 3 3t4 1h10q0 3 1 5q2 3 2.5 6.5t2.5 7.5l4 14l6 14l12 34l10 28l7 19l10 24q3 8 6 16.5t7 16.5q0 1 0.5 2t0.5 2q2 5 4.5 6t4.5 3q1 0 5.5 -0.5t9.5 -2.5t9.5 -6t6.5 -11q1 -8 1 -15.5v-14.5l-4 -43q-2 -26 -3.5 -53t-3.5 -53q2 0 4 -0.5t4 -0.5t5 -1.5
t3 -4.5l-1 -1q-1 0 -1 -0.5t-1 -0.5q-2 0 -3 -3t-5 -5q-2 0 -3 -0.5t-3 -0.5l-1 -1q-2 -40 -6 -77q0 -5 -1 -10t-1 -10l-1 -1q0 -1 -1 -1l-2 -2q-2 -1 -8 -1q-5 0 -8 3q-2 2 -2 4v9q0 9 -4.5 21t-6.5 22v20.5t1 20.5v2h-9q-7 1 -14 0h-20q-2 -6 -4 -11q-2 -7 -3.5 -10.5
t-3.5 -10.5q-2 -4 -3.5 -8.5t-2.5 -8.5l-3 -11l-3 -12q-4 -9 -5 -16q-2 -6 -5 -14t-6 -6v2q0 1 -0.5 2t0.5 3q0 2 -2 8q-1 3 -1.5 7t0.5 10l7 28q2 8 4 14l4 15l5 15q0 3 1 4h-2q-3 1 -3.5 4t-2.5 4q-2 4 -2 8zM56 127h24q2 0 3.5 0.5t3.5 0.5t3 -0.5t3 -0.5v36q0 8 1 15.5
t2 15.5q1 5 1 11t2 11q2 10 2 17q0 11 3 23q0 2 1 4q-2 -5 -3.5 -9t-3.5 -9l-5 -12l-9 -24q-2 -8 -5 -14.5t-5 -13.5l-6 -18l-3 -8l-3 -8zM84 351q2 0 4 2q1 1 2 1l3 1q2 0 4 3l57 22h3t3 -2q3 -6 3 -8q-1 -2 0 -4.5t-1 -4.5l-9 -3q-3 -3 -6 -3q-1 -1 -1.5 -0.5t-1.5 -0.5
q-15 -5 -20 -7t-7.5 -2.5t-5 -1.5t-11.5 -5q-3 -1 -7 -1q-3 -1 -5.5 2t-3.5 3l-2 1q-2 3 -0.5 4.5t2.5 3.5z" />
    <glyph glyph-name="acircumflex" unicode="&#xe2;" 
d="M19 123q0 2 3 3t4 1h10q0 3 1 5q2 3 2.5 6.5t2.5 7.5l4 14l6 14l12 34l10 28l7 19l10 24q3 8 6 16.5t7 16.5q0 1 0.5 2t0.5 2q2 5 4.5 6t4.5 3q1 0 5.5 -0.5t9.5 -2.5t9.5 -6t6.5 -11q1 -8 1 -15.5v-14.5l-4 -43q-2 -26 -3.5 -53t-3.5 -53q2 0 4 -0.5t4 -0.5t5 -1.5
t3 -4.5l-1 -1q-1 0 -1 -0.5t-1 -0.5q-2 0 -3 -3t-5 -5q-2 0 -3 -0.5t-3 -0.5l-1 -1q-2 -40 -6 -77q0 -5 -1 -10t-1 -10l-1 -1q0 -1 -1 -1l-2 -2q-2 -1 -8 -1q-5 0 -8 3q-2 2 -2 4v9q0 9 -4.5 21t-6.5 22v20.5t1 20.5v2h-9q-7 1 -14 0h-20q-2 -6 -4 -11q-2 -7 -3.5 -10.5
t-3.5 -10.5q-2 -4 -3.5 -8.5t-2.5 -8.5l-3 -11l-3 -12q-4 -9 -5 -16q-2 -6 -5 -14t-6 -6v2q0 1 -0.5 2t0.5 3q0 2 -2 8q-1 3 -1.5 7t0.5 10l7 28q2 8 4 14l4 15l5 15q0 3 1 4h-2q-3 1 -3.5 4t-2.5 4q-2 4 -2 8zM56 127h24q2 0 3.5 0.5t3.5 0.5t3 -0.5t3 -0.5v36q0 8 1 15.5
t2 15.5q1 5 1 11t2 11q2 10 2 17q0 11 3 23q0 2 1 4q-2 -5 -3.5 -9t-3.5 -9l-5 -12l-9 -24q-2 -8 -5 -14.5t-5 -13.5l-6 -18l-3 -8l-3 -8zM97 358q3 0 4 1q1 0 2 1h3h1q-1 0 2 1t27 6l24 -17h2l3 -2q1 0 2 -1l3 -3q1 -2 2.5 -4t-1.5 -4l-2 -1q-1 0 -4 -2.5t-6 -0.5
q-1 0 -7 2l-20 12l-22 -4h-7q-3 0 -5 3.5t-3 3.5l-2 1q-2 4 0 5t4 3z" />
    <glyph glyph-name="atilde" unicode="&#xe3;" 
d="M19 123q0 2 3 3t4 1h10q0 3 1 5q2 3 2.5 6.5t2.5 7.5l4 14l6 14l12 34l10 28l7 19l10 24q3 8 6 16.5t7 16.5q0 1 0.5 2t0.5 2q2 5 4.5 6t4.5 3q1 0 5.5 -0.5t9.5 -2.5t9.5 -6t6.5 -11q1 -8 1 -15.5v-14.5l-4 -43q-2 -26 -3.5 -53t-3.5 -53q2 0 4 -0.5t4 -0.5t5 -1.5
t3 -4.5l-1 -1q-1 0 -1 -0.5t-1 -0.5q-2 0 -3 -3t-5 -5q-2 0 -3 -0.5t-3 -0.5l-1 -1q-2 -40 -6 -77q0 -5 -1 -10t-1 -10l-1 -1q0 -1 -1 -1l-2 -2q-2 -1 -8 -1q-5 0 -8 3q-2 2 -2 4v9q0 9 -4.5 21t-6.5 22v20.5t1 20.5v2h-9q-7 1 -14 0h-20q-2 -6 -4 -11q-2 -7 -3.5 -10.5
t-3.5 -10.5q-2 -4 -3.5 -8.5t-2.5 -8.5l-3 -11l-3 -12q-4 -9 -5 -16q-2 -6 -5 -14t-6 -6v2q0 1 -0.5 2t0.5 3q0 2 -2 8q-1 3 -1.5 7t0.5 10l7 28q2 8 4 14l4 15l5 15q0 3 1 4h-2q-3 1 -3.5 4t-2.5 4q-2 4 -2 8zM56 127h24q2 0 3.5 0.5t3.5 0.5t3 -0.5t3 -0.5v36q0 8 1 15.5
t2 15.5q1 5 1 11t2 11q2 10 2 17q0 11 3 23q0 2 1 4q-2 -5 -3.5 -9t-3.5 -9l-5 -12l-9 -24q-2 -8 -5 -14.5t-5 -13.5l-6 -18l-3 -8l-3 -8zM121 348h-2q0 1 -1 0.5t-1 0.5q-2 0 -2 0.5t-1 0.5q-5 0 -4 1q-1 0 -1 1h-2q-1 0 -1 1q-3 0 -4 1l-4 3l-7 4q-7 7 -5 12t7 7t14 -4
q4 -3 10 -7l28 -6q4 1 6 -1h2h1q1 -1 1.5 -0.5t1.5 -0.5l4 -2q2 -2 4.5 -3.5t4.5 -3.5q6 -6 4 -10t-6 -6q-3 -2 -7 0l-8 4q-4 3 -10 7z" />
    <glyph glyph-name="adieresis" unicode="&#xe4;" 
d="M19 123q0 2 3 3t4 1h10q0 3 1 5q2 3 2.5 6.5t2.5 7.5l4 14l6 14l12 34l10 28l7 19l10 24q3 8 6 16.5t7 16.5q0 1 0.5 2t0.5 2q2 5 4.5 6t4.5 3q1 0 5.5 -0.5t9.5 -2.5t9.5 -6t6.5 -11q1 -8 1 -15.5v-14.5l-4 -43q-2 -26 -3.5 -53t-3.5 -53q2 0 4 -0.5t4 -0.5t5 -1.5
t3 -4.5l-1 -1q-1 0 -1 -0.5t-1 -0.5q-2 0 -3 -3t-5 -5q-2 0 -3 -0.5t-3 -0.5l-1 -1q-2 -40 -6 -77q0 -5 -1 -10t-1 -10l-1 -1q0 -1 -1 -1l-2 -2q-2 -1 -8 -1q-5 0 -8 3q-2 2 -2 4v9q0 9 -4.5 21t-6.5 22v20.5t1 20.5v2h-9q-7 1 -14 0h-20q-2 -6 -4 -11q-2 -7 -3.5 -10.5
t-3.5 -10.5q-2 -4 -3.5 -8.5t-2.5 -8.5l-3 -11l-3 -12q-4 -9 -5 -16q-2 -6 -5 -14t-6 -6v2q0 1 -0.5 2t0.5 3q0 2 -2 8q-1 3 -1.5 7t0.5 10l7 28q2 8 4 14l4 15l5 15q0 3 1 4h-2q-3 1 -3.5 4t-2.5 4q-2 4 -2 8zM56 127h24q2 0 3.5 0.5t3.5 0.5t3 -0.5t3 -0.5v36q0 8 1 15.5
t2 15.5q1 5 1 11t2 11q2 10 2 17q0 11 3 23q0 2 1 4q-2 -5 -3.5 -9t-3.5 -9l-5 -12l-9 -24q-2 -8 -5 -14.5t-5 -13.5l-6 -18l-3 -8l-3 -8zM133 373q1 -2 2.5 -3.5t-0.5 -4.5l-2 -1q-1 0 -2.5 -2.5t-6.5 -2.5t-8 1t-5 1q-2 2 -1 4.5t0 4.5q0 2 3 8q1 2 3 2h3h1q1 -3 4 -3
l3 -1q1 0 2 -1q2 -2 4 -2zM162 365q1 -2 2.5 -3.5t-0.5 -4.5l-2 -1q-1 0 -2.5 -2.5t-6.5 -2.5t-8 1t-5 1q-2 2 -1 4.5t0 4.5q0 2 3 8q1 2 3 2h3h1q1 -3 4 -3l3 -1q1 0 2 -1q2 -2 4 -2z" />
    <glyph glyph-name="egrave" unicode="&#xe8;" horiz-adv-x="188" 
d="M187 323q0 -1 -2 -3l-3 -4h-1q0 -1 -1 -1v-1h-1l-2 1h-11q-5 2 -10 0h-13q-4 -1 -10 -1q-2 0 -3.5 -0.5t-3.5 -0.5h-6q-2 -1 -8 -1l-5 -1q0 -1 0.5 -2t0.5 -3q-1 -10 -2 -21t-3 -22l-10 -40q0 -2 -0.5 -3.5t-0.5 -3.5l23 3q3 0 6 0.5t7 0.5q1 0 3.5 -4t3.5 -14
q1 -11 -0.5 -15t-3.5 -5q-6 -3 -10 -3q-5 -1 -9 -2.5t-6 -3.5h-9q-4 0 -6 1q-1 0 -2 0.5t-3 -0.5q-2 -2 -4 0l-17 -74q-5 -19 -9 -37.5t-10 -37.5v-2q2 1 6 1q6 0 9 1h7q2 1 6 1h8q3 1 9 1q2 1 3.5 0.5t3.5 -0.5t3.5 -0.5t3.5 0.5h14q1 0 1 -5q2 -7 -1 -10l-2 -1
q-6 -2 -10 -2q-5 -1 -10 -1.5t-10 -0.5q-2 0 -5 -0.5t-5 -0.5t-5 -0.5t-5 -0.5q-8 0 -12 -1q-7 0 -11 -1q-4 0 -6 -1h-9q-3 0 -6 -0.5t-6 -0.5h-1q-3 1 -4 3.5t-2 3.5q-2 2 -2 4t-1 4q0 2 2.5 3.5t3.5 1.5h8q2 9 -1 21.5t-2 22.5l3 20q1 5 1.5 10t2.5 10q4 17 5.5 32.5
t3.5 24.5q3 15 7 26q-2 2 -2 5q-1 7 5 9l4 11q4 9 5 17q1 10 6 21q5 14 9.5 29t9.5 30q-1 0 -1.5 -0.5t-2.5 -0.5q0 1 -0.5 2t-0.5 3q-2 8 0 10l2 2q6 2 10 2q5 1 10.5 2t10.5 1q3 0 5.5 0.5t5.5 0.5q3 1 10 1q3 1 6.5 1h6.5q3 1 11 1q2 0 3.5 0.5t3.5 0.5h9q2 0 3.5 -0.5
t3.5 -0.5q5 0 7 -1h2q4 -1 4 -6v-5v0zM156 363q1 -2 2.5 -3.5t-0.5 -4.5l-2 -1q-1 0 -3.5 -3t-5.5 -2q-4 0 -7 1q-9 4 -11.5 5t-5 1.5t-7.5 2.5t-20 7q-1 1 -1.5 0.5t-1.5 0.5q-3 0 -6 3l-9 3q-2 2 -1 4.5t0 4.5q0 2 3 8q1 2 3 2h3l57 -22q1 -3 4 -3l3 -1q1 0 2 -1
q2 -2 4 -2z" />
    <glyph glyph-name="eacute" unicode="&#xe9;" horiz-adv-x="188" 
d="M187 323q0 -1 -2 -3l-3 -4h-1q0 -1 -1 -1v-1h-1l-2 1h-11q-5 2 -10 0h-13q-4 -1 -10 -1q-2 0 -3.5 -0.5t-3.5 -0.5h-6q-2 -1 -8 -1l-5 -1q0 -1 0.5 -2t0.5 -3q-1 -10 -2 -21t-3 -22l-10 -40q0 -2 -0.5 -3.5t-0.5 -3.5l23 3q3 0 6 0.5t7 0.5q1 0 3.5 -4t3.5 -14
q1 -11 -0.5 -15t-3.5 -5q-6 -3 -10 -3q-5 -1 -9 -2.5t-6 -3.5h-9q-4 0 -6 1q-1 0 -2 0.5t-3 -0.5q-2 -2 -4 0l-17 -74q-5 -19 -9 -37.5t-10 -37.5v-2q2 1 6 1q6 0 9 1h7q2 1 6 1h8q3 1 9 1q2 1 3.5 0.5t3.5 -0.5t3.5 -0.5t3.5 0.5h14q1 0 1 -5q2 -7 -1 -10l-2 -1
q-6 -2 -10 -2q-5 -1 -10 -1.5t-10 -0.5q-2 0 -5 -0.5t-5 -0.5t-5 -0.5t-5 -0.5q-8 0 -12 -1q-7 0 -11 -1q-4 0 -6 -1h-9q-3 0 -6 -0.5t-6 -0.5h-1q-3 1 -4 3.5t-2 3.5q-2 2 -2 4t-1 4q0 2 2.5 3.5t3.5 1.5h8q2 9 -1 21.5t-2 22.5l3 20q1 5 1.5 10t2.5 10q4 17 5.5 32.5
t3.5 24.5q3 15 7 26q-2 2 -2 5q-1 7 5 9l4 11q4 9 5 17q1 10 6 21q5 14 9.5 29t9.5 30q-1 0 -1.5 -0.5t-2.5 -0.5q0 1 -0.5 2t-0.5 3q-2 8 0 10l2 2q6 2 10 2q5 1 10.5 2t10.5 1q3 0 5.5 0.5t5.5 0.5q3 1 10 1q3 1 6.5 1h6.5q3 1 11 1q2 0 3.5 0.5t3.5 0.5h9q2 0 3.5 -0.5
t3.5 -0.5q5 0 7 -1h2q4 -1 4 -6v-5v0zM70 351q2 0 4 2q1 1 2 1l3 1q2 0 4 3l57 22h3t3 -2q3 -6 3 -8q-1 -2 0 -4.5t-1 -4.5l-9 -3q-3 -3 -6 -3q-1 -1 -1.5 -0.5t-1.5 -0.5q-15 -5 -20 -7t-7.5 -2.5t-5 -1.5t-11.5 -5q-3 -1 -7 -1q-3 -1 -5.5 2t-3.5 3l-2 1q-2 3 -0.5 4.5
t2.5 3.5z" />
    <glyph glyph-name="ecircumflex" unicode="&#xea;" horiz-adv-x="188" 
d="M187 323q0 -1 -2 -3l-3 -4h-1q0 -1 -1 -1v-1h-1l-2 1h-11q-5 2 -10 0h-13q-4 -1 -10 -1q-2 0 -3.5 -0.5t-3.5 -0.5h-6q-2 -1 -8 -1l-5 -1q0 -1 0.5 -2t0.5 -3q-1 -10 -2 -21t-3 -22l-10 -40q0 -2 -0.5 -3.5t-0.5 -3.5l23 3q3 0 6 0.5t7 0.5q1 0 3.5 -4t3.5 -14
q1 -11 -0.5 -15t-3.5 -5q-6 -3 -10 -3q-5 -1 -9 -2.5t-6 -3.5h-9q-4 0 -6 1q-1 0 -2 0.5t-3 -0.5q-2 -2 -4 0l-17 -74q-5 -19 -9 -37.5t-10 -37.5v-2q2 1 6 1q6 0 9 1h7q2 1 6 1h8q3 1 9 1q2 1 3.5 0.5t3.5 -0.5t3.5 -0.5t3.5 0.5h14q1 0 1 -5q2 -7 -1 -10l-2 -1
q-6 -2 -10 -2q-5 -1 -10 -1.5t-10 -0.5q-2 0 -5 -0.5t-5 -0.5t-5 -0.5t-5 -0.5q-8 0 -12 -1q-7 0 -11 -1q-4 0 -6 -1h-9q-3 0 -6 -0.5t-6 -0.5h-1q-3 1 -4 3.5t-2 3.5q-2 2 -2 4t-1 4q0 2 2.5 3.5t3.5 1.5h8q2 9 -1 21.5t-2 22.5l3 20q1 5 1.5 10t2.5 10q4 17 5.5 32.5
t3.5 24.5q3 15 7 26q-2 2 -2 5q-1 7 5 9l4 11q4 9 5 17q1 10 6 21q5 14 9.5 29t9.5 30q-1 0 -1.5 -0.5t-2.5 -0.5q0 1 -0.5 2t-0.5 3q-2 8 0 10l2 2q6 2 10 2q5 1 10.5 2t10.5 1q3 0 5.5 0.5t5.5 0.5q3 1 10 1q3 1 6.5 1h6.5q3 1 11 1q2 0 3.5 0.5t3.5 0.5h9q2 0 3.5 -0.5
t3.5 -0.5q5 0 7 -1h2q4 -1 4 -6v-5v0zM77 369q3 0 4 1q1 0 2 1h3h1q-1 0 2 1t27 6l24 -17h2l3 -2q1 0 2 -1l3 -3q1 -2 2.5 -4t-1.5 -4l-2 -1q-1 0 -4 -2.5t-6 -0.5q-1 0 -7 2l-20 12l-22 -4h-7q-3 0 -5 3.5t-3 3.5l-2 1q-2 4 0 5t4 3z" />
    <glyph glyph-name="edieresis" unicode="&#xeb;" horiz-adv-x="188" 
d="M187 323q0 -1 -2 -3l-3 -4h-1q0 -1 -1 -1v-1h-1l-2 1h-11q-5 2 -10 0h-13q-4 -1 -10 -1q-2 0 -3.5 -0.5t-3.5 -0.5h-6q-2 -1 -8 -1l-5 -1q0 -1 0.5 -2t0.5 -3q-1 -10 -2 -21t-3 -22l-10 -40q0 -2 -0.5 -3.5t-0.5 -3.5l23 3q3 0 6 0.5t7 0.5q1 0 3.5 -4t3.5 -14
q1 -11 -0.5 -15t-3.5 -5q-6 -3 -10 -3q-5 -1 -9 -2.5t-6 -3.5h-9q-4 0 -6 1q-1 0 -2 0.5t-3 -0.5q-2 -2 -4 0l-17 -74q-5 -19 -9 -37.5t-10 -37.5v-2q2 1 6 1q6 0 9 1h7q2 1 6 1h8q3 1 9 1q2 1 3.5 0.5t3.5 -0.5t3.5 -0.5t3.5 0.5h14q1 0 1 -5q2 -7 -1 -10l-2 -1
q-6 -2 -10 -2q-5 -1 -10 -1.5t-10 -0.5q-2 0 -5 -0.5t-5 -0.5t-5 -0.5t-5 -0.5q-8 0 -12 -1q-7 0 -11 -1q-4 0 -6 -1h-9q-3 0 -6 -0.5t-6 -0.5h-1q-3 1 -4 3.5t-2 3.5q-2 2 -2 4t-1 4q0 2 2.5 3.5t3.5 1.5h8q2 9 -1 21.5t-2 22.5l3 20q1 5 1.5 10t2.5 10q4 17 5.5 32.5
t3.5 24.5q3 15 7 26q-2 2 -2 5q-1 7 5 9l4 11q4 9 5 17q1 10 6 21q5 14 9.5 29t9.5 30q-1 0 -1.5 -0.5t-2.5 -0.5q0 1 -0.5 2t-0.5 3q-2 8 0 10l2 2q6 2 10 2q5 1 10.5 2t10.5 1q3 0 5.5 0.5t5.5 0.5q3 1 10 1q3 1 6.5 1h6.5q3 1 11 1q2 0 3.5 0.5t3.5 0.5h9q2 0 3.5 -0.5
t3.5 -0.5q5 0 7 -1h2q4 -1 4 -6v-5v0zM115 373q1 -2 2.5 -3.5t-0.5 -4.5l-2 -1q-1 0 -2.5 -2.5t-6.5 -2.5t-8 1t-5 1q-2 2 -1 4.5t0 4.5q0 2 3 8q1 2 3 2h3h1q1 -3 4 -3l3 -1q1 0 2 -1q2 -2 4 -2zM144 365q1 -2 2.5 -3.5t-0.5 -4.5l-2 -1q-1 0 -2.5 -2.5t-6.5 -2.5t-8 1
t-5 1q-2 2 -1 4.5t0 4.5q0 2 3 8q1 2 3 2h3h1q1 -3 4 -3l3 -1q1 0 2 -1q2 -2 4 -2z" />
    <glyph glyph-name="igrave" unicode="&#xec;" horiz-adv-x="132" 
d="M125 329l4 -2t1 -4l-2 -2q-1 0 -2 -3.5t-4 -4.5q-2 -1 -7 -1q-4 0 -7.5 -0.5t-7.5 -0.5h-2q-1 -10 -1 -21t-2 -22l-7 -42l-20 -126q-3 -20 -6 -39l-6 -38l-3 -12h13q3 -2 5 -1h2q2 0 4 -0.5t4 -0.5q2 -1 3.5 -2t1.5 -4v-1l-2 -1q-1 0 -2 -3.5t-4 -4.5q-2 -1 -7 -1
q-4 0 -8 -0.5t-7 -0.5h-31q-1 0 -2 -0.5t-3 -0.5q-4 0 -6 1h-10q-2 0 -1.5 3t-0.5 5q-1 1 -1 8q0 4 4 4h25v5q2 9 -2 21t-4 23q0 10 1 20.5t3 19.5q2 17 3 33.5t2 25.5q2 8 3.5 15.5t3.5 15.5l3 21q5 10 5 18q0 6 1 11.5t3 10.5q5 15 8.5 30t7.5 30q-1 0 -1.5 -0.5
t-1.5 -0.5q-4 0 -7 1h-9q-2 1 -2.5 3.5t-1.5 4.5q-2 2 0 8q0 4 4 4h62q2 -3 4 -1h3q1 0 3 -0.5t4 -0.5zM130 362q1 -2 2.5 -3.5t-0.5 -4.5l-2 -1q-1 0 -3.5 -3t-5.5 -2q-4 0 -7 1q-9 4 -11.5 5t-5 1.5t-7.5 2.5t-20 7q-1 1 -1.5 0.5t-1.5 0.5q-3 0 -6 3l-9 3q-2 2 -1 4.5
t0 4.5q0 2 3 8q1 2 3 2h3l57 -22q1 -3 4 -3l3 -1q1 0 2 -1q2 -2 4 -2z" />
    <glyph glyph-name="iacute" unicode="&#xed;" horiz-adv-x="132" 
d="M125 329l4 -2t1 -4l-2 -2q-1 0 -2 -3.5t-4 -4.5q-2 -1 -7 -1q-4 0 -7.5 -0.5t-7.5 -0.5h-2q-1 -10 -1 -21t-2 -22l-7 -42l-20 -126q-3 -20 -6 -39l-6 -38l-3 -12h13q3 -2 5 -1h2q2 0 4 -0.5t4 -0.5q2 -1 3.5 -2t1.5 -4v-1l-2 -1q-1 0 -2 -3.5t-4 -4.5q-2 -1 -7 -1
q-4 0 -8 -0.5t-7 -0.5h-31q-1 0 -2 -0.5t-3 -0.5q-4 0 -6 1h-10q-2 0 -1.5 3t-0.5 5q-1 1 -1 8q0 4 4 4h25v5q2 9 -2 21t-4 23q0 10 1 20.5t3 19.5q2 17 3 33.5t2 25.5q2 8 3.5 15.5t3.5 15.5l3 21q5 10 5 18q0 6 1 11.5t3 10.5q5 15 8.5 30t7.5 30q-1 0 -1.5 -0.5
t-1.5 -0.5q-4 0 -7 1h-9q-2 1 -2.5 3.5t-1.5 4.5q-2 2 0 8q0 4 4 4h62q2 -3 4 -1h3q1 0 3 -0.5t4 -0.5zM49 363q2 0 4 2q1 1 2 1l3 1q2 0 4 3l57 22h3t3 -2q3 -6 3 -8q-1 -2 0 -4.5t-1 -4.5l-9 -3q-3 -3 -6 -3q-1 -1 -1.5 -0.5t-1.5 -0.5q-15 -5 -20 -7t-7.5 -2.5t-5 -1.5
t-11.5 -5q-3 -1 -7 -1q-3 -1 -5.5 2t-3.5 3l-2 1q-2 3 -0.5 4.5t2.5 3.5z" />
    <glyph glyph-name="icircumflex" unicode="&#xee;" horiz-adv-x="132" 
d="M125 329l4 -2t1 -4l-2 -2q-1 0 -2 -3.5t-4 -4.5q-2 -1 -7 -1q-4 0 -7.5 -0.5t-7.5 -0.5h-2q-1 -10 -1 -21t-2 -22l-7 -42l-20 -126q-3 -20 -6 -39l-6 -38l-3 -12h13q3 -2 5 -1h2q2 0 4 -0.5t4 -0.5q2 -1 3.5 -2t1.5 -4v-1l-2 -1q-1 0 -2 -3.5t-4 -4.5q-2 -1 -7 -1
q-4 0 -8 -0.5t-7 -0.5h-31q-1 0 -2 -0.5t-3 -0.5q-4 0 -6 1h-10q-2 0 -1.5 3t-0.5 5q-1 1 -1 8q0 4 4 4h25v5q2 9 -2 21t-4 23q0 10 1 20.5t3 19.5q2 17 3 33.5t2 25.5q2 8 3.5 15.5t3.5 15.5l3 21q5 10 5 18q0 6 1 11.5t3 10.5q5 15 8.5 30t7.5 30q-1 0 -1.5 -0.5
t-1.5 -0.5q-4 0 -7 1h-9q-2 1 -2.5 3.5t-1.5 4.5q-2 2 0 8q0 4 4 4h62q2 -3 4 -1h3q1 0 3 -0.5t4 -0.5zM55 373q3 0 4 1q1 0 2 1h3h1q-1 0 2 1t27 6l24 -17h2l3 -2q1 0 2 -1l3 -3q1 -2 2.5 -4t-1.5 -4l-2 -1q-1 0 -4 -2.5t-6 -0.5q-1 0 -7 2l-20 12l-22 -4h-7q-3 0 -5 3.5
t-3 3.5l-2 1q-2 4 0 5t4 3z" />
    <glyph glyph-name="idieresis" unicode="&#xef;" horiz-adv-x="132" 
d="M125 329l4 -2t1 -4l-2 -2q-1 0 -2 -3.5t-4 -4.5q-2 -1 -7 -1q-4 0 -7.5 -0.5t-7.5 -0.5h-2q-1 -10 -1 -21t-2 -22l-7 -42l-20 -126q-3 -20 -6 -39l-6 -38l-3 -12h13q3 -2 5 -1h2q2 0 4 -0.5t4 -0.5q2 -1 3.5 -2t1.5 -4v-1l-2 -1q-1 0 -2 -3.5t-4 -4.5q-2 -1 -7 -1
q-4 0 -8 -0.5t-7 -0.5h-31q-1 0 -2 -0.5t-3 -0.5q-4 0 -6 1h-10q-2 0 -1.5 3t-0.5 5q-1 1 -1 8q0 4 4 4h25v5q2 9 -2 21t-4 23q0 10 1 20.5t3 19.5q2 17 3 33.5t2 25.5q2 8 3.5 15.5t3.5 15.5l3 21q5 10 5 18q0 6 1 11.5t3 10.5q5 15 8.5 30t7.5 30q-1 0 -1.5 -0.5
t-1.5 -0.5q-4 0 -7 1h-9q-2 1 -2.5 3.5t-1.5 4.5q-2 2 0 8q0 4 4 4h62q2 -3 4 -1h3q1 0 3 -0.5t4 -0.5zM89 373q1 -2 2.5 -3.5t-0.5 -4.5l-2 -1q-1 0 -2.5 -2.5t-6.5 -2.5t-8 1t-5 1q-2 2 -1 4.5t0 4.5q0 2 3 8q1 2 3 2h3h1q1 -3 4 -3l3 -1q1 0 2 -1q2 -2 4 -2zM118 365
q1 -2 2.5 -3.5t-0.5 -4.5l-2 -1q-1 0 -2.5 -2.5t-6.5 -2.5t-8 1t-5 1q-2 2 -1 4.5t0 4.5q0 2 3 8q1 2 3 2h3h1q1 -3 4 -3l3 -1q1 0 2 -1q2 -2 4 -2z" />
    <glyph glyph-name="ntilde" unicode="&#xf1;" horiz-adv-x="210" 
d="M194 330q8 -2 9 -8q0 -2 -0.5 -3.5t-0.5 -3.5l-2 -13l-3 -16l-6 -31l-6 -31l-12 -60l-7 -37l-6 -30l-3 -21l-5 -26q-2 -8 -2 -10v-14q1 -4 1 -10v-8q-1 0 -2 -3t-9 -5l-1 1l-1 -1l-4 -2l-1 -1q-3 -1 -8 -1h-6t-5 2q-2 6 -5 11t-5 10q-2 8 -4 12l-3 11q-1 3 -1 6t-2 6v3
q0 4 -1 6q-3 3 -1 6q1 2 0.5 2.5t-0.5 2.5l-3 16q-1 5 -1.5 10.5t-2.5 10.5l-3 19l-2 10q-2 5 1 7q1 1 1 4q-2 4 -2.5 8t-1.5 8q0 6 -2 16q0 4 -3 7q-1 -2 0.5 -4.5t-0.5 -4.5q-2 6 -2 9v1q3 2 3 3.5v3.5l-2 8q-1 1 -1 4v8t-1 8l-6 -26l-6 -29l-3 -19q-2 -7 -4 -17l-5 -23
l-5 -27l-5 -22q-3 -8 -5 -17q-2 -8 -2 -11q-2 -5 -3.5 -13t-3.5 -17q-1 -1 -1 -2h-1h-4q-8 2 -9 6q0 5 1 7l4 29l12 60l6 29l6 30l8 35l6 30q2 12 4 20l5 25v4l-1 17v12t2 12q2 2 2 5q1 1 4.5 3.5t14.5 2.5q2 1 5 1l1 -1q11 -1 17.5 -1.5t8.5 -5.5q2 -14 4.5 -27.5
t4.5 -27.5q0 -8 1 -16l2 -16q1 -4 1.5 -7.5t0.5 -8.5l5 -43l6 -33l3 -24l2 -9l3 15q1 8 2 15t3 15q2 5 2 10t2 10l3 17l5 24l5 27l5 23q4 11 5 19l3 11q0 4 3 13l2 9q1 1 1 4l2 5v1q2 2 5 1zM134 348h-2q0 1 -1 0.5t-1 0.5q-2 0 -2 0.5t-1 0.5q-5 0 -4 1q-1 0 -1 1h-2
q-1 0 -1 1q-3 0 -4 1l-4 3l-7 4q-7 7 -5 12t7 7t14 -4q4 -3 10 -7l28 -6q4 1 6 -1h2h1q1 -1 1.5 -0.5t1.5 -0.5l4 -2q2 -2 4.5 -3.5t4.5 -3.5q6 -6 4 -10t-6 -6q-3 -2 -7 0l-8 4q-4 3 -10 7z" />
    <glyph glyph-name="ograve" unicode="&#xf2;" horiz-adv-x="195" 
d="M185 254q1 -5 1 -8.5v-7.5q1 -9 1 -17.5v-16.5l-3 -36q-2 -6 -2 -12t-2 -12l-4 -21q-3 -12 -8 -28q-1 -7 -5 -16l-6 -16l-3 -7.5t-3 -5.5l-7 -13q-4 -6 -7 -9l-8 -10q-3 -4 -11 -10q-2 -2 -3 -2q0 -1 -0.5 -1t-0.5 -1q-2 0 -2 -1q-2 -1 -4.5 -2t-5.5 -2q-8 -2 -13 -2
q-8 0 -14 3h-1l-1 1h-2q-10 3 -17 10q-4 3 -6 5.5t-4 4.5q-1 4 -6 7l-4 4l-4 4q-9 9 -12 17q-6 19 -8 38q-1 8 -1.5 15.5t-0.5 15.5v13q-1 4 -1 10l2 14l3 14l2 10l3 9q0 2 0.5 2.5t0.5 1.5l2 4q0 2 2 8q0 4 2 10l4 10q2 2 4 6l3 6l4 7q0 1 2 3l2 3q3 6 7 12l8 12
q5 6 9.5 11t9.5 10l6 6q6 4 15 9l8 4t8 2q0 1 1 1q2 0 3 1h3q4 1 14 1q6 0 14 -3q8 -4 12 -7l2 -3l3 -2q0 -1 1 -1l1 -2l2 -2l2 -3q0 -1 0.5 -1.5t0.5 -1.5l2 -3q0 -1 0.5 -1.5t0.5 -1.5l2 -4l2 -5v-2l1 -3l1 -4l1 -5q0 -1 0.5 -2t0.5 -2q0 -2 0.5 -4.5t0.5 -4.5zM166 200
q1 8 1 17v18q-1 4 -1 12q-1 2 -1 6q0 2 -0.5 3t-0.5 3q-2 7 -3.5 14t-4.5 12l-4 8q-4 4 -6 5q-5 4 -15 4h-10l-4 2h-1l-3 -2l-17 -16q-5 -5 -11 -22l-1 -2l-1 -2q0 -1 -0.5 -1.5t-0.5 -2.5l-3 -8l-2 -4q0 -2 -0.5 -2.5t-0.5 -2.5q0 -1 -0.5 -1.5t-0.5 -2.5q-1 -1 -1 -2
t-0.5 -1t-0.5 -1l-12 -32q-6 -24 -9 -50l-2 -27v-25q1 -8 1.5 -15t2.5 -15t3.5 -14.5t3.5 -12.5q2 -3 4 -9l6 -7h1v-1q1 0 1 -1q1 0 2 -1l1 -1l1 -1q1 -1 1 -3q0 -1 2 -3h10q0 1 1 1h3l6 3q4 2 6 4l7 6q5 5 9.5 12.5t9.5 15.5q4 8 7.5 16.5t5.5 16.5q3 8 5.5 16.5t4.5 17.5
q2 8 3.5 17t3.5 18q2 11 3 21.5t1 21.5zM180 351q1 -2 2.5 -3.5t-0.5 -4.5l-2 -1q-1 0 -3.5 -3t-5.5 -2q-4 0 -7 1q-9 4 -11.5 5t-5 1.5t-7.5 2.5t-20 7q-1 1 -1.5 0.5t-1.5 0.5q-3 0 -6 3l-9 3q-2 2 -1 4.5t0 4.5q0 2 3 8q1 2 3 2h3l57 -22q1 -3 4 -3l3 -1q1 0 2 -1
q2 -2 4 -2z" />
    <glyph glyph-name="oacute" unicode="&#xf3;" horiz-adv-x="195" 
d="M185 254q1 -5 1 -8.5v-7.5q1 -9 1 -17.5v-16.5l-3 -36q-2 -6 -2 -12t-2 -12l-4 -21q-3 -12 -8 -28q-1 -7 -5 -16l-6 -16l-3 -7.5t-3 -5.5l-7 -13q-4 -6 -7 -9l-8 -10q-3 -4 -11 -10q-2 -2 -3 -2q0 -1 -0.5 -1t-0.5 -1q-2 0 -2 -1q-2 -1 -4.5 -2t-5.5 -2q-8 -2 -13 -2
q-8 0 -14 3h-1l-1 1h-2q-10 3 -17 10q-4 3 -6 5.5t-4 4.5q-1 4 -6 7l-4 4l-4 4q-9 9 -12 17q-6 19 -8 38q-1 8 -1.5 15.5t-0.5 15.5v13q-1 4 -1 10l2 14l3 14l2 10l3 9q0 2 0.5 2.5t0.5 1.5l2 4q0 2 2 8q0 4 2 10l4 10q2 2 4 6l3 6l4 7q0 1 2 3l2 3q3 6 7 12l8 12
q5 6 9.5 11t9.5 10l6 6q6 4 15 9l8 4t8 2q0 1 1 1q2 0 3 1h3q4 1 14 1q6 0 14 -3q8 -4 12 -7l2 -3l3 -2q0 -1 1 -1l1 -2l2 -2l2 -3q0 -1 0.5 -1.5t0.5 -1.5l2 -3q0 -1 0.5 -1.5t0.5 -1.5l2 -4l2 -5v-2l1 -3l1 -4l1 -5q0 -1 0.5 -2t0.5 -2q0 -2 0.5 -4.5t0.5 -4.5zM166 200
q1 8 1 17v18q-1 4 -1 12q-1 2 -1 6q0 2 -0.5 3t-0.5 3q-2 7 -3.5 14t-4.5 12l-4 8q-4 4 -6 5q-5 4 -15 4h-10l-4 2h-1l-3 -2l-17 -16q-5 -5 -11 -22l-1 -2l-1 -2q0 -1 -0.5 -1.5t-0.5 -2.5l-3 -8l-2 -4q0 -2 -0.5 -2.5t-0.5 -2.5q0 -1 -0.5 -1.5t-0.5 -2.5q-1 -1 -1 -2
t-0.5 -1t-0.5 -1l-12 -32q-6 -24 -9 -50l-2 -27v-25q1 -8 1.5 -15t2.5 -15t3.5 -14.5t3.5 -12.5q2 -3 4 -9l6 -7h1v-1q1 0 1 -1q1 0 2 -1l1 -1l1 -1q1 -1 1 -3q0 -1 2 -3h10q0 1 1 1h3l6 3q4 2 6 4l7 6q5 5 9.5 12.5t9.5 15.5q4 8 7.5 16.5t5.5 16.5q3 8 5.5 16.5t4.5 17.5
q2 8 3.5 17t3.5 18q2 11 3 21.5t1 21.5zM95 351q2 0 4 2q1 1 2 1l3 1q2 0 4 3l57 22h3t3 -2q3 -6 3 -8q-1 -2 0 -4.5t-1 -4.5l-9 -3q-3 -3 -6 -3q-1 -1 -1.5 -0.5t-1.5 -0.5q-15 -5 -20 -7t-7.5 -2.5t-5 -1.5t-11.5 -5q-3 -1 -7 -1q-3 -1 -5.5 2t-3.5 3l-2 1q-2 3 -0.5 4.5
t2.5 3.5z" />
    <glyph glyph-name="ocircumflex" unicode="&#xf4;" horiz-adv-x="195" 
d="M185 254q1 -5 1 -8.5v-7.5q1 -9 1 -17.5v-16.5l-3 -36q-2 -6 -2 -12t-2 -12l-4 -21q-3 -12 -8 -28q-1 -7 -5 -16l-6 -16l-3 -7.5t-3 -5.5l-7 -13q-4 -6 -7 -9l-8 -10q-3 -4 -11 -10q-2 -2 -3 -2q0 -1 -0.5 -1t-0.5 -1q-2 0 -2 -1q-2 -1 -4.5 -2t-5.5 -2q-8 -2 -13 -2
q-8 0 -14 3h-1l-1 1h-2q-10 3 -17 10q-4 3 -6 5.5t-4 4.5q-1 4 -6 7l-4 4l-4 4q-9 9 -12 17q-6 19 -8 38q-1 8 -1.5 15.5t-0.5 15.5v13q-1 4 -1 10l2 14l3 14l2 10l3 9q0 2 0.5 2.5t0.5 1.5l2 4q0 2 2 8q0 4 2 10l4 10q2 2 4 6l3 6l4 7q0 1 2 3l2 3q3 6 7 12l8 12
q5 6 9.5 11t9.5 10l6 6q6 4 15 9l8 4t8 2q0 1 1 1q2 0 3 1h3q4 1 14 1q6 0 14 -3q8 -4 12 -7l2 -3l3 -2q0 -1 1 -1l1 -2l2 -2l2 -3q0 -1 0.5 -1.5t0.5 -1.5l2 -3q0 -1 0.5 -1.5t0.5 -1.5l2 -4l2 -5v-2l1 -3l1 -4l1 -5q0 -1 0.5 -2t0.5 -2q0 -2 0.5 -4.5t0.5 -4.5zM166 200
q1 8 1 17v18q-1 4 -1 12q-1 2 -1 6q0 2 -0.5 3t-0.5 3q-2 7 -3.5 14t-4.5 12l-4 8q-4 4 -6 5q-5 4 -15 4h-10l-4 2h-1l-3 -2l-17 -16q-5 -5 -11 -22l-1 -2l-1 -2q0 -1 -0.5 -1.5t-0.5 -2.5l-3 -8l-2 -4q0 -2 -0.5 -2.5t-0.5 -2.5q0 -1 -0.5 -1.5t-0.5 -2.5q-1 -1 -1 -2
t-0.5 -1t-0.5 -1l-12 -32q-6 -24 -9 -50l-2 -27v-25q1 -8 1.5 -15t2.5 -15t3.5 -14.5t3.5 -12.5q2 -3 4 -9l6 -7h1v-1q1 0 1 -1q1 0 2 -1l1 -1l1 -1q1 -1 1 -3q0 -1 2 -3h10q0 1 1 1h3l6 3q4 2 6 4l7 6q5 5 9.5 12.5t9.5 15.5q4 8 7.5 16.5t5.5 16.5q3 8 5.5 16.5t4.5 17.5
q2 8 3.5 17t3.5 18q2 11 3 21.5t1 21.5zM107 358q3 0 4 1q1 0 2 1h3h1q-1 0 2 1t27 6l24 -17h2l3 -2q1 0 2 -1l3 -3q1 -2 2.5 -4t-1.5 -4l-2 -1q-1 0 -4 -2.5t-6 -0.5q-1 0 -7 2l-20 12l-22 -4h-7q-3 0 -5 3.5t-3 3.5l-2 1q-2 4 0 5t4 3z" />
    <glyph glyph-name="otilde" unicode="&#xf5;" horiz-adv-x="195" 
d="M185 254q1 -5 1 -8.5v-7.5q1 -9 1 -17.5v-16.5l-3 -36q-2 -6 -2 -12t-2 -12l-4 -21q-3 -12 -8 -28q-1 -7 -5 -16l-6 -16l-3 -7.5t-3 -5.5l-7 -13q-4 -6 -7 -9l-8 -10q-3 -4 -11 -10q-2 -2 -3 -2q0 -1 -0.5 -1t-0.5 -1q-2 0 -2 -1q-2 -1 -4.5 -2t-5.5 -2q-8 -2 -13 -2
q-8 0 -14 3h-1l-1 1h-2q-10 3 -17 10q-4 3 -6 5.5t-4 4.5q-1 4 -6 7l-4 4l-4 4q-9 9 -12 17q-6 19 -8 38q-1 8 -1.5 15.5t-0.5 15.5v13q-1 4 -1 10l2 14l3 14l2 10l3 9q0 2 0.5 2.5t0.5 1.5l2 4q0 2 2 8q0 4 2 10l4 10q2 2 4 6l3 6l4 7q0 1 2 3l2 3q3 6 7 12l8 12
q5 6 9.5 11t9.5 10l6 6q6 4 15 9l8 4t8 2q0 1 1 1q2 0 3 1h3q4 1 14 1q6 0 14 -3q8 -4 12 -7l2 -3l3 -2q0 -1 1 -1l1 -2l2 -2l2 -3q0 -1 0.5 -1.5t0.5 -1.5l2 -3q0 -1 0.5 -1.5t0.5 -1.5l2 -4l2 -5v-2l1 -3l1 -4l1 -5q0 -1 0.5 -2t0.5 -2q0 -2 0.5 -4.5t0.5 -4.5zM166 200
q1 8 1 17v18q-1 4 -1 12q-1 2 -1 6q0 2 -0.5 3t-0.5 3q-2 7 -3.5 14t-4.5 12l-4 8q-4 4 -6 5q-5 4 -15 4h-10l-4 2h-1l-3 -2l-17 -16q-5 -5 -11 -22l-1 -2l-1 -2q0 -1 -0.5 -1.5t-0.5 -2.5l-3 -8l-2 -4q0 -2 -0.5 -2.5t-0.5 -2.5q0 -1 -0.5 -1.5t-0.5 -2.5q-1 -1 -1 -2
t-0.5 -1t-0.5 -1l-12 -32q-6 -24 -9 -50l-2 -27v-25q1 -8 1.5 -15t2.5 -15t3.5 -14.5t3.5 -12.5q2 -3 4 -9l6 -7h1v-1q1 0 1 -1q1 0 2 -1l1 -1l1 -1q1 -1 1 -3q0 -1 2 -3h10q0 1 1 1h3l6 3q4 2 6 4l7 6q5 5 9.5 12.5t9.5 15.5q4 8 7.5 16.5t5.5 16.5q3 8 5.5 16.5t4.5 17.5
q2 8 3.5 17t3.5 18q2 11 3 21.5t1 21.5zM126 348h-2q0 1 -1 0.5t-1 0.5q-2 0 -2 0.5t-1 0.5q-5 0 -4 1q-1 0 -1 1h-2q-1 0 -1 1q-3 0 -4 1l-4 3l-7 4q-7 7 -5 12t7 7t14 -4q4 -3 10 -7l28 -6q4 1 6 -1h2h1q1 -1 1.5 -0.5t1.5 -0.5l4 -2q2 -2 4.5 -3.5t4.5 -3.5q6 -6 4 -10
t-6 -6q-3 -2 -7 0l-8 4q-4 3 -10 7z" />
    <glyph glyph-name="odieresis" unicode="&#xf6;" horiz-adv-x="195" 
d="M185 254q1 -5 1 -8.5v-7.5q1 -9 1 -17.5v-16.5l-3 -36q-2 -6 -2 -12t-2 -12l-4 -21q-3 -12 -8 -28q-1 -7 -5 -16l-6 -16l-3 -7.5t-3 -5.5l-7 -13q-4 -6 -7 -9l-8 -10q-3 -4 -11 -10q-2 -2 -3 -2q0 -1 -0.5 -1t-0.5 -1q-2 0 -2 -1q-2 -1 -4.5 -2t-5.5 -2q-8 -2 -13 -2
q-8 0 -14 3h-1l-1 1h-2q-10 3 -17 10q-4 3 -6 5.5t-4 4.5q-1 4 -6 7l-4 4l-4 4q-9 9 -12 17q-6 19 -8 38q-1 8 -1.5 15.5t-0.5 15.5v13q-1 4 -1 10l2 14l3 14l2 10l3 9q0 2 0.5 2.5t0.5 1.5l2 4q0 2 2 8q0 4 2 10l4 10q2 2 4 6l3 6l4 7q0 1 2 3l2 3q3 6 7 12l8 12
q5 6 9.5 11t9.5 10l6 6q6 4 15 9l8 4t8 2q0 1 1 1q2 0 3 1h3q4 1 14 1q6 0 14 -3q8 -4 12 -7l2 -3l3 -2q0 -1 1 -1l1 -2l2 -2l2 -3q0 -1 0.5 -1.5t0.5 -1.5l2 -3q0 -1 0.5 -1.5t0.5 -1.5l2 -4l2 -5v-2l1 -3l1 -4l1 -5q0 -1 0.5 -2t0.5 -2q0 -2 0.5 -4.5t0.5 -4.5zM166 200
q1 8 1 17v18q-1 4 -1 12q-1 2 -1 6q0 2 -0.5 3t-0.5 3q-2 7 -3.5 14t-4.5 12l-4 8q-4 4 -6 5q-5 4 -15 4h-10l-4 2h-1l-3 -2l-17 -16q-5 -5 -11 -22l-1 -2l-1 -2q0 -1 -0.5 -1.5t-0.5 -2.5l-3 -8l-2 -4q0 -2 -0.5 -2.5t-0.5 -2.5q0 -1 -0.5 -1.5t-0.5 -2.5q-1 -1 -1 -2
t-0.5 -1t-0.5 -1l-12 -32q-6 -24 -9 -50l-2 -27v-25q1 -8 1.5 -15t2.5 -15t3.5 -14.5t3.5 -12.5q2 -3 4 -9l6 -7h1v-1q1 0 1 -1q1 0 2 -1l1 -1l1 -1q1 -1 1 -3q0 -1 2 -3h10q0 1 1 1h3l6 3q4 2 6 4l7 6q5 5 9.5 12.5t9.5 15.5q4 8 7.5 16.5t5.5 16.5q3 8 5.5 16.5t4.5 17.5
q2 8 3.5 17t3.5 18q2 11 3 21.5t1 21.5zM141 373q1 -2 2.5 -3.5t-0.5 -4.5l-2 -1q-1 0 -2.5 -2.5t-6.5 -2.5t-8 1t-5 1q-2 2 -1 4.5t0 4.5q0 2 3 8q1 2 3 2h3h1q1 -3 4 -3l3 -1q1 0 2 -1q2 -2 4 -2zM170 365q1 -2 2.5 -3.5t-0.5 -4.5l-2 -1q-1 0 -2.5 -2.5t-6.5 -2.5t-8 1
t-5 1q-2 2 -1 4.5t0 4.5q0 2 3 8q1 2 3 2h3h1q1 -3 4 -3l3 -1q1 0 2 -1q2 -2 4 -2z" />
    <glyph glyph-name="ugrave" unicode="&#xf9;" horiz-adv-x="179" 
d="M167 320q2 -1 4 -5q2 -16 0 -31q-1 -8 -2 -15t-3 -15l-12 -90l-3 -27l-4 -27q-1 -1 -1 -3l-1 -4l-1 -3q0 -2 -1 -3v-1l-1 -1h-1v-7q-2 -10 -4 -17q-1 -5 -2 -8.5t-3 -8.5t-4 -11t-5 -11q-7 -13 -19 -23q-4 -2 -7.5 -4.5t-8.5 -4.5t-9 -3t-9 -2h-5q-3 -1 -7 -1.5t-9 0.5
l-9 3q-3 1 -9 5l-7 6q-2 2 -3 4l-2 4q-2 4 -3.5 7.5t-3.5 7.5l-3 16q0 5 -0.5 9.5t-0.5 9.5v15q0 3 0.5 5.5t0.5 5.5t0.5 6t0.5 7l2 8q0 8 1 13l3 21q1 5 1.5 10.5t2.5 10.5l3 20l2 11l2 10l5 24l4 21l2 14l4 17l5 25l1 2q2 5 5 6t5 3q1 2 8 2q2 -1 2 -6v-7l-2 -6
q-1 -7 -2 -13t-3 -12l-4 -20q0 -2 -2 -8l-3 -18l-4 -20l-2 -13l-3 -12q0 -4 -1 -8t-1 -8l-4 -18q-1 -5 -1 -8t-2 -8q0 -1 -2 -7q-3 -17 -4 -33q-2 -14 -1.5 -29t3.5 -26q0 -2 0.5 -2.5t0.5 -1.5l3 -10q2 -2 3 -4t3 -4v-1q1 0 1 -1h1v-1l1 -1q1 0 1 -1h1q0 -1 1 -1l1 -1
q1 -1 2 -1l1 -1h6q14 0 24.5 18t18.5 40q9 26 15 59v1q-2 4 -2 7q0 7 0.5 14.5t1.5 14.5q2 13 1.5 24.5t0.5 17.5q0 6 1 11.5t3 10.5q1 4 1 8t2 8l2 6t1 6q0 8 3 16q4 11 7 21.5t6 21.5q0 3 2 9q1 1 4.5 1.5t14.5 -5.5zM147 351q1 -2 2.5 -3.5t-0.5 -4.5l-2 -1q-1 0 -3.5 -3
t-5.5 -2q-4 0 -7 1q-9 4 -11.5 5t-5 1.5t-7.5 2.5t-20 7q-1 1 -1.5 0.5t-1.5 0.5q-3 0 -6 3l-9 3q-2 2 -1 4.5t0 4.5q0 2 3 8q1 2 3 2h3l57 -22q1 -3 4 -3l3 -1q1 0 2 -1q2 -2 4 -2z" />
    <glyph glyph-name="uacute" unicode="&#xfa;" horiz-adv-x="179" 
d="M167 320q2 -1 4 -5q2 -16 0 -31q-1 -8 -2 -15t-3 -15l-12 -90l-3 -27l-4 -27q-1 -1 -1 -3l-1 -4l-1 -3q0 -2 -1 -3v-1l-1 -1h-1v-7q-2 -10 -4 -17q-1 -5 -2 -8.5t-3 -8.5t-4 -11t-5 -11q-7 -13 -19 -23q-4 -2 -7.5 -4.5t-8.5 -4.5t-9 -3t-9 -2h-5q-3 -1 -7 -1.5t-9 0.5
l-9 3q-3 1 -9 5l-7 6q-2 2 -3 4l-2 4q-2 4 -3.5 7.5t-3.5 7.5l-3 16q0 5 -0.5 9.5t-0.5 9.5v15q0 3 0.5 5.5t0.5 5.5t0.5 6t0.5 7l2 8q0 8 1 13l3 21q1 5 1.5 10.5t2.5 10.5l3 20l2 11l2 10l5 24l4 21l2 14l4 17l5 25l1 2q2 5 5 6t5 3q1 2 8 2q2 -1 2 -6v-7l-2 -6
q-1 -7 -2 -13t-3 -12l-4 -20q0 -2 -2 -8l-3 -18l-4 -20l-2 -13l-3 -12q0 -4 -1 -8t-1 -8l-4 -18q-1 -5 -1 -8t-2 -8q0 -1 -2 -7q-3 -17 -4 -33q-2 -14 -1.5 -29t3.5 -26q0 -2 0.5 -2.5t0.5 -1.5l3 -10q2 -2 3 -4t3 -4v-1q1 0 1 -1h1v-1l1 -1q1 0 1 -1h1q0 -1 1 -1l1 -1
q1 -1 2 -1l1 -1h6q14 0 24.5 18t18.5 40q9 26 15 59v1q-2 4 -2 7q0 7 0.5 14.5t1.5 14.5q2 13 1.5 24.5t0.5 17.5q0 6 1 11.5t3 10.5q1 4 1 8t2 8l2 6t1 6q0 8 3 16q4 11 7 21.5t6 21.5q0 3 2 9q1 1 4.5 1.5t14.5 -5.5zM79 351q2 0 4 2q1 1 2 1l3 1q2 0 4 3l57 22h3t3 -2
q3 -6 3 -8q-1 -2 0 -4.5t-1 -4.5l-9 -3q-3 -3 -6 -3q-1 -1 -1.5 -0.5t-1.5 -0.5q-15 -5 -20 -7t-7.5 -2.5t-5 -1.5t-11.5 -5q-3 -1 -7 -1q-3 -1 -5.5 2t-3.5 3l-2 1q-2 3 -0.5 4.5t2.5 3.5z" />
    <glyph glyph-name="ucircumflex" unicode="&#xfb;" horiz-adv-x="179" 
d="M167 320q2 -1 4 -5q2 -16 0 -31q-1 -8 -2 -15t-3 -15l-12 -90l-3 -27l-4 -27q-1 -1 -1 -3l-1 -4l-1 -3q0 -2 -1 -3v-1l-1 -1h-1v-7q-2 -10 -4 -17q-1 -5 -2 -8.5t-3 -8.5t-4 -11t-5 -11q-7 -13 -19 -23q-4 -2 -7.5 -4.5t-8.5 -4.5t-9 -3t-9 -2h-5q-3 -1 -7 -1.5t-9 0.5
l-9 3q-3 1 -9 5l-7 6q-2 2 -3 4l-2 4q-2 4 -3.5 7.5t-3.5 7.5l-3 16q0 5 -0.5 9.5t-0.5 9.5v15q0 3 0.5 5.5t0.5 5.5t0.5 6t0.5 7l2 8q0 8 1 13l3 21q1 5 1.5 10.5t2.5 10.5l3 20l2 11l2 10l5 24l4 21l2 14l4 17l5 25l1 2q2 5 5 6t5 3q1 2 8 2q2 -1 2 -6v-7l-2 -6
q-1 -7 -2 -13t-3 -12l-4 -20q0 -2 -2 -8l-3 -18l-4 -20l-2 -13l-3 -12q0 -4 -1 -8t-1 -8l-4 -18q-1 -5 -1 -8t-2 -8q0 -1 -2 -7q-3 -17 -4 -33q-2 -14 -1.5 -29t3.5 -26q0 -2 0.5 -2.5t0.5 -1.5l3 -10q2 -2 3 -4t3 -4v-1q1 0 1 -1h1v-1l1 -1q1 0 1 -1h1q0 -1 1 -1l1 -1
q1 -1 2 -1l1 -1h6q14 0 24.5 18t18.5 40q9 26 15 59v1q-2 4 -2 7q0 7 0.5 14.5t1.5 14.5q2 13 1.5 24.5t0.5 17.5q0 6 1 11.5t3 10.5q1 4 1 8t2 8l2 6t1 6q0 8 3 16q4 11 7 21.5t6 21.5q0 3 2 9q1 1 4.5 1.5t14.5 -5.5zM81 367q3 0 4 1q1 0 2 1h3h1q-1 0 2 1t27 6l24 -17h2
l3 -2q1 0 2 -1l3 -3q1 -2 2.5 -4t-1.5 -4l-2 -1q-1 0 -4 -2.5t-6 -0.5q-1 0 -7 2l-20 12l-22 -4h-7q-3 0 -5 3.5t-3 3.5l-2 1q-2 4 0 5t4 3z" />
    <glyph glyph-name="udieresis" unicode="&#xfc;" horiz-adv-x="179" 
d="M167 320q2 -1 4 -5q2 -16 0 -31q-1 -8 -2 -15t-3 -15l-12 -90l-3 -27l-4 -27q-1 -1 -1 -3l-1 -4l-1 -3q0 -2 -1 -3v-1l-1 -1h-1v-7q-2 -10 -4 -17q-1 -5 -2 -8.5t-3 -8.5t-4 -11t-5 -11q-7 -13 -19 -23q-4 -2 -7.5 -4.5t-8.5 -4.5t-9 -3t-9 -2h-5q-3 -1 -7 -1.5t-9 0.5
l-9 3q-3 1 -9 5l-7 6q-2 2 -3 4l-2 4q-2 4 -3.5 7.5t-3.5 7.5l-3 16q0 5 -0.5 9.5t-0.5 9.5v15q0 3 0.5 5.5t0.5 5.5t0.5 6t0.5 7l2 8q0 8 1 13l3 21q1 5 1.5 10.5t2.5 10.5l3 20l2 11l2 10l5 24l4 21l2 14l4 17l5 25l1 2q2 5 5 6t5 3q1 2 8 2q2 -1 2 -6v-7l-2 -6
q-1 -7 -2 -13t-3 -12l-4 -20q0 -2 -2 -8l-3 -18l-4 -20l-2 -13l-3 -12q0 -4 -1 -8t-1 -8l-4 -18q-1 -5 -1 -8t-2 -8q0 -1 -2 -7q-3 -17 -4 -33q-2 -14 -1.5 -29t3.5 -26q0 -2 0.5 -2.5t0.5 -1.5l3 -10q2 -2 3 -4t3 -4v-1q1 0 1 -1h1v-1l1 -1q1 0 1 -1h1q0 -1 1 -1l1 -1
q1 -1 2 -1l1 -1h6q14 0 24.5 18t18.5 40q9 26 15 59v1q-2 4 -2 7q0 7 0.5 14.5t1.5 14.5q2 13 1.5 24.5t0.5 17.5q0 6 1 11.5t3 10.5q1 4 1 8t2 8l2 6t1 6q0 8 3 16q4 11 7 21.5t6 21.5q0 3 2 9q1 1 4.5 1.5t14.5 -5.5zM110 373q1 -2 2.5 -3.5t-0.5 -4.5l-2 -1
q-1 0 -2.5 -2.5t-6.5 -2.5t-8 1t-5 1q-2 2 -1 4.5t0 4.5q0 2 3 8q1 2 3 2h3h1q1 -3 4 -3l3 -1q1 0 2 -1q2 -2 4 -2zM139 365q1 -2 2.5 -3.5t-0.5 -4.5l-2 -1q-1 0 -2.5 -2.5t-6.5 -2.5t-8 1t-5 1q-2 2 -1 4.5t0 4.5q0 2 3 8q1 2 3 2h3h1q1 -3 4 -3l3 -1q1 0 2 -1q2 -2 4 -2z
" />
    <glyph glyph-name="yacute" unicode="&#xfd;" horiz-adv-x="134" 
d="M136 311q3 -1 2.5 -4.5t-2.5 -4.5q0 -1 -2 -5l-9 -17l-7 -14l-11 -18l-7 -14l-4 -10q-4 -4 -5 -8q-2 -2 -3.5 -5t-2.5 -6l-7 -13q0 -1 -1 -1.5t-1 -1.5v-4q0 -2 1 -4t1 -4v-3q1 -1 -3 -2l-5 -2v-2h2q0 -2 0.5 -2t0.5 -1q1 -2 0.5 -3t-0.5 -3q-1 -2 -0.5 -3t-0.5 -2
q0 -2 -1 -4.5t-1 -5.5q-1 -5 -1 -15q-1 -4 -1 -12q-1 -2 -1 -5v-11q-2 -5 -2 -13q-1 -2 -0.5 -4t0.5 -4q-1 -3 -1 -7q0 -3 -0.5 -5.5t-0.5 -4.5v-11q0 -3 -1 -5t-1 -5q-4 -4 -4 -7v-5q-1 -4 -4 -13.5t-8 -9.5q-3 0 -3 -2v-4t-1 -3t-5 -1q-8 1 -10 3.5t-4 8.5q-1 6 -4 12.5
t-3 14.5q1 6 1 13v13q1 4 1 13q0 8 2 12q1 5 1 15q0 9 1 13q0 2 -0.5 4.5t0.5 4.5q0 7 1 10q0 4 1 7.5t1 7.5t2 12q0 4 0.5 7t1.5 7q0 7 2 10v3q0 2 -1 2.5t-1 1.5v8l-2 12q0 7 -1 10v4q-1 3 -1 9l-3 10q0 2 -0.5 3.5t-0.5 3.5v5q-1 3 -1 8l-3 9q0 2 0.5 4t0.5 4t1.5 3
t1.5 3q0 1 -0.5 2t-0.5 2q0 3 1 10.5t6 9.5q5 1 5 5t8 4q10 0 8.5 -1.5t0.5 -6.5t6.5 -9t6.5 -11l3 -20q0 -3 0.5 -5.5t0.5 -4.5q2 -3 2 -10q0 -4 2 -12q0 -2 0.5 -4.5t0.5 -5.5q0 -1 1 -1l1 -1l3 7l9 17l7 15q3 3 5 10l7 12l9 16q1 1 1 2q3 4 7.5 3.5t6.5 0.5q3 3 9 -1z
M68 222l-7 -14zM64 168h-1q0 -2 1 -2v2zM72 182q0 1 0.5 1t0.5 1q0 -1 -0.5 -1t-0.5 -1zM68 178v-1v1zM53 351q2 0 4 2q1 1 2 1l3 1q2 0 4 3l57 22h3t3 -2q3 -6 3 -8q-1 -2 0 -4.5t-1 -4.5l-9 -3q-3 -3 -6 -3q-1 -1 -1.5 -0.5t-1.5 -0.5q-15 -5 -20 -7t-7.5 -2.5t-5 -1.5
t-11.5 -5q-3 -1 -7 -1q-3 -1 -5.5 2t-3.5 3l-2 1q-2 3 -0.5 4.5t2.5 3.5z" />
    <glyph glyph-name="ydieresis" unicode="&#xff;" horiz-adv-x="134" 
d="M136 311q3 -1 2.5 -4.5t-2.5 -4.5q0 -1 -2 -5l-9 -17l-7 -14l-11 -18l-7 -14l-4 -10q-4 -4 -5 -8q-2 -2 -3.5 -5t-2.5 -6l-7 -13q0 -1 -1 -1.5t-1 -1.5v-4q0 -2 1 -4t1 -4v-3q1 -1 -3 -2l-5 -2v-2h2q0 -2 0.5 -2t0.5 -1q1 -2 0.5 -3t-0.5 -3q-1 -2 -0.5 -3t-0.5 -2
q0 -2 -1 -4.5t-1 -5.5q-1 -5 -1 -15q-1 -4 -1 -12q-1 -2 -1 -5v-11q-2 -5 -2 -13q-1 -2 -0.5 -4t0.5 -4q-1 -3 -1 -7q0 -3 -0.5 -5.5t-0.5 -4.5v-11q0 -3 -1 -5t-1 -5q-4 -4 -4 -7v-5q-1 -4 -4 -13.5t-8 -9.5q-3 0 -3 -2v-4t-1 -3t-5 -1q-8 1 -10 3.5t-4 8.5q-1 6 -4 12.5
t-3 14.5q1 6 1 13v13q1 4 1 13q0 8 2 12q1 5 1 15q0 9 1 13q0 2 -0.5 4.5t0.5 4.5q0 7 1 10q0 4 1 7.5t1 7.5t2 12q0 4 0.5 7t1.5 7q0 7 2 10v3q0 2 -1 2.5t-1 1.5v8l-2 12q0 7 -1 10v4q-1 3 -1 9l-3 10q0 2 -0.5 3.5t-0.5 3.5v5q-1 3 -1 8l-3 9q0 2 0.5 4t0.5 4t1.5 3
t1.5 3q0 1 -0.5 2t-0.5 2q0 3 1 10.5t6 9.5q5 1 5 5t8 4q10 0 8.5 -1.5t0.5 -6.5t6.5 -9t6.5 -11l3 -20q0 -3 0.5 -5.5t0.5 -4.5q2 -3 2 -10q0 -4 2 -12q0 -2 0.5 -4.5t0.5 -5.5q0 -1 1 -1l1 -1l3 7l9 17l7 15q3 3 5 10l7 12l9 16q1 1 1 2q3 4 7.5 3.5t6.5 0.5q3 3 9 -1z
M68 222l-7 -14zM64 168h-1q0 -2 1 -2v2zM72 182q0 1 0.5 1t0.5 1q0 -1 -0.5 -1t-0.5 -1zM68 178v-1v1zM90 373q1 -2 2.5 -3.5t-0.5 -4.5l-2 -1q-1 0 -2.5 -2.5t-6.5 -2.5t-8 1t-5 1q-2 2 -1 4.5t0 4.5q0 2 3 8q1 2 3 2h3h1q1 -3 4 -3l3 -1q1 0 2 -1q2 -2 4 -2zM119 365
q1 -2 2.5 -3.5t-0.5 -4.5l-2 -1q-1 0 -2.5 -2.5t-6.5 -2.5t-8 1t-5 1q-2 2 -1 4.5t0 4.5q0 2 3 8q1 2 3 2h3h1q1 -3 4 -3l3 -1q1 0 2 -1q2 -2 4 -2z" />
  </font>
</defs>
</svg>
